<mxfile host="Electron" modified="2024-07-26T08:39:36.871Z" agent="Mozilla/5.0 (Windows NT 10.0; Win64; x64) AppleWebKit/537.36 (KHTML, like Gecko) draw.io/21.7.5 Chrome/114.0.5735.289 Electron/25.8.1 Safari/537.36" etag="DqIwy3la70eLo3aW3-DS" version="21.7.5" type="device" pages="2">
  <diagram name="Page-1" id="HIJ8mtWe8pUWvnPwBqvz">
    <mxGraphModel dx="7300" dy="2710" grid="1" gridSize="10" guides="1" tooltips="1" connect="1" arrows="1" fold="1" page="1" pageScale="1" pageWidth="850" pageHeight="1100" math="0" shadow="0">
      <root>
        <mxCell id="0" />
        <mxCell id="1" parent="0" />
        <mxCell id="DMT-dN4wNDoVank6GRrY-1" value="MainUI" style="swimlane;fontStyle=1;align=center;verticalAlign=top;childLayout=stackLayout;horizontal=1;startSize=26;horizontalStack=0;resizeParent=1;resizeParentMax=0;resizeLast=0;collapsible=1;marginBottom=0;whiteSpace=wrap;html=1;" parent="1" vertex="1">
          <mxGeometry x="200" y="210" width="350" height="200" as="geometry" />
        </mxCell>
        <mxCell id="DMT-dN4wNDoVank6GRrY-2" value="- houseUI: HouseUI&lt;br&gt;- landUI: LandUI&lt;br&gt;- uiController: UIController&lt;br&gt;- jPanel: JPanel&lt;br&gt;- jMenu: JMenu" style="text;strokeColor=none;fillColor=none;align=left;verticalAlign=top;spacingLeft=4;spacingRight=4;overflow=hidden;rotatable=0;points=[[0,0.5],[1,0.5]];portConstraint=eastwest;whiteSpace=wrap;html=1;" parent="DMT-dN4wNDoVank6GRrY-1" vertex="1">
          <mxGeometry y="26" width="350" height="94" as="geometry" />
        </mxCell>
        <mxCell id="DMT-dN4wNDoVank6GRrY-3" value="" style="line;strokeWidth=1;fillColor=none;align=left;verticalAlign=middle;spacingTop=-1;spacingLeft=3;spacingRight=3;rotatable=0;labelPosition=right;points=[];portConstraint=eastwest;strokeColor=inherit;" parent="DMT-dN4wNDoVank6GRrY-1" vertex="1">
          <mxGeometry y="120" width="350" height="8" as="geometry" />
        </mxCell>
        <mxCell id="DMT-dN4wNDoVank6GRrY-4" value="MainUI()&lt;br&gt;+ setSize(double, double): void&lt;br&gt;+ setJMenuBar(JMenu): void&lt;br&gt;+&amp;nbsp;actionPerformed(ActionEvent): void" style="text;strokeColor=none;fillColor=none;align=left;verticalAlign=top;spacingLeft=4;spacingRight=4;overflow=hidden;rotatable=0;points=[[0,0.5],[1,0.5]];portConstraint=eastwest;whiteSpace=wrap;html=1;" parent="DMT-dN4wNDoVank6GRrY-1" vertex="1">
          <mxGeometry y="128" width="350" height="72" as="geometry" />
        </mxCell>
        <mxCell id="DMT-dN4wNDoVank6GRrY-17" value="Extends" style="endArrow=block;endSize=16;endFill=0;html=1;rounded=0;exitX=-0.01;exitY=0.206;exitDx=0;exitDy=0;entryX=0.75;entryY=1;entryDx=0;entryDy=0;exitPerimeter=0;" parent="1" source="DMT-dN4wNDoVank6GRrY-2" target="DMT-dN4wNDoVank6GRrY-24" edge="1">
          <mxGeometry width="160" relative="1" as="geometry">
            <mxPoint x="150" y="180" as="sourcePoint" />
            <mxPoint x="178.08000000000015" y="156.98800000000028" as="targetPoint" />
          </mxGeometry>
        </mxCell>
        <mxCell id="DMT-dN4wNDoVank6GRrY-24" value="&lt;p style=&quot;margin:0px;margin-top:4px;text-align:center;&quot;&gt;&lt;b&gt;javax.swing&lt;/b&gt;&lt;/p&gt;&lt;p style=&quot;margin:0px;margin-top:4px;text-align:center;&quot;&gt;&lt;b&gt;JFrame&lt;/b&gt;&lt;/p&gt;&lt;hr size=&quot;1&quot; style=&quot;border-style:solid;&quot;&gt;&lt;p style=&quot;margin:0px;margin-left:4px;&quot;&gt;-&amp;nbsp;&lt;/p&gt;&lt;hr size=&quot;1&quot; style=&quot;border-style:solid;&quot;&gt;&lt;p style=&quot;margin:0px;margin-left:4px;&quot;&gt;+&amp;nbsp;&lt;/p&gt;" style="verticalAlign=top;align=left;overflow=fill;html=1;whiteSpace=wrap;" parent="1" vertex="1">
          <mxGeometry x="50" y="50" width="120" height="100" as="geometry" />
        </mxCell>
        <mxCell id="8F1XyEU1k7PKuXgPBpiQ-6" value="&lt;p style=&quot;margin:0px;margin-top:4px;text-align:center;&quot;&gt;&lt;b&gt;java.awt.event&lt;br&gt;ActionListener&lt;/b&gt;&lt;/p&gt;&lt;hr size=&quot;1&quot; style=&quot;border-style:solid;&quot;&gt;&lt;p style=&quot;margin:0px;margin-left:4px;&quot;&gt;-&amp;nbsp;&lt;/p&gt;&lt;hr size=&quot;1&quot; style=&quot;border-style:solid;&quot;&gt;&lt;p style=&quot;margin:0px;margin-left:4px;&quot;&gt;+&amp;nbsp;&lt;/p&gt;" style="verticalAlign=top;align=left;overflow=fill;html=1;whiteSpace=wrap;" parent="1" vertex="1">
          <mxGeometry x="515" y="40" width="120" height="100" as="geometry" />
        </mxCell>
        <mxCell id="8F1XyEU1k7PKuXgPBpiQ-9" value="HouseUI" style="swimlane;fontStyle=1;align=center;verticalAlign=top;childLayout=stackLayout;horizontal=1;startSize=26;horizontalStack=0;resizeParent=1;resizeParentMax=0;resizeLast=0;collapsible=1;marginBottom=0;whiteSpace=wrap;html=1;" parent="1" vertex="1">
          <mxGeometry x="-120" y="570" width="350" height="280" as="geometry" />
        </mxCell>
        <mxCell id="8F1XyEU1k7PKuXgPBpiQ-10" value="- houseService:HouseService&lt;br&gt;- houseUIController: HouseUIController&lt;br&gt;-&amp;nbsp;tableModel:&amp;nbsp;DefaultTableModel&lt;br&gt;- houseTable: JTable&lt;br&gt;- addButton, updateButton, deleteButton, findButton,...: JButton&lt;br&gt;- labelMaGiaoDich, labelNgayGiaoDich,...: JLabel&lt;br&gt;- textMaGiaoDich, textNgayGiaoDich,...: JTextField" style="text;strokeColor=none;fillColor=none;align=left;verticalAlign=top;spacingLeft=4;spacingRight=4;overflow=hidden;rotatable=0;points=[[0,0.5],[1,0.5]];portConstraint=eastwest;whiteSpace=wrap;html=1;" parent="8F1XyEU1k7PKuXgPBpiQ-9" vertex="1">
          <mxGeometry y="26" width="350" height="114" as="geometry" />
        </mxCell>
        <mxCell id="8F1XyEU1k7PKuXgPBpiQ-11" value="" style="line;strokeWidth=1;fillColor=none;align=left;verticalAlign=middle;spacingTop=-1;spacingLeft=3;spacingRight=3;rotatable=0;labelPosition=right;points=[];portConstraint=eastwest;strokeColor=inherit;" parent="8F1XyEU1k7PKuXgPBpiQ-9" vertex="1">
          <mxGeometry y="140" width="350" height="8" as="geometry" />
        </mxCell>
        <mxCell id="8F1XyEU1k7PKuXgPBpiQ-12" value="HouseUI(HouseService, CommandProcessor)&lt;br&gt;+ setSize(double, double): void&lt;br&gt;+ addHouse(): void&lt;br&gt;+ updateHouse(): void&lt;br&gt;+ deleteHouse(): void&lt;br&gt;+ reloadTable(): void&lt;br&gt;+&amp;nbsp;actionPerformed(ActionEvent): void&lt;br&gt;+ valueChanged(ListSelectionEvent): void" style="text;strokeColor=none;fillColor=none;align=left;verticalAlign=top;spacingLeft=4;spacingRight=4;overflow=hidden;rotatable=0;points=[[0,0.5],[1,0.5]];portConstraint=eastwest;whiteSpace=wrap;html=1;" parent="8F1XyEU1k7PKuXgPBpiQ-9" vertex="1">
          <mxGeometry y="148" width="350" height="132" as="geometry" />
        </mxCell>
        <mxCell id="8F1XyEU1k7PKuXgPBpiQ-13" value="" style="endArrow=open;endFill=1;endSize=12;html=1;rounded=0;exitX=0.131;exitY=1.031;exitDx=0;exitDy=0;exitPerimeter=0;entryX=0.75;entryY=0;entryDx=0;entryDy=0;" parent="1" source="DMT-dN4wNDoVank6GRrY-4" target="8F1XyEU1k7PKuXgPBpiQ-9" edge="1">
          <mxGeometry width="160" relative="1" as="geometry">
            <mxPoint x="230" y="500" as="sourcePoint" />
            <mxPoint x="390" y="500" as="targetPoint" />
          </mxGeometry>
        </mxCell>
        <mxCell id="8F1XyEU1k7PKuXgPBpiQ-24" value="" style="endArrow=block;dashed=1;endFill=0;endSize=12;html=1;rounded=0;exitX=0.106;exitY=-0.004;exitDx=0;exitDy=0;exitPerimeter=0;entryX=0.5;entryY=1;entryDx=0;entryDy=0;" parent="1" source="8F1XyEU1k7PKuXgPBpiQ-9" target="8F1XyEU1k7PKuXgPBpiQ-40" edge="1">
          <mxGeometry width="160" relative="1" as="geometry">
            <mxPoint x="-279.1199999999999" y="568.44" as="sourcePoint" />
            <mxPoint x="-279" y="380" as="targetPoint" />
          </mxGeometry>
        </mxCell>
        <mxCell id="8F1XyEU1k7PKuXgPBpiQ-25" value="LandUI" style="swimlane;fontStyle=1;align=center;verticalAlign=top;childLayout=stackLayout;horizontal=1;startSize=26;horizontalStack=0;resizeParent=1;resizeParentMax=0;resizeLast=0;collapsible=1;marginBottom=0;whiteSpace=wrap;html=1;" parent="1" vertex="1">
          <mxGeometry x="490" y="570" width="350" height="290" as="geometry" />
        </mxCell>
        <mxCell id="8F1XyEU1k7PKuXgPBpiQ-26" value="- landService: LandService&lt;br&gt;- landUIController: LandUIController&lt;br&gt;-&amp;nbsp;tableModel:&amp;nbsp;DefaultTableModel&lt;br&gt;- landTable: JTable&lt;br&gt;- addButton, updateButton, deleteButton, findButton,...: JButton&lt;br&gt;- labelMaGiaoDich, labelNgayGiaoDich,...: JLabel&lt;br&gt;- textMaGiaoDich, textNgayGiaoDich,...: JTextField" style="text;strokeColor=none;fillColor=none;align=left;verticalAlign=top;spacingLeft=4;spacingRight=4;overflow=hidden;rotatable=0;points=[[0,0.5],[1,0.5]];portConstraint=eastwest;whiteSpace=wrap;html=1;" parent="8F1XyEU1k7PKuXgPBpiQ-25" vertex="1">
          <mxGeometry y="26" width="350" height="114" as="geometry" />
        </mxCell>
        <mxCell id="8F1XyEU1k7PKuXgPBpiQ-27" value="" style="line;strokeWidth=1;fillColor=none;align=left;verticalAlign=middle;spacingTop=-1;spacingLeft=3;spacingRight=3;rotatable=0;labelPosition=right;points=[];portConstraint=eastwest;strokeColor=inherit;" parent="8F1XyEU1k7PKuXgPBpiQ-25" vertex="1">
          <mxGeometry y="140" width="350" height="8" as="geometry" />
        </mxCell>
        <mxCell id="8F1XyEU1k7PKuXgPBpiQ-28" value="LandUI()&lt;br&gt;+ setSize(double, double): void&lt;br&gt;+ addLand(): void&lt;br&gt;+ updateLand(): void&lt;br&gt;+ deleteLand(): void&lt;br&gt;+ reloadTable(): void&lt;br&gt;+&amp;nbsp;actionPerformed(ActionEvent): void&lt;br&gt;+ valueChanged(ListSelectionEvent): void" style="text;strokeColor=none;fillColor=none;align=left;verticalAlign=top;spacingLeft=4;spacingRight=4;overflow=hidden;rotatable=0;points=[[0,0.5],[1,0.5]];portConstraint=eastwest;whiteSpace=wrap;html=1;" parent="8F1XyEU1k7PKuXgPBpiQ-25" vertex="1">
          <mxGeometry y="148" width="350" height="142" as="geometry" />
        </mxCell>
        <mxCell id="8F1XyEU1k7PKuXgPBpiQ-35" value="" style="endArrow=block;dashed=1;endFill=0;endSize=12;html=1;rounded=0;exitX=1;exitY=0;exitDx=0;exitDy=0;entryX=0.5;entryY=1;entryDx=0;entryDy=0;" parent="1" source="8F1XyEU1k7PKuXgPBpiQ-25" target="8F1XyEU1k7PKuXgPBpiQ-41" edge="1">
          <mxGeometry width="160" relative="1" as="geometry">
            <mxPoint x="1086.1599999999999" y="568.44" as="sourcePoint" />
            <mxPoint x="980" y="340" as="targetPoint" />
          </mxGeometry>
        </mxCell>
        <mxCell id="8F1XyEU1k7PKuXgPBpiQ-36" value="" style="endArrow=open;endFill=1;endSize=12;html=1;rounded=0;exitX=0.853;exitY=0.989;exitDx=0;exitDy=0;exitPerimeter=0;entryX=0.098;entryY=-0.005;entryDx=0;entryDy=0;entryPerimeter=0;" parent="1" source="DMT-dN4wNDoVank6GRrY-4" target="8F1XyEU1k7PKuXgPBpiQ-25" edge="1">
          <mxGeometry width="160" relative="1" as="geometry">
            <mxPoint x="209" y="451" as="sourcePoint" />
            <mxPoint x="123" y="540" as="targetPoint" />
          </mxGeometry>
        </mxCell>
        <mxCell id="8F1XyEU1k7PKuXgPBpiQ-37" value="&lt;p style=&quot;margin:0px;margin-top:4px;text-align:center;&quot;&gt;&lt;i&gt;&amp;lt;&amp;lt;interface&amp;gt;&amp;gt;&lt;/i&gt;&lt;br&gt;&lt;b&gt;HouseService&lt;/b&gt;&lt;br&gt;&lt;/p&gt;&lt;hr size=&quot;1&quot;&gt;&lt;p style=&quot;margin:0px;margin-left:4px;&quot;&gt;-&amp;nbsp;&lt;/p&gt;&lt;hr size=&quot;1&quot;&gt;&lt;p style=&quot;margin:0px;margin-left:4px;&quot;&gt;+&amp;nbsp;addHouse&lt;i style=&quot;background-color: initial;&quot;&gt;(&lt;/i&gt;House&lt;i style=&quot;background-color: initial;&quot;&gt;)&lt;/i&gt;&lt;span style=&quot;background-color: initial;&quot;&gt;: void&lt;br&gt;+&amp;nbsp;&lt;/span&gt;updateHouse(House): void&lt;br&gt;+ deleteHouse(int): void&lt;br&gt;+ findHouse(int): House&lt;br&gt;+ getAllHouses(): List&amp;lt;House&amp;gt;&lt;br&gt;+&amp;nbsp;searchHousesByName(String): List&amp;lt;House&amp;gt;&lt;/p&gt;" style="verticalAlign=top;align=left;overflow=fill;fontSize=12;fontFamily=Helvetica;html=1;whiteSpace=wrap;" parent="1" vertex="1">
          <mxGeometry x="-310" y="935" width="260" height="170" as="geometry" />
        </mxCell>
        <mxCell id="8F1XyEU1k7PKuXgPBpiQ-39" value="" style="endArrow=open;endFill=1;endSize=12;html=1;rounded=0;exitX=0.233;exitY=0.989;exitDx=0;exitDy=0;exitPerimeter=0;entryX=0.5;entryY=0;entryDx=0;entryDy=0;" parent="1" source="8F1XyEU1k7PKuXgPBpiQ-12" target="8F1XyEU1k7PKuXgPBpiQ-37" edge="1">
          <mxGeometry width="160" relative="1" as="geometry">
            <mxPoint x="242" y="452" as="sourcePoint" />
            <mxPoint x="243" y="570" as="targetPoint" />
          </mxGeometry>
        </mxCell>
        <mxCell id="8F1XyEU1k7PKuXgPBpiQ-40" value="&lt;p style=&quot;margin:0px;margin-top:4px;text-align:center;&quot;&gt;&lt;b&gt;java.awt.event&lt;br&gt;ActionListener&lt;/b&gt;&lt;/p&gt;&lt;hr size=&quot;1&quot; style=&quot;border-style:solid;&quot;&gt;&lt;p style=&quot;margin:0px;margin-left:4px;&quot;&gt;-&amp;nbsp;&lt;/p&gt;&lt;hr size=&quot;1&quot; style=&quot;border-style:solid;&quot;&gt;&lt;p style=&quot;margin:0px;margin-left:4px;&quot;&gt;+&amp;nbsp;&lt;/p&gt;" style="verticalAlign=top;align=left;overflow=fill;html=1;whiteSpace=wrap;" parent="1" vertex="1">
          <mxGeometry x="-210" y="380" width="120" height="100" as="geometry" />
        </mxCell>
        <mxCell id="8F1XyEU1k7PKuXgPBpiQ-41" value="&lt;p style=&quot;margin:0px;margin-top:4px;text-align:center;&quot;&gt;&lt;b&gt;java.awt.event&lt;br&gt;ActionListener&lt;/b&gt;&lt;/p&gt;&lt;hr size=&quot;1&quot; style=&quot;border-style:solid;&quot;&gt;&lt;p style=&quot;margin:0px;margin-left:4px;&quot;&gt;-&amp;nbsp;&lt;/p&gt;&lt;hr size=&quot;1&quot; style=&quot;border-style:solid;&quot;&gt;&lt;p style=&quot;margin:0px;margin-left:4px;&quot;&gt;+&amp;nbsp;&lt;/p&gt;" style="verticalAlign=top;align=left;overflow=fill;html=1;whiteSpace=wrap;" parent="1" vertex="1">
          <mxGeometry x="1040" y="410" width="120" height="100" as="geometry" />
        </mxCell>
        <mxCell id="8F1XyEU1k7PKuXgPBpiQ-42" value="&lt;p style=&quot;margin:0px;margin-top:4px;text-align:center;&quot;&gt;&lt;b&gt;javax.swing&lt;/b&gt;&lt;/p&gt;&lt;p style=&quot;margin:0px;margin-top:4px;text-align:center;&quot;&gt;&lt;b&gt;JFrame&lt;/b&gt;&lt;/p&gt;&lt;hr size=&quot;1&quot; style=&quot;border-style:solid;&quot;&gt;&lt;p style=&quot;margin:0px;margin-left:4px;&quot;&gt;-&amp;nbsp;&lt;/p&gt;&lt;hr size=&quot;1&quot; style=&quot;border-style:solid;&quot;&gt;&lt;p style=&quot;margin:0px;margin-left:4px;&quot;&gt;+&amp;nbsp;&lt;/p&gt;" style="verticalAlign=top;align=left;overflow=fill;html=1;whiteSpace=wrap;" parent="1" vertex="1">
          <mxGeometry x="-60" y="380" width="120" height="100" as="geometry" />
        </mxCell>
        <mxCell id="8F1XyEU1k7PKuXgPBpiQ-43" value="Extends" style="endArrow=block;endSize=16;endFill=0;html=1;rounded=0;exitX=0.25;exitY=0;exitDx=0;exitDy=0;entryX=0.75;entryY=1;entryDx=0;entryDy=0;" parent="1" source="8F1XyEU1k7PKuXgPBpiQ-9" target="8F1XyEU1k7PKuXgPBpiQ-42" edge="1">
          <mxGeometry width="160" relative="1" as="geometry">
            <mxPoint x="205" y="234" as="sourcePoint" />
            <mxPoint x="30" y="390" as="targetPoint" />
          </mxGeometry>
        </mxCell>
        <mxCell id="8F1XyEU1k7PKuXgPBpiQ-44" value="&lt;p style=&quot;margin:0px;margin-top:4px;text-align:center;&quot;&gt;&lt;b&gt;javax.swing&lt;/b&gt;&lt;/p&gt;&lt;p style=&quot;margin:0px;margin-top:4px;text-align:center;&quot;&gt;&lt;b&gt;JFrame&lt;/b&gt;&lt;/p&gt;&lt;hr size=&quot;1&quot; style=&quot;border-style:solid;&quot;&gt;&lt;p style=&quot;margin:0px;margin-left:4px;&quot;&gt;-&amp;nbsp;&lt;/p&gt;&lt;hr size=&quot;1&quot; style=&quot;border-style:solid;&quot;&gt;&lt;p style=&quot;margin:0px;margin-left:4px;&quot;&gt;+&amp;nbsp;&lt;/p&gt;" style="verticalAlign=top;align=left;overflow=fill;html=1;whiteSpace=wrap;" parent="1" vertex="1">
          <mxGeometry x="830" y="400" width="120" height="100" as="geometry" />
        </mxCell>
        <mxCell id="8F1XyEU1k7PKuXgPBpiQ-45" value="Extends" style="endArrow=block;endSize=16;endFill=0;html=1;rounded=0;exitX=0.75;exitY=0;exitDx=0;exitDy=0;entryX=0.25;entryY=1;entryDx=0;entryDy=0;" parent="1" source="8F1XyEU1k7PKuXgPBpiQ-25" target="8F1XyEU1k7PKuXgPBpiQ-44" edge="1">
          <mxGeometry width="160" relative="1" as="geometry">
            <mxPoint x="1058" y="530" as="sourcePoint" />
            <mxPoint x="1120" y="350" as="targetPoint" />
          </mxGeometry>
        </mxCell>
        <mxCell id="8F1XyEU1k7PKuXgPBpiQ-46" value="HouseServiceImpl" style="swimlane;fontStyle=1;align=center;verticalAlign=top;childLayout=stackLayout;horizontal=1;startSize=26;horizontalStack=0;resizeParent=1;resizeParentMax=0;resizeLast=0;collapsible=1;marginBottom=0;whiteSpace=wrap;html=1;" parent="1" vertex="1">
          <mxGeometry x="-210" y="1300" width="270" height="160" as="geometry" />
        </mxCell>
        <mxCell id="8F1XyEU1k7PKuXgPBpiQ-47" value="-&amp;nbsp;persistenceService: HousePersistenceService" style="text;strokeColor=none;fillColor=none;align=left;verticalAlign=top;spacingLeft=4;spacingRight=4;overflow=hidden;rotatable=0;points=[[0,0.5],[1,0.5]];portConstraint=eastwest;whiteSpace=wrap;html=1;" parent="8F1XyEU1k7PKuXgPBpiQ-46" vertex="1">
          <mxGeometry y="26" width="270" height="26" as="geometry" />
        </mxCell>
        <mxCell id="8F1XyEU1k7PKuXgPBpiQ-48" value="" style="line;strokeWidth=1;fillColor=none;align=left;verticalAlign=middle;spacingTop=-1;spacingLeft=3;spacingRight=3;rotatable=0;labelPosition=right;points=[];portConstraint=eastwest;strokeColor=inherit;" parent="8F1XyEU1k7PKuXgPBpiQ-46" vertex="1">
          <mxGeometry y="52" width="270" height="8" as="geometry" />
        </mxCell>
        <mxCell id="8F1XyEU1k7PKuXgPBpiQ-49" value="HouseServiceImpl(HousePersistenceService)&lt;br&gt;+&amp;nbsp;updateHouse(House): void&lt;br style=&quot;border-color: var(--border-color);&quot;&gt;+ deleteHouse(int): void&lt;br style=&quot;border-color: var(--border-color);&quot;&gt;+ findHouse(int): House&lt;br style=&quot;border-color: var(--border-color);&quot;&gt;+ getAllHouses(): List&amp;lt;House&amp;gt;&lt;br style=&quot;border-color: var(--border-color);&quot;&gt;+&amp;nbsp;searchHousesByName(String): List&amp;lt;House&amp;gt;" style="text;strokeColor=none;fillColor=none;align=left;verticalAlign=top;spacingLeft=4;spacingRight=4;overflow=hidden;rotatable=0;points=[[0,0.5],[1,0.5]];portConstraint=eastwest;whiteSpace=wrap;html=1;" parent="8F1XyEU1k7PKuXgPBpiQ-46" vertex="1">
          <mxGeometry y="60" width="270" height="100" as="geometry" />
        </mxCell>
        <mxCell id="8F1XyEU1k7PKuXgPBpiQ-50" value="" style="endArrow=block;dashed=1;endFill=0;endSize=12;html=1;rounded=0;exitX=0.25;exitY=0;exitDx=0;exitDy=0;entryX=0.8;entryY=1.002;entryDx=0;entryDy=0;entryPerimeter=0;" parent="1" source="8F1XyEU1k7PKuXgPBpiQ-46" target="8F1XyEU1k7PKuXgPBpiQ-37" edge="1">
          <mxGeometry width="160" relative="1" as="geometry">
            <mxPoint x="1086" y="528" as="sourcePoint" />
            <mxPoint x="1140" y="470" as="targetPoint" />
          </mxGeometry>
        </mxCell>
        <mxCell id="8F1XyEU1k7PKuXgPBpiQ-51" value="&lt;p style=&quot;margin:0px;margin-top:4px;text-align:center;&quot;&gt;&lt;i&gt;&amp;lt;&amp;lt;interface&amp;gt;&amp;gt;&lt;/i&gt;&lt;br&gt;&lt;b&gt;HousePersistenceService&lt;/b&gt;&lt;br&gt;&lt;/p&gt;&lt;hr size=&quot;1&quot;&gt;&lt;p style=&quot;margin:0px;margin-left:4px;&quot;&gt;-&amp;nbsp;&lt;/p&gt;&lt;hr size=&quot;1&quot;&gt;&lt;p style=&quot;margin:0px;margin-left:4px;&quot;&gt;+&amp;nbsp;addHouse&lt;i style=&quot;background-color: initial;&quot;&gt;(&lt;/i&gt;House&lt;i style=&quot;background-color: initial;&quot;&gt;)&lt;/i&gt;&lt;span style=&quot;background-color: initial;&quot;&gt;: void&lt;br&gt;+&amp;nbsp;&lt;/span&gt;updateHouse(House): void&lt;br&gt;+ deleteHouse(int): void&lt;br&gt;+&amp;nbsp;getHouseByID&lt;span style=&quot;background-color: initial;&quot;&gt;(int): House&lt;/span&gt;&lt;/p&gt;&lt;p style=&quot;margin:0px;margin-left:4px;&quot;&gt;+ getAllHouses(): List&amp;lt;House&amp;gt;&lt;br&gt;&lt;/p&gt;" style="verticalAlign=top;align=left;overflow=fill;fontSize=12;fontFamily=Helvetica;html=1;whiteSpace=wrap;" parent="1" vertex="1">
          <mxGeometry x="-280" y="1630" width="260" height="170" as="geometry" />
        </mxCell>
        <mxCell id="8F1XyEU1k7PKuXgPBpiQ-52" value="" style="endArrow=open;endFill=1;endSize=12;html=1;rounded=0;exitX=0.458;exitY=1.008;exitDx=0;exitDy=0;exitPerimeter=0;entryX=0.433;entryY=-0.009;entryDx=0;entryDy=0;entryPerimeter=0;" parent="1" source="8F1XyEU1k7PKuXgPBpiQ-49" target="8F1XyEU1k7PKuXgPBpiQ-51" edge="1">
          <mxGeometry width="160" relative="1" as="geometry">
            <mxPoint x="-28" y="829" as="sourcePoint" />
            <mxPoint x="-40" y="890" as="targetPoint" />
          </mxGeometry>
        </mxCell>
        <mxCell id="8F1XyEU1k7PKuXgPBpiQ-53" value="HousePersistenceServiceImpl" style="swimlane;fontStyle=1;align=center;verticalAlign=top;childLayout=stackLayout;horizontal=1;startSize=26;horizontalStack=0;resizeParent=1;resizeParentMax=0;resizeLast=0;collapsible=1;marginBottom=0;whiteSpace=wrap;html=1;" parent="1" vertex="1">
          <mxGeometry x="-260" y="1920" width="260" height="190" as="geometry" />
        </mxCell>
        <mxCell id="8F1XyEU1k7PKuXgPBpiQ-54" value="- filePath: String" style="text;strokeColor=none;fillColor=none;align=left;verticalAlign=top;spacingLeft=4;spacingRight=4;overflow=hidden;rotatable=0;points=[[0,0.5],[1,0.5]];portConstraint=eastwest;whiteSpace=wrap;html=1;" parent="8F1XyEU1k7PKuXgPBpiQ-53" vertex="1">
          <mxGeometry y="26" width="260" height="26" as="geometry" />
        </mxCell>
        <mxCell id="8F1XyEU1k7PKuXgPBpiQ-55" value="" style="line;strokeWidth=1;fillColor=none;align=left;verticalAlign=middle;spacingTop=-1;spacingLeft=3;spacingRight=3;rotatable=0;labelPosition=right;points=[];portConstraint=eastwest;strokeColor=inherit;" parent="8F1XyEU1k7PKuXgPBpiQ-53" vertex="1">
          <mxGeometry y="52" width="260" height="8" as="geometry" />
        </mxCell>
        <mxCell id="8F1XyEU1k7PKuXgPBpiQ-56" value="HousePersistenceServiceImpl(String)&lt;br&gt;+ saveData(List&amp;lt;House&amp;gt;): void&lt;br&gt;&lt;span style=&quot;background-color: initial;&quot;&gt;+&amp;nbsp;addHouse&lt;/span&gt;&lt;i style=&quot;background-color: initial; border-color: var(--border-color);&quot;&gt;(&lt;/i&gt;&lt;span style=&quot;background-color: initial;&quot;&gt;House&lt;/span&gt;&lt;i style=&quot;background-color: initial; border-color: var(--border-color);&quot;&gt;)&lt;/i&gt;&lt;span style=&quot;background-color: initial;&quot;&gt;: void&lt;br&gt;&lt;/span&gt;&lt;span style=&quot;background-color: initial;&quot;&gt;+&amp;nbsp;updateHouse(House): void&lt;br&gt;&lt;/span&gt;&lt;span style=&quot;background-color: initial;&quot;&gt;+ deleteHouse(int): void&lt;br&gt;&lt;/span&gt;&lt;span style=&quot;background-color: initial;&quot;&gt;+&amp;nbsp;getHouseByID&lt;/span&gt;&lt;span style=&quot;background-color: initial; border-color: var(--border-color);&quot;&gt;(int): House&lt;br&gt;&lt;span style=&quot;background-color: initial;&quot;&gt;+ getAllHouses(): List&amp;lt;House&amp;gt;&lt;/span&gt;&lt;br&gt;&lt;/span&gt;" style="text;strokeColor=none;fillColor=none;align=left;verticalAlign=top;spacingLeft=4;spacingRight=4;overflow=hidden;rotatable=0;points=[[0,0.5],[1,0.5]];portConstraint=eastwest;whiteSpace=wrap;html=1;" parent="8F1XyEU1k7PKuXgPBpiQ-53" vertex="1">
          <mxGeometry y="60" width="260" height="130" as="geometry" />
        </mxCell>
        <mxCell id="8F1XyEU1k7PKuXgPBpiQ-57" value="" style="endArrow=block;dashed=1;endFill=0;endSize=12;html=1;rounded=0;exitX=0.25;exitY=0;exitDx=0;exitDy=0;entryX=0.25;entryY=1;entryDx=0;entryDy=0;" parent="1" source="8F1XyEU1k7PKuXgPBpiQ-53" target="8F1XyEU1k7PKuXgPBpiQ-51" edge="1">
          <mxGeometry width="160" relative="1" as="geometry">
            <mxPoint x="1086" y="1098" as="sourcePoint" />
            <mxPoint x="15" y="1620" as="targetPoint" />
          </mxGeometry>
        </mxCell>
        <mxCell id="8F1XyEU1k7PKuXgPBpiQ-62" value="&lt;p style=&quot;margin:0px;margin-top:4px;text-align:center;&quot;&gt;&lt;i&gt;&amp;lt;&amp;lt;interface&amp;gt;&amp;gt;&lt;/i&gt;&lt;br&gt;&lt;b&gt;LandService&lt;/b&gt;&lt;br&gt;&lt;/p&gt;&lt;hr size=&quot;1&quot;&gt;&lt;p style=&quot;margin:0px;margin-left:4px;&quot;&gt;-&amp;nbsp;&lt;/p&gt;&lt;hr size=&quot;1&quot;&gt;&lt;p style=&quot;margin:0px;margin-left:4px;&quot;&gt;+&amp;nbsp;addLand&lt;i style=&quot;background-color: initial;&quot;&gt;(&lt;/i&gt;&lt;span style=&quot;background-color: initial;&quot;&gt;Land&lt;/span&gt;&lt;i style=&quot;background-color: initial;&quot;&gt;)&lt;/i&gt;&lt;span style=&quot;background-color: initial;&quot;&gt;: void&lt;br&gt;+&amp;nbsp;&lt;/span&gt;updateLand(Land): void&lt;br&gt;+ deleteLand(int): void&lt;br&gt;+ findLand(int): Land&lt;br&gt;+ getAllLands(): List&amp;lt;Land&amp;gt;&lt;br&gt;+&amp;nbsp;searchLandsByName(String): List&amp;lt;Land&amp;gt;&lt;/p&gt;" style="verticalAlign=top;align=left;overflow=fill;fontSize=12;fontFamily=Helvetica;html=1;whiteSpace=wrap;" parent="1" vertex="1">
          <mxGeometry x="630" y="980" width="260" height="170" as="geometry" />
        </mxCell>
        <mxCell id="8F1XyEU1k7PKuXgPBpiQ-63" value="" style="endArrow=open;endFill=1;endSize=12;html=1;rounded=0;exitX=0.457;exitY=1.02;exitDx=0;exitDy=0;exitPerimeter=0;entryX=0.5;entryY=0;entryDx=0;entryDy=0;" parent="1" source="8F1XyEU1k7PKuXgPBpiQ-28" target="8F1XyEU1k7PKuXgPBpiQ-62" edge="1">
          <mxGeometry width="160" relative="1" as="geometry">
            <mxPoint x="712" y="820" as="sourcePoint" />
            <mxPoint x="993" y="571" as="targetPoint" />
          </mxGeometry>
        </mxCell>
        <mxCell id="8F1XyEU1k7PKuXgPBpiQ-64" value="LandServiceImpl" style="swimlane;fontStyle=1;align=center;verticalAlign=top;childLayout=stackLayout;horizontal=1;startSize=26;horizontalStack=0;resizeParent=1;resizeParentMax=0;resizeLast=0;collapsible=1;marginBottom=0;whiteSpace=wrap;html=1;" parent="1" vertex="1">
          <mxGeometry x="425" y="1300" width="270" height="160" as="geometry" />
        </mxCell>
        <mxCell id="8F1XyEU1k7PKuXgPBpiQ-65" value="-&amp;nbsp;persistenceService: LandPersistenceService" style="text;strokeColor=none;fillColor=none;align=left;verticalAlign=top;spacingLeft=4;spacingRight=4;overflow=hidden;rotatable=0;points=[[0,0.5],[1,0.5]];portConstraint=eastwest;whiteSpace=wrap;html=1;" parent="8F1XyEU1k7PKuXgPBpiQ-64" vertex="1">
          <mxGeometry y="26" width="270" height="26" as="geometry" />
        </mxCell>
        <mxCell id="8F1XyEU1k7PKuXgPBpiQ-66" value="" style="line;strokeWidth=1;fillColor=none;align=left;verticalAlign=middle;spacingTop=-1;spacingLeft=3;spacingRight=3;rotatable=0;labelPosition=right;points=[];portConstraint=eastwest;strokeColor=inherit;" parent="8F1XyEU1k7PKuXgPBpiQ-64" vertex="1">
          <mxGeometry y="52" width="270" height="8" as="geometry" />
        </mxCell>
        <mxCell id="8F1XyEU1k7PKuXgPBpiQ-67" value="LandServiceImpl(LandPersistenceService)&lt;br&gt;+&amp;nbsp;updateLand(Land): void&lt;br style=&quot;border-color: var(--border-color);&quot;&gt;+ deleteLand(int): void&lt;br style=&quot;border-color: var(--border-color);&quot;&gt;+ findLand(int): Land&lt;br style=&quot;border-color: var(--border-color);&quot;&gt;+ getAllLands(): List&amp;lt;Land&amp;gt;&lt;br style=&quot;border-color: var(--border-color);&quot;&gt;+&amp;nbsp;searchLandsByName(String): List&amp;lt;Land&amp;gt;" style="text;strokeColor=none;fillColor=none;align=left;verticalAlign=top;spacingLeft=4;spacingRight=4;overflow=hidden;rotatable=0;points=[[0,0.5],[1,0.5]];portConstraint=eastwest;whiteSpace=wrap;html=1;" parent="8F1XyEU1k7PKuXgPBpiQ-64" vertex="1">
          <mxGeometry y="60" width="270" height="100" as="geometry" />
        </mxCell>
        <mxCell id="8F1XyEU1k7PKuXgPBpiQ-68" value="" style="endArrow=block;dashed=1;endFill=0;endSize=12;html=1;rounded=0;exitX=0.75;exitY=0;exitDx=0;exitDy=0;entryX=0.25;entryY=1;entryDx=0;entryDy=0;" parent="1" source="8F1XyEU1k7PKuXgPBpiQ-64" target="8F1XyEU1k7PKuXgPBpiQ-62" edge="1">
          <mxGeometry width="160" relative="1" as="geometry">
            <mxPoint x="1836" y="529" as="sourcePoint" />
            <mxPoint x="1890" y="471" as="targetPoint" />
          </mxGeometry>
        </mxCell>
        <mxCell id="8F1XyEU1k7PKuXgPBpiQ-69" value="&lt;p style=&quot;margin:0px;margin-top:4px;text-align:center;&quot;&gt;&lt;i&gt;&amp;lt;&amp;lt;interface&amp;gt;&amp;gt;&lt;/i&gt;&lt;br&gt;&lt;b&gt;LandPersistenceService&lt;/b&gt;&lt;br&gt;&lt;/p&gt;&lt;hr size=&quot;1&quot;&gt;&lt;p style=&quot;margin:0px;margin-left:4px;&quot;&gt;-&amp;nbsp;&lt;/p&gt;&lt;hr size=&quot;1&quot;&gt;&lt;p style=&quot;margin:0px;margin-left:4px;&quot;&gt;+&amp;nbsp;addLand&lt;i style=&quot;background-color: initial;&quot;&gt;(&lt;/i&gt;Land&lt;i style=&quot;background-color: initial;&quot;&gt;)&lt;/i&gt;&lt;span style=&quot;background-color: initial;&quot;&gt;: void&lt;br&gt;+&amp;nbsp;&lt;/span&gt;updateLand(Land): void&lt;br&gt;+ deleteLand(int): void&lt;br&gt;+&amp;nbsp;getLandByID&lt;span style=&quot;background-color: initial;&quot;&gt;(int): Land&lt;/span&gt;&lt;/p&gt;&lt;p style=&quot;margin:0px;margin-left:4px;&quot;&gt;+ getAllLands(): List&amp;lt;Land&amp;gt;&lt;br&gt;&lt;/p&gt;" style="verticalAlign=top;align=left;overflow=fill;fontSize=12;fontFamily=Helvetica;html=1;whiteSpace=wrap;" parent="1" vertex="1">
          <mxGeometry x="400" y="1620" width="260" height="170" as="geometry" />
        </mxCell>
        <mxCell id="8F1XyEU1k7PKuXgPBpiQ-70" value="" style="endArrow=open;endFill=1;endSize=12;html=1;rounded=0;exitX=0.41;exitY=1.032;exitDx=0;exitDy=0;exitPerimeter=0;entryX=0.433;entryY=-0.009;entryDx=0;entryDy=0;entryPerimeter=0;" parent="1" source="8F1XyEU1k7PKuXgPBpiQ-67" target="8F1XyEU1k7PKuXgPBpiQ-69" edge="1">
          <mxGeometry width="160" relative="1" as="geometry">
            <mxPoint x="722" y="830" as="sourcePoint" />
            <mxPoint x="710" y="891" as="targetPoint" />
          </mxGeometry>
        </mxCell>
        <mxCell id="8F1XyEU1k7PKuXgPBpiQ-71" value="LandPersistenceServiceImpl" style="swimlane;fontStyle=1;align=center;verticalAlign=top;childLayout=stackLayout;horizontal=1;startSize=26;horizontalStack=0;resizeParent=1;resizeParentMax=0;resizeLast=0;collapsible=1;marginBottom=0;whiteSpace=wrap;html=1;" parent="1" vertex="1">
          <mxGeometry x="370" y="1920" width="260" height="190" as="geometry" />
        </mxCell>
        <mxCell id="8F1XyEU1k7PKuXgPBpiQ-72" value="- filePath: String" style="text;strokeColor=none;fillColor=none;align=left;verticalAlign=top;spacingLeft=4;spacingRight=4;overflow=hidden;rotatable=0;points=[[0,0.5],[1,0.5]];portConstraint=eastwest;whiteSpace=wrap;html=1;" parent="8F1XyEU1k7PKuXgPBpiQ-71" vertex="1">
          <mxGeometry y="26" width="260" height="26" as="geometry" />
        </mxCell>
        <mxCell id="8F1XyEU1k7PKuXgPBpiQ-73" value="" style="line;strokeWidth=1;fillColor=none;align=left;verticalAlign=middle;spacingTop=-1;spacingLeft=3;spacingRight=3;rotatable=0;labelPosition=right;points=[];portConstraint=eastwest;strokeColor=inherit;" parent="8F1XyEU1k7PKuXgPBpiQ-71" vertex="1">
          <mxGeometry y="52" width="260" height="8" as="geometry" />
        </mxCell>
        <mxCell id="8F1XyEU1k7PKuXgPBpiQ-74" value="LandPersistenceServiceImpl(String)&lt;br&gt;+ saveData(List&amp;lt;Land&amp;gt;): void&lt;br&gt;&lt;span style=&quot;background-color: initial;&quot;&gt;+&amp;nbsp;addLand&lt;/span&gt;&lt;i style=&quot;background-color: initial; border-color: var(--border-color);&quot;&gt;(&lt;/i&gt;&lt;span style=&quot;background-color: initial; border-color: var(--border-color);&quot;&gt;Land&lt;/span&gt;&lt;i style=&quot;background-color: initial; border-color: var(--border-color);&quot;&gt;)&lt;/i&gt;&lt;span style=&quot;background-color: initial;&quot;&gt;: void&lt;br&gt;&lt;/span&gt;&lt;span style=&quot;background-color: initial;&quot;&gt;+&amp;nbsp;updateLand(Land): void&lt;br&gt;&lt;/span&gt;&lt;span style=&quot;background-color: initial;&quot;&gt;+ deleteLand(int): void&lt;br&gt;&lt;/span&gt;&lt;span style=&quot;background-color: initial;&quot;&gt;+&amp;nbsp;getLandByID&lt;/span&gt;&lt;span style=&quot;background-color: initial; border-color: var(--border-color);&quot;&gt;(int): Land&lt;br&gt;&lt;span style=&quot;background-color: initial;&quot;&gt;+ getAllLands(): List&amp;lt;Land&amp;gt;&lt;/span&gt;&lt;br&gt;&lt;/span&gt;" style="text;strokeColor=none;fillColor=none;align=left;verticalAlign=top;spacingLeft=4;spacingRight=4;overflow=hidden;rotatable=0;points=[[0,0.5],[1,0.5]];portConstraint=eastwest;whiteSpace=wrap;html=1;" parent="8F1XyEU1k7PKuXgPBpiQ-71" vertex="1">
          <mxGeometry y="60" width="260" height="130" as="geometry" />
        </mxCell>
        <mxCell id="8F1XyEU1k7PKuXgPBpiQ-75" value="" style="endArrow=block;dashed=1;endFill=0;endSize=12;html=1;rounded=0;exitX=0.25;exitY=0;exitDx=0;exitDy=0;entryX=0.25;entryY=1;entryDx=0;entryDy=0;" parent="1" source="8F1XyEU1k7PKuXgPBpiQ-71" target="8F1XyEU1k7PKuXgPBpiQ-69" edge="1">
          <mxGeometry width="160" relative="1" as="geometry">
            <mxPoint x="1836" y="1099" as="sourcePoint" />
            <mxPoint x="765" y="1621" as="targetPoint" />
          </mxGeometry>
        </mxCell>
        <mxCell id="jqKUpd696BWljWw7io7Z-1" value="Connection" style="swimlane;fontStyle=1;align=center;verticalAlign=top;childLayout=stackLayout;horizontal=1;startSize=26;horizontalStack=0;resizeParent=1;resizeParentMax=0;resizeLast=0;collapsible=1;marginBottom=0;whiteSpace=wrap;html=1;" parent="1" vertex="1">
          <mxGeometry x="110" y="2180" width="160" height="86" as="geometry" />
        </mxCell>
        <mxCell id="jqKUpd696BWljWw7io7Z-2" value="+ field: type" style="text;strokeColor=none;fillColor=none;align=left;verticalAlign=top;spacingLeft=4;spacingRight=4;overflow=hidden;rotatable=0;points=[[0,0.5],[1,0.5]];portConstraint=eastwest;whiteSpace=wrap;html=1;" parent="jqKUpd696BWljWw7io7Z-1" vertex="1">
          <mxGeometry y="26" width="160" height="26" as="geometry" />
        </mxCell>
        <mxCell id="jqKUpd696BWljWw7io7Z-3" value="" style="line;strokeWidth=1;fillColor=none;align=left;verticalAlign=middle;spacingTop=-1;spacingLeft=3;spacingRight=3;rotatable=0;labelPosition=right;points=[];portConstraint=eastwest;strokeColor=inherit;" parent="jqKUpd696BWljWw7io7Z-1" vertex="1">
          <mxGeometry y="52" width="160" height="8" as="geometry" />
        </mxCell>
        <mxCell id="jqKUpd696BWljWw7io7Z-4" value="+ method(type): type" style="text;strokeColor=none;fillColor=none;align=left;verticalAlign=top;spacingLeft=4;spacingRight=4;overflow=hidden;rotatable=0;points=[[0,0.5],[1,0.5]];portConstraint=eastwest;whiteSpace=wrap;html=1;" parent="jqKUpd696BWljWw7io7Z-1" vertex="1">
          <mxGeometry y="60" width="160" height="26" as="geometry" />
        </mxCell>
        <mxCell id="jqKUpd696BWljWw7io7Z-5" value="" style="endArrow=diamondThin;endFill=1;endSize=24;html=1;rounded=0;exitX=1;exitY=0;exitDx=0;exitDy=0;" parent="1" source="jqKUpd696BWljWw7io7Z-1" target="8F1XyEU1k7PKuXgPBpiQ-74" edge="1">
          <mxGeometry width="160" relative="1" as="geometry">
            <mxPoint x="-50" y="2020" as="sourcePoint" />
            <mxPoint x="130" y="2030" as="targetPoint" />
          </mxGeometry>
        </mxCell>
        <mxCell id="jqKUpd696BWljWw7io7Z-6" value="AddCommand" style="swimlane;fontStyle=1;align=center;verticalAlign=top;childLayout=stackLayout;horizontal=1;startSize=26;horizontalStack=0;resizeParent=1;resizeParentMax=0;resizeLast=0;collapsible=1;marginBottom=0;whiteSpace=wrap;html=1;" parent="1" vertex="1">
          <mxGeometry x="-1160" y="320" width="285" height="110" as="geometry" />
        </mxCell>
        <mxCell id="jqKUpd696BWljWw7io7Z-7" value="-&amp;nbsp;" style="text;strokeColor=none;fillColor=none;align=left;verticalAlign=top;spacingLeft=4;spacingRight=4;overflow=hidden;rotatable=0;points=[[0,0.5],[1,0.5]];portConstraint=eastwest;whiteSpace=wrap;html=1;" parent="jqKUpd696BWljWw7io7Z-6" vertex="1">
          <mxGeometry y="26" width="285" height="26" as="geometry" />
        </mxCell>
        <mxCell id="jqKUpd696BWljWw7io7Z-8" value="" style="line;strokeWidth=1;fillColor=none;align=left;verticalAlign=middle;spacingTop=-1;spacingLeft=3;spacingRight=3;rotatable=0;labelPosition=right;points=[];portConstraint=eastwest;strokeColor=inherit;" parent="jqKUpd696BWljWw7io7Z-6" vertex="1">
          <mxGeometry y="52" width="285" height="8" as="geometry" />
        </mxCell>
        <mxCell id="jqKUpd696BWljWw7io7Z-9" value="AddCommand(HouseService, House)&lt;br&gt;+ execute(): void" style="text;strokeColor=none;fillColor=none;align=left;verticalAlign=top;spacingLeft=4;spacingRight=4;overflow=hidden;rotatable=0;points=[[0,0.5],[1,0.5]];portConstraint=eastwest;whiteSpace=wrap;html=1;" parent="jqKUpd696BWljWw7io7Z-6" vertex="1">
          <mxGeometry y="60" width="285" height="50" as="geometry" />
        </mxCell>
        <mxCell id="jqKUpd696BWljWw7io7Z-10" value="&lt;p style=&quot;margin:0px;margin-top:4px;text-align:center;&quot;&gt;&lt;i&gt;&amp;lt;&amp;lt;abstract&amp;gt;&amp;gt;&lt;/i&gt;&lt;br&gt;&lt;b&gt;Command&lt;/b&gt;&lt;br&gt;&lt;/p&gt;&lt;hr size=&quot;1&quot;&gt;&lt;p style=&quot;margin:0px;margin-left:4px;&quot;&gt;- houseService: HouseService&lt;br&gt;- house: House&lt;br&gt;- landService: LandService&lt;br&gt;- land: Land&lt;br&gt;- id: int&lt;/p&gt;&lt;hr size=&quot;1&quot;&gt;&lt;p style=&quot;margin:0px;margin-left:4px;&quot;&gt;+ &lt;i&gt;execute()&lt;/i&gt;: void&lt;/p&gt;" style="verticalAlign=top;align=left;overflow=fill;fontSize=12;fontFamily=Helvetica;html=1;whiteSpace=wrap;" parent="1" vertex="1">
          <mxGeometry x="-800" y="590" width="260" height="154" as="geometry" />
        </mxCell>
        <mxCell id="jqKUpd696BWljWw7io7Z-11" value="" style="endArrow=block;endSize=16;endFill=0;html=1;rounded=0;exitX=0.947;exitY=0.977;exitDx=0;exitDy=0;entryX=0;entryY=0.25;entryDx=0;entryDy=0;exitPerimeter=0;" parent="1" source="jqKUpd696BWljWw7io7Z-9" target="jqKUpd696BWljWw7io7Z-10" edge="1">
          <mxGeometry x="-1" y="-496" width="160" relative="1" as="geometry">
            <mxPoint x="-1003.5" y="890" as="sourcePoint" />
            <mxPoint x="-1112.5" y="877" as="targetPoint" />
            <mxPoint x="402" y="310" as="offset" />
          </mxGeometry>
        </mxCell>
        <mxCell id="jqKUpd696BWljWw7io7Z-12" value="Extends" style="edgeLabel;html=1;align=center;verticalAlign=middle;resizable=0;points=[];" parent="jqKUpd696BWljWw7io7Z-11" vertex="1" connectable="0">
          <mxGeometry x="-0.0619" y="-2" relative="1" as="geometry">
            <mxPoint as="offset" />
          </mxGeometry>
        </mxCell>
        <mxCell id="jqKUpd696BWljWw7io7Z-13" value="DeleteCommand" style="swimlane;fontStyle=1;align=center;verticalAlign=top;childLayout=stackLayout;horizontal=1;startSize=26;horizontalStack=0;resizeParent=1;resizeParentMax=0;resizeLast=0;collapsible=1;marginBottom=0;whiteSpace=wrap;html=1;" parent="1" vertex="1">
          <mxGeometry x="-1270" y="440" width="285" height="110" as="geometry" />
        </mxCell>
        <mxCell id="jqKUpd696BWljWw7io7Z-14" value="-&amp;nbsp;" style="text;strokeColor=none;fillColor=none;align=left;verticalAlign=top;spacingLeft=4;spacingRight=4;overflow=hidden;rotatable=0;points=[[0,0.5],[1,0.5]];portConstraint=eastwest;whiteSpace=wrap;html=1;" parent="jqKUpd696BWljWw7io7Z-13" vertex="1">
          <mxGeometry y="26" width="285" height="26" as="geometry" />
        </mxCell>
        <mxCell id="jqKUpd696BWljWw7io7Z-15" value="" style="line;strokeWidth=1;fillColor=none;align=left;verticalAlign=middle;spacingTop=-1;spacingLeft=3;spacingRight=3;rotatable=0;labelPosition=right;points=[];portConstraint=eastwest;strokeColor=inherit;" parent="jqKUpd696BWljWw7io7Z-13" vertex="1">
          <mxGeometry y="52" width="285" height="8" as="geometry" />
        </mxCell>
        <mxCell id="jqKUpd696BWljWw7io7Z-16" value="DeleteCommand(HouseService, int)&lt;br&gt;+ execute(): void" style="text;strokeColor=none;fillColor=none;align=left;verticalAlign=top;spacingLeft=4;spacingRight=4;overflow=hidden;rotatable=0;points=[[0,0.5],[1,0.5]];portConstraint=eastwest;whiteSpace=wrap;html=1;" parent="jqKUpd696BWljWw7io7Z-13" vertex="1">
          <mxGeometry y="60" width="285" height="50" as="geometry" />
        </mxCell>
        <mxCell id="jqKUpd696BWljWw7io7Z-17" value="FindByIDCommand" style="swimlane;fontStyle=1;align=center;verticalAlign=top;childLayout=stackLayout;horizontal=1;startSize=26;horizontalStack=0;resizeParent=1;resizeParentMax=0;resizeLast=0;collapsible=1;marginBottom=0;whiteSpace=wrap;html=1;" parent="1" vertex="1">
          <mxGeometry x="-1445" y="690" width="285" height="110" as="geometry" />
        </mxCell>
        <mxCell id="jqKUpd696BWljWw7io7Z-18" value="-&amp;nbsp;" style="text;strokeColor=none;fillColor=none;align=left;verticalAlign=top;spacingLeft=4;spacingRight=4;overflow=hidden;rotatable=0;points=[[0,0.5],[1,0.5]];portConstraint=eastwest;whiteSpace=wrap;html=1;" parent="jqKUpd696BWljWw7io7Z-17" vertex="1">
          <mxGeometry y="26" width="285" height="26" as="geometry" />
        </mxCell>
        <mxCell id="jqKUpd696BWljWw7io7Z-19" value="" style="line;strokeWidth=1;fillColor=none;align=left;verticalAlign=middle;spacingTop=-1;spacingLeft=3;spacingRight=3;rotatable=0;labelPosition=right;points=[];portConstraint=eastwest;strokeColor=inherit;" parent="jqKUpd696BWljWw7io7Z-17" vertex="1">
          <mxGeometry y="52" width="285" height="8" as="geometry" />
        </mxCell>
        <mxCell id="jqKUpd696BWljWw7io7Z-20" value="FindByIDCommand(HouseService, int)&lt;br&gt;+ execute(): void" style="text;strokeColor=none;fillColor=none;align=left;verticalAlign=top;spacingLeft=4;spacingRight=4;overflow=hidden;rotatable=0;points=[[0,0.5],[1,0.5]];portConstraint=eastwest;whiteSpace=wrap;html=1;" parent="jqKUpd696BWljWw7io7Z-17" vertex="1">
          <mxGeometry y="60" width="285" height="50" as="geometry" />
        </mxCell>
        <mxCell id="jqKUpd696BWljWw7io7Z-21" value="" style="endArrow=block;endSize=16;endFill=0;html=1;rounded=0;entryX=0;entryY=0.5;entryDx=0;entryDy=0;" parent="1" source="jqKUpd696BWljWw7io7Z-13" target="jqKUpd696BWljWw7io7Z-10" edge="1">
          <mxGeometry x="-1" y="-496" width="160" relative="1" as="geometry">
            <mxPoint x="-1085.5" y="907" as="sourcePoint" />
            <mxPoint x="-511" y="708" as="targetPoint" />
            <mxPoint x="402" y="310" as="offset" />
          </mxGeometry>
        </mxCell>
        <mxCell id="jqKUpd696BWljWw7io7Z-22" value="Extends" style="edgeLabel;html=1;align=center;verticalAlign=middle;resizable=0;points=[];" parent="jqKUpd696BWljWw7io7Z-21" vertex="1" connectable="0">
          <mxGeometry x="-0.0619" y="-2" relative="1" as="geometry">
            <mxPoint as="offset" />
          </mxGeometry>
        </mxCell>
        <mxCell id="jqKUpd696BWljWw7io7Z-23" value="" style="endArrow=block;endSize=16;endFill=0;html=1;rounded=0;exitX=0.997;exitY=0.145;exitDx=0;exitDy=0;entryX=-0.005;entryY=0.837;entryDx=0;entryDy=0;exitPerimeter=0;entryPerimeter=0;" parent="1" source="jqKUpd696BWljWw7io7Z-17" target="jqKUpd696BWljWw7io7Z-10" edge="1">
          <mxGeometry x="-1" y="-496" width="160" relative="1" as="geometry">
            <mxPoint x="-1082.5" y="1013" as="sourcePoint" />
            <mxPoint x="-1158.5" y="1012" as="targetPoint" />
            <mxPoint x="402" y="310" as="offset" />
          </mxGeometry>
        </mxCell>
        <mxCell id="jqKUpd696BWljWw7io7Z-24" value="Extends" style="edgeLabel;html=1;align=center;verticalAlign=middle;resizable=0;points=[];" parent="jqKUpd696BWljWw7io7Z-23" vertex="1" connectable="0">
          <mxGeometry x="-0.0619" y="-2" relative="1" as="geometry">
            <mxPoint as="offset" />
          </mxGeometry>
        </mxCell>
        <mxCell id="jqKUpd696BWljWw7io7Z-29" value="UpdateCommand" style="swimlane;fontStyle=1;align=center;verticalAlign=top;childLayout=stackLayout;horizontal=1;startSize=26;horizontalStack=0;resizeParent=1;resizeParentMax=0;resizeLast=0;collapsible=1;marginBottom=0;whiteSpace=wrap;html=1;" parent="1" vertex="1">
          <mxGeometry x="-1445" y="560" width="285" height="110" as="geometry" />
        </mxCell>
        <mxCell id="jqKUpd696BWljWw7io7Z-30" value="-&amp;nbsp;" style="text;strokeColor=none;fillColor=none;align=left;verticalAlign=top;spacingLeft=4;spacingRight=4;overflow=hidden;rotatable=0;points=[[0,0.5],[1,0.5]];portConstraint=eastwest;whiteSpace=wrap;html=1;" parent="jqKUpd696BWljWw7io7Z-29" vertex="1">
          <mxGeometry y="26" width="285" height="26" as="geometry" />
        </mxCell>
        <mxCell id="jqKUpd696BWljWw7io7Z-31" value="" style="line;strokeWidth=1;fillColor=none;align=left;verticalAlign=middle;spacingTop=-1;spacingLeft=3;spacingRight=3;rotatable=0;labelPosition=right;points=[];portConstraint=eastwest;strokeColor=inherit;" parent="jqKUpd696BWljWw7io7Z-29" vertex="1">
          <mxGeometry y="52" width="285" height="8" as="geometry" />
        </mxCell>
        <mxCell id="jqKUpd696BWljWw7io7Z-32" value="UpdateCommand(HouseService, House)&lt;br&gt;+ execute(): void" style="text;strokeColor=none;fillColor=none;align=left;verticalAlign=top;spacingLeft=4;spacingRight=4;overflow=hidden;rotatable=0;points=[[0,0.5],[1,0.5]];portConstraint=eastwest;whiteSpace=wrap;html=1;" parent="jqKUpd696BWljWw7io7Z-29" vertex="1">
          <mxGeometry y="60" width="285" height="50" as="geometry" />
        </mxCell>
        <mxCell id="jqKUpd696BWljWw7io7Z-33" value="" style="endArrow=block;endSize=16;endFill=0;html=1;rounded=0;exitX=0.997;exitY=0.145;exitDx=0;exitDy=0;entryX=0;entryY=0.75;entryDx=0;entryDy=0;exitPerimeter=0;" parent="1" source="jqKUpd696BWljWw7io7Z-29" target="jqKUpd696BWljWw7io7Z-10" edge="1">
          <mxGeometry x="-1" y="-496" width="160" relative="1" as="geometry">
            <mxPoint x="-1082.5" y="883" as="sourcePoint" />
            <mxPoint x="-770" y="650" as="targetPoint" />
            <mxPoint x="402" y="310" as="offset" />
          </mxGeometry>
        </mxCell>
        <mxCell id="jqKUpd696BWljWw7io7Z-34" value="Extends" style="edgeLabel;html=1;align=center;verticalAlign=middle;resizable=0;points=[];" parent="jqKUpd696BWljWw7io7Z-33" vertex="1" connectable="0">
          <mxGeometry x="-0.0619" y="-2" relative="1" as="geometry">
            <mxPoint as="offset" />
          </mxGeometry>
        </mxCell>
        <mxCell id="jqKUpd696BWljWw7io7Z-36" value="CommandProcessor&lt;br&gt;" style="swimlane;fontStyle=1;align=center;verticalAlign=top;childLayout=stackLayout;horizontal=1;startSize=26;horizontalStack=0;resizeParent=1;resizeParentMax=0;resizeLast=0;collapsible=1;marginBottom=0;whiteSpace=wrap;html=1;" parent="1" vertex="1">
          <mxGeometry x="-472.5" y="590" width="285" height="130" as="geometry" />
        </mxCell>
        <mxCell id="jqKUpd696BWljWw7io7Z-37" value="- commandProcessor: CommandProcessor" style="text;strokeColor=none;fillColor=none;align=left;verticalAlign=top;spacingLeft=4;spacingRight=4;overflow=hidden;rotatable=0;points=[[0,0.5],[1,0.5]];portConstraint=eastwest;whiteSpace=wrap;html=1;" parent="jqKUpd696BWljWw7io7Z-36" vertex="1">
          <mxGeometry y="26" width="285" height="26" as="geometry" />
        </mxCell>
        <mxCell id="jqKUpd696BWljWw7io7Z-38" value="" style="line;strokeWidth=1;fillColor=none;align=left;verticalAlign=middle;spacingTop=-1;spacingLeft=3;spacingRight=3;rotatable=0;labelPosition=right;points=[];portConstraint=eastwest;strokeColor=inherit;" parent="jqKUpd696BWljWw7io7Z-36" vertex="1">
          <mxGeometry y="52" width="285" height="8" as="geometry" />
        </mxCell>
        <mxCell id="jqKUpd696BWljWw7io7Z-39" value="CommandProcessor()&lt;br&gt;+ makeCommandProcessor(): CommandProcessor&lt;br&gt;+ execute(Command): void" style="text;strokeColor=none;fillColor=none;align=left;verticalAlign=top;spacingLeft=4;spacingRight=4;overflow=hidden;rotatable=0;points=[[0,0.5],[1,0.5]];portConstraint=eastwest;whiteSpace=wrap;html=1;" parent="jqKUpd696BWljWw7io7Z-36" vertex="1">
          <mxGeometry y="60" width="285" height="70" as="geometry" />
        </mxCell>
        <mxCell id="jqKUpd696BWljWw7io7Z-40" value="Use" style="endArrow=open;endSize=12;dashed=1;html=1;rounded=0;exitX=-0.002;exitY=0.966;exitDx=0;exitDy=0;exitPerimeter=0;" parent="1" source="jqKUpd696BWljWw7io7Z-37" target="jqKUpd696BWljWw7io7Z-10" edge="1">
          <mxGeometry width="160" relative="1" as="geometry">
            <mxPoint x="-260" y="680" as="sourcePoint" />
            <mxPoint x="-100" y="680" as="targetPoint" />
          </mxGeometry>
        </mxCell>
        <mxCell id="jqKUpd696BWljWw7io7Z-41" value="" style="endArrow=open;endFill=1;endSize=12;html=1;rounded=0;exitX=0.009;exitY=0.196;exitDx=0;exitDy=0;exitPerimeter=0;entryX=1;entryY=0.5;entryDx=0;entryDy=0;" parent="1" source="8F1XyEU1k7PKuXgPBpiQ-10" target="jqKUpd696BWljWw7io7Z-37" edge="1">
          <mxGeometry width="160" relative="1" as="geometry">
            <mxPoint x="-380" y="890" as="sourcePoint" />
            <mxPoint x="-220" y="890" as="targetPoint" />
          </mxGeometry>
        </mxCell>
        <mxCell id="jqKUpd696BWljWw7io7Z-42" value="&lt;p style=&quot;margin:0px;margin-top:4px;text-align:center;&quot;&gt;&lt;i&gt;&amp;lt;&amp;lt;Interface&amp;gt;&amp;gt;&lt;/i&gt;&lt;br&gt;&lt;b&gt;Subcriber&lt;/b&gt;&lt;/p&gt;&lt;hr size=&quot;1&quot; style=&quot;border-style:solid;&quot;&gt;&lt;p style=&quot;margin:0px;margin-left:4px;&quot;&gt;-&amp;nbsp;&lt;/p&gt;&lt;hr size=&quot;1&quot; style=&quot;border-style:solid;&quot;&gt;&lt;p style=&quot;margin:0px;margin-left:4px;&quot;&gt;+ update(): void&lt;/p&gt;" style="verticalAlign=top;align=left;overflow=fill;html=1;whiteSpace=wrap;" parent="1" vertex="1">
          <mxGeometry x="-580" y="920" width="170" height="101.24" as="geometry" />
        </mxCell>
        <mxCell id="jqKUpd696BWljWw7io7Z-43" value="" style="endArrow=block;dashed=1;endFill=0;endSize=12;html=1;rounded=0;entryX=0.708;entryY=-0.025;entryDx=0;entryDy=0;entryPerimeter=0;exitX=0;exitY=0.978;exitDx=0;exitDy=0;exitPerimeter=0;" parent="1" source="8F1XyEU1k7PKuXgPBpiQ-10" target="jqKUpd696BWljWw7io7Z-42" edge="1">
          <mxGeometry width="160" relative="1" as="geometry">
            <mxPoint x="-570" y="880" as="sourcePoint" />
            <mxPoint x="-670" y="937.5" as="targetPoint" />
          </mxGeometry>
        </mxCell>
        <mxCell id="jqKUpd696BWljWw7io7Z-44" value="&lt;p style=&quot;margin:0px;margin-top:4px;text-align:center;&quot;&gt;&lt;b&gt;Publisher&lt;/b&gt;&lt;/p&gt;&lt;hr size=&quot;1&quot; style=&quot;border-style:solid;&quot;&gt;&lt;p style=&quot;margin:0px;margin-left:4px;&quot;&gt;- subcribers: List&amp;lt;Subcriber&amp;gt;&lt;/p&gt;&lt;hr size=&quot;1&quot; style=&quot;border-style:solid;&quot;&gt;&lt;p style=&quot;margin:0px;margin-left:4px;&quot;&gt;+ subcribe(Subcriber): void&lt;br&gt;+ unsubcribe(Subcriber): void&lt;/p&gt;&lt;p style=&quot;margin:0px;margin-left:4px;&quot;&gt;+ notifySubcribers(): void&lt;/p&gt;" style="verticalAlign=top;align=left;overflow=fill;html=1;whiteSpace=wrap;" parent="1" vertex="1">
          <mxGeometry x="-590" y="1140" width="170" height="120" as="geometry" />
        </mxCell>
        <mxCell id="jqKUpd696BWljWw7io7Z-45" value="Extends" style="endArrow=block;endSize=16;endFill=0;html=1;rounded=0;exitX=0.001;exitY=0.086;exitDx=0;exitDy=0;exitPerimeter=0;entryX=1;entryY=0.75;entryDx=0;entryDy=0;" parent="1" source="8F1XyEU1k7PKuXgPBpiQ-49" target="jqKUpd696BWljWw7io7Z-44" edge="1">
          <mxGeometry width="160" relative="1" as="geometry">
            <mxPoint x="-281" y="1140" as="sourcePoint" />
            <mxPoint x="-220" y="1332" as="targetPoint" />
          </mxGeometry>
        </mxCell>
        <mxCell id="jqKUpd696BWljWw7io7Z-46" value="" style="endArrow=diamondThin;endFill=0;endSize=24;html=1;rounded=0;entryX=0.5;entryY=0;entryDx=0;entryDy=0;exitX=0.5;exitY=1;exitDx=0;exitDy=0;" parent="1" source="jqKUpd696BWljWw7io7Z-42" target="jqKUpd696BWljWw7io7Z-44" edge="1">
          <mxGeometry width="160" relative="1" as="geometry">
            <mxPoint x="-740" y="1097" as="sourcePoint" />
            <mxPoint x="-570" y="1117" as="targetPoint" />
          </mxGeometry>
        </mxCell>
        <mxCell id="jqKUpd696BWljWw7io7Z-48" value="" style="endArrow=open;endFill=1;endSize=12;html=1;rounded=0;entryX=0;entryY=0;entryDx=0;entryDy=0;" parent="1" source="jqKUpd696BWljWw7io7Z-10" target="8F1XyEU1k7PKuXgPBpiQ-37" edge="1">
          <mxGeometry width="160" relative="1" as="geometry">
            <mxPoint x="-560" y="830" as="sourcePoint" />
            <mxPoint x="-400" y="830" as="targetPoint" />
          </mxGeometry>
        </mxCell>
        <mxCell id="jqKUpd696BWljWw7io7Z-51" value="" style="endArrow=block;dashed=1;endFill=0;endSize=12;html=1;rounded=0;entryX=0.25;entryY=1;entryDx=0;entryDy=0;exitX=0.786;exitY=-0.009;exitDx=0;exitDy=0;exitPerimeter=0;" parent="1" source="DMT-dN4wNDoVank6GRrY-1" target="8F1XyEU1k7PKuXgPBpiQ-6" edge="1">
          <mxGeometry width="160" relative="1" as="geometry">
            <mxPoint x="560" y="226" as="sourcePoint" />
            <mxPoint x="700" y="150" as="targetPoint" />
          </mxGeometry>
        </mxCell>
        <mxCell id="jqKUpd696BWljWw7io7Z-52" value="" style="endArrow=block;dashed=1;endFill=0;endSize=12;html=1;rounded=0;entryX=0.5;entryY=1;entryDx=0;entryDy=0;exitX=0.004;exitY=0.046;exitDx=0;exitDy=0;exitPerimeter=0;" parent="1" source="8F1XyEU1k7PKuXgPBpiQ-9" target="jqKUpd696BWljWw7io7Z-53" edge="1">
          <mxGeometry width="160" relative="1" as="geometry">
            <mxPoint x="-210" y="600" as="sourcePoint" />
            <mxPoint x="-260" y="360" as="targetPoint" />
          </mxGeometry>
        </mxCell>
        <mxCell id="jqKUpd696BWljWw7io7Z-53" value="&lt;p style=&quot;margin:0px;margin-top:4px;text-align:center;&quot;&gt;&lt;b&gt;java.awt.event&lt;br&gt;&lt;/b&gt;&lt;b&gt;ListSelectionListener&lt;/b&gt;&lt;/p&gt;&lt;hr size=&quot;1&quot; style=&quot;border-style:solid;&quot;&gt;&lt;p style=&quot;margin:0px;margin-left:4px;&quot;&gt;-&amp;nbsp;&lt;/p&gt;&lt;hr size=&quot;1&quot; style=&quot;border-style:solid;&quot;&gt;&lt;p style=&quot;margin:0px;margin-left:4px;&quot;&gt;+&amp;nbsp;&lt;/p&gt;" style="verticalAlign=top;align=left;overflow=fill;html=1;whiteSpace=wrap;" parent="1" vertex="1">
          <mxGeometry x="-410" y="375" width="160" height="110" as="geometry" />
        </mxCell>
        <mxCell id="jqKUpd696BWljWw7io7Z-54" value="&lt;p style=&quot;margin:0px;margin-top:4px;text-align:center;&quot;&gt;&lt;i&gt;&amp;lt;&amp;lt;Interface&amp;gt;&amp;gt;&lt;/i&gt;&lt;br&gt;&lt;b&gt;Subcriber&lt;/b&gt;&lt;/p&gt;&lt;hr size=&quot;1&quot; style=&quot;border-style:solid;&quot;&gt;&lt;p style=&quot;margin:0px;margin-left:4px;&quot;&gt;-&amp;nbsp;&lt;/p&gt;&lt;hr size=&quot;1&quot; style=&quot;border-style:solid;&quot;&gt;&lt;p style=&quot;margin:0px;margin-left:4px;&quot;&gt;+ update(): void&lt;/p&gt;" style="verticalAlign=top;align=left;overflow=fill;html=1;whiteSpace=wrap;" parent="1" vertex="1">
          <mxGeometry x="980" y="950" width="170" height="101.24" as="geometry" />
        </mxCell>
        <mxCell id="jqKUpd696BWljWw7io7Z-55" value="" style="endArrow=block;dashed=1;endFill=0;endSize=12;html=1;rounded=0;entryX=0.708;entryY=-0.025;entryDx=0;entryDy=0;entryPerimeter=0;exitX=1.004;exitY=0.142;exitDx=0;exitDy=0;exitPerimeter=0;" parent="1" source="8F1XyEU1k7PKuXgPBpiQ-28" target="jqKUpd696BWljWw7io7Z-54" edge="1">
          <mxGeometry width="160" relative="1" as="geometry">
            <mxPoint x="1340" y="650" as="sourcePoint" />
            <mxPoint x="790" y="880.5" as="targetPoint" />
          </mxGeometry>
        </mxCell>
        <mxCell id="jqKUpd696BWljWw7io7Z-56" value="&lt;p style=&quot;margin:0px;margin-top:4px;text-align:center;&quot;&gt;&lt;b&gt;Publisher&lt;/b&gt;&lt;/p&gt;&lt;hr size=&quot;1&quot; style=&quot;border-style:solid;&quot;&gt;&lt;p style=&quot;margin:0px;margin-left:4px;&quot;&gt;- subcribers: List&amp;lt;Subcriber&amp;gt;&lt;/p&gt;&lt;hr size=&quot;1&quot; style=&quot;border-style:solid;&quot;&gt;&lt;p style=&quot;margin:0px;margin-left:4px;&quot;&gt;+ subcribe(Subcriber): void&lt;br&gt;+ unsubcribe(Subcriber): void&lt;/p&gt;&lt;p style=&quot;margin:0px;margin-left:4px;&quot;&gt;+ notifySubcribers(): void&lt;/p&gt;" style="verticalAlign=top;align=left;overflow=fill;html=1;whiteSpace=wrap;" parent="1" vertex="1">
          <mxGeometry x="970" y="1150" width="170" height="120" as="geometry" />
        </mxCell>
        <mxCell id="jqKUpd696BWljWw7io7Z-57" value="Extends" style="endArrow=block;endSize=16;endFill=0;html=1;rounded=0;exitX=1.023;exitY=0.12;exitDx=0;exitDy=0;exitPerimeter=0;entryX=0;entryY=0.75;entryDx=0;entryDy=0;" parent="1" source="8F1XyEU1k7PKuXgPBpiQ-67" target="jqKUpd696BWljWw7io7Z-56" edge="1">
          <mxGeometry width="160" relative="1" as="geometry">
            <mxPoint x="1440" y="1182" as="sourcePoint" />
            <mxPoint x="1240" y="1275" as="targetPoint" />
          </mxGeometry>
        </mxCell>
        <mxCell id="jqKUpd696BWljWw7io7Z-58" value="" style="endArrow=diamondThin;endFill=0;endSize=24;html=1;rounded=0;entryX=0.5;entryY=0;entryDx=0;entryDy=0;exitX=0.5;exitY=1;exitDx=0;exitDy=0;" parent="1" source="jqKUpd696BWljWw7io7Z-54" target="jqKUpd696BWljWw7io7Z-56" edge="1">
          <mxGeometry width="160" relative="1" as="geometry">
            <mxPoint x="720" y="1097" as="sourcePoint" />
            <mxPoint x="890" y="1117" as="targetPoint" />
          </mxGeometry>
        </mxCell>
        <mxCell id="jqKUpd696BWljWw7io7Z-60" value="" style="endArrow=block;dashed=1;endFill=0;endSize=12;html=1;rounded=0;entryX=0.5;entryY=1;entryDx=0;entryDy=0;exitX=0.5;exitY=0;exitDx=0;exitDy=0;" parent="1" source="8F1XyEU1k7PKuXgPBpiQ-25" target="jqKUpd696BWljWw7io7Z-61" edge="1">
          <mxGeometry width="160" relative="1" as="geometry">
            <mxPoint x="900" y="510" as="sourcePoint" />
            <mxPoint x="759" y="288" as="targetPoint" />
          </mxGeometry>
        </mxCell>
        <mxCell id="jqKUpd696BWljWw7io7Z-61" value="&lt;p style=&quot;margin:0px;margin-top:4px;text-align:center;&quot;&gt;&lt;b&gt;java.awt.event&lt;br&gt;&lt;/b&gt;&lt;b&gt;ListSelectionListener&lt;/b&gt;&lt;/p&gt;&lt;hr size=&quot;1&quot; style=&quot;border-style:solid;&quot;&gt;&lt;p style=&quot;margin:0px;margin-left:4px;&quot;&gt;-&amp;nbsp;&lt;/p&gt;&lt;hr size=&quot;1&quot; style=&quot;border-style:solid;&quot;&gt;&lt;p style=&quot;margin:0px;margin-left:4px;&quot;&gt;+&amp;nbsp;&lt;/p&gt;" style="verticalAlign=top;align=left;overflow=fill;html=1;whiteSpace=wrap;" parent="1" vertex="1">
          <mxGeometry x="645" y="370" width="160" height="110" as="geometry" />
        </mxCell>
        <mxCell id="jqKUpd696BWljWw7io7Z-62" value="AddCommand" style="swimlane;fontStyle=1;align=center;verticalAlign=top;childLayout=stackLayout;horizontal=1;startSize=26;horizontalStack=0;resizeParent=1;resizeParentMax=0;resizeLast=0;collapsible=1;marginBottom=0;whiteSpace=wrap;html=1;" parent="1" vertex="1">
          <mxGeometry x="1490" y="290" width="285" height="110" as="geometry" />
        </mxCell>
        <mxCell id="jqKUpd696BWljWw7io7Z-63" value="-&amp;nbsp;" style="text;strokeColor=none;fillColor=none;align=left;verticalAlign=top;spacingLeft=4;spacingRight=4;overflow=hidden;rotatable=0;points=[[0,0.5],[1,0.5]];portConstraint=eastwest;whiteSpace=wrap;html=1;" parent="jqKUpd696BWljWw7io7Z-62" vertex="1">
          <mxGeometry y="26" width="285" height="26" as="geometry" />
        </mxCell>
        <mxCell id="jqKUpd696BWljWw7io7Z-64" value="" style="line;strokeWidth=1;fillColor=none;align=left;verticalAlign=middle;spacingTop=-1;spacingLeft=3;spacingRight=3;rotatable=0;labelPosition=right;points=[];portConstraint=eastwest;strokeColor=inherit;" parent="jqKUpd696BWljWw7io7Z-62" vertex="1">
          <mxGeometry y="52" width="285" height="8" as="geometry" />
        </mxCell>
        <mxCell id="jqKUpd696BWljWw7io7Z-65" value="AddCommand(HouseService, House)&lt;br&gt;+ execute(): void" style="text;strokeColor=none;fillColor=none;align=left;verticalAlign=top;spacingLeft=4;spacingRight=4;overflow=hidden;rotatable=0;points=[[0,0.5],[1,0.5]];portConstraint=eastwest;whiteSpace=wrap;html=1;" parent="jqKUpd696BWljWw7io7Z-62" vertex="1">
          <mxGeometry y="60" width="285" height="50" as="geometry" />
        </mxCell>
        <mxCell id="jqKUpd696BWljWw7io7Z-66" value="&lt;p style=&quot;margin:0px;margin-top:4px;text-align:center;&quot;&gt;&lt;i&gt;&amp;lt;&amp;lt;abstract&amp;gt;&amp;gt;&lt;/i&gt;&lt;br&gt;&lt;b&gt;Command&lt;/b&gt;&lt;br&gt;&lt;/p&gt;&lt;hr size=&quot;1&quot;&gt;&lt;p style=&quot;margin:0px;margin-left:4px;&quot;&gt;- houseService: HouseService&lt;br&gt;- house: House&lt;br&gt;- landService: LandService&lt;br&gt;- land: Land&lt;br&gt;- id: int&lt;/p&gt;&lt;hr size=&quot;1&quot;&gt;&lt;p style=&quot;margin:0px;margin-left:4px;&quot;&gt;+ &lt;i&gt;execute()&lt;/i&gt;: void&lt;/p&gt;" style="verticalAlign=top;align=left;overflow=fill;fontSize=12;fontFamily=Helvetica;html=1;whiteSpace=wrap;" parent="1" vertex="1">
          <mxGeometry x="1190" y="744" width="260" height="154" as="geometry" />
        </mxCell>
        <mxCell id="jqKUpd696BWljWw7io7Z-67" value="" style="endArrow=block;endSize=16;endFill=0;html=1;rounded=0;exitX=-0.011;exitY=1.183;exitDx=0;exitDy=0;entryX=0.857;entryY=-0.015;entryDx=0;entryDy=0;exitPerimeter=0;entryPerimeter=0;" parent="1" source="jqKUpd696BWljWw7io7Z-63" target="jqKUpd696BWljWw7io7Z-66" edge="1">
          <mxGeometry x="-1" y="-496" width="160" relative="1" as="geometry">
            <mxPoint x="1686.5" y="910" as="sourcePoint" />
            <mxPoint x="1577.5" y="897" as="targetPoint" />
            <mxPoint x="402" y="310" as="offset" />
          </mxGeometry>
        </mxCell>
        <mxCell id="jqKUpd696BWljWw7io7Z-68" value="Extends" style="edgeLabel;html=1;align=center;verticalAlign=middle;resizable=0;points=[];" parent="jqKUpd696BWljWw7io7Z-67" vertex="1" connectable="0">
          <mxGeometry x="-0.0619" y="-2" relative="1" as="geometry">
            <mxPoint as="offset" />
          </mxGeometry>
        </mxCell>
        <mxCell id="jqKUpd696BWljWw7io7Z-69" value="DeleteCommand" style="swimlane;fontStyle=1;align=center;verticalAlign=top;childLayout=stackLayout;horizontal=1;startSize=26;horizontalStack=0;resizeParent=1;resizeParentMax=0;resizeLast=0;collapsible=1;marginBottom=0;whiteSpace=wrap;html=1;" parent="1" vertex="1">
          <mxGeometry x="1560" y="420" width="285" height="110" as="geometry" />
        </mxCell>
        <mxCell id="jqKUpd696BWljWw7io7Z-70" value="-&amp;nbsp;" style="text;strokeColor=none;fillColor=none;align=left;verticalAlign=top;spacingLeft=4;spacingRight=4;overflow=hidden;rotatable=0;points=[[0,0.5],[1,0.5]];portConstraint=eastwest;whiteSpace=wrap;html=1;" parent="jqKUpd696BWljWw7io7Z-69" vertex="1">
          <mxGeometry y="26" width="285" height="26" as="geometry" />
        </mxCell>
        <mxCell id="jqKUpd696BWljWw7io7Z-71" value="" style="line;strokeWidth=1;fillColor=none;align=left;verticalAlign=middle;spacingTop=-1;spacingLeft=3;spacingRight=3;rotatable=0;labelPosition=right;points=[];portConstraint=eastwest;strokeColor=inherit;" parent="jqKUpd696BWljWw7io7Z-69" vertex="1">
          <mxGeometry y="52" width="285" height="8" as="geometry" />
        </mxCell>
        <mxCell id="jqKUpd696BWljWw7io7Z-72" value="DeleteCommand(HouseService, int)&lt;br&gt;+ execute(): void" style="text;strokeColor=none;fillColor=none;align=left;verticalAlign=top;spacingLeft=4;spacingRight=4;overflow=hidden;rotatable=0;points=[[0,0.5],[1,0.5]];portConstraint=eastwest;whiteSpace=wrap;html=1;" parent="jqKUpd696BWljWw7io7Z-69" vertex="1">
          <mxGeometry y="60" width="285" height="50" as="geometry" />
        </mxCell>
        <mxCell id="jqKUpd696BWljWw7io7Z-73" value="FindByIDCommand" style="swimlane;fontStyle=1;align=center;verticalAlign=top;childLayout=stackLayout;horizontal=1;startSize=26;horizontalStack=0;resizeParent=1;resizeParentMax=0;resizeLast=0;collapsible=1;marginBottom=0;whiteSpace=wrap;html=1;" parent="1" vertex="1">
          <mxGeometry x="1700" y="670" width="285" height="110" as="geometry" />
        </mxCell>
        <mxCell id="jqKUpd696BWljWw7io7Z-74" value="-&amp;nbsp;" style="text;strokeColor=none;fillColor=none;align=left;verticalAlign=top;spacingLeft=4;spacingRight=4;overflow=hidden;rotatable=0;points=[[0,0.5],[1,0.5]];portConstraint=eastwest;whiteSpace=wrap;html=1;" parent="jqKUpd696BWljWw7io7Z-73" vertex="1">
          <mxGeometry y="26" width="285" height="26" as="geometry" />
        </mxCell>
        <mxCell id="jqKUpd696BWljWw7io7Z-75" value="" style="line;strokeWidth=1;fillColor=none;align=left;verticalAlign=middle;spacingTop=-1;spacingLeft=3;spacingRight=3;rotatable=0;labelPosition=right;points=[];portConstraint=eastwest;strokeColor=inherit;" parent="jqKUpd696BWljWw7io7Z-73" vertex="1">
          <mxGeometry y="52" width="285" height="8" as="geometry" />
        </mxCell>
        <mxCell id="jqKUpd696BWljWw7io7Z-76" value="FindByIDCommand(HouseService, int)&lt;br&gt;+ execute(): void" style="text;strokeColor=none;fillColor=none;align=left;verticalAlign=top;spacingLeft=4;spacingRight=4;overflow=hidden;rotatable=0;points=[[0,0.5],[1,0.5]];portConstraint=eastwest;whiteSpace=wrap;html=1;" parent="jqKUpd696BWljWw7io7Z-73" vertex="1">
          <mxGeometry y="60" width="285" height="50" as="geometry" />
        </mxCell>
        <mxCell id="jqKUpd696BWljWw7io7Z-77" value="" style="endArrow=block;endSize=16;endFill=0;html=1;rounded=0;entryX=1.011;entryY=0.078;entryDx=0;entryDy=0;entryPerimeter=0;" parent="1" source="jqKUpd696BWljWw7io7Z-69" target="jqKUpd696BWljWw7io7Z-66" edge="1">
          <mxGeometry x="-1" y="-496" width="160" relative="1" as="geometry">
            <mxPoint x="1604.5" y="927" as="sourcePoint" />
            <mxPoint x="2179" y="728" as="targetPoint" />
            <mxPoint x="402" y="310" as="offset" />
          </mxGeometry>
        </mxCell>
        <mxCell id="jqKUpd696BWljWw7io7Z-78" value="Extends" style="edgeLabel;html=1;align=center;verticalAlign=middle;resizable=0;points=[];" parent="jqKUpd696BWljWw7io7Z-77" vertex="1" connectable="0">
          <mxGeometry x="-0.0619" y="-2" relative="1" as="geometry">
            <mxPoint as="offset" />
          </mxGeometry>
        </mxCell>
        <mxCell id="jqKUpd696BWljWw7io7Z-79" value="" style="endArrow=block;endSize=16;endFill=0;html=1;rounded=0;exitX=0;exitY=0.289;exitDx=0;exitDy=0;entryX=1;entryY=0.662;entryDx=0;entryDy=0;exitPerimeter=0;entryPerimeter=0;" parent="1" source="jqKUpd696BWljWw7io7Z-76" target="jqKUpd696BWljWw7io7Z-66" edge="1">
          <mxGeometry x="-1" y="-496" width="160" relative="1" as="geometry">
            <mxPoint x="1607.5" y="1033" as="sourcePoint" />
            <mxPoint x="1531.5" y="1032" as="targetPoint" />
            <mxPoint x="402" y="310" as="offset" />
          </mxGeometry>
        </mxCell>
        <mxCell id="jqKUpd696BWljWw7io7Z-80" value="Extends" style="edgeLabel;html=1;align=center;verticalAlign=middle;resizable=0;points=[];" parent="jqKUpd696BWljWw7io7Z-79" vertex="1" connectable="0">
          <mxGeometry x="-0.0619" y="-2" relative="1" as="geometry">
            <mxPoint as="offset" />
          </mxGeometry>
        </mxCell>
        <mxCell id="jqKUpd696BWljWw7io7Z-81" value="UpdateCommand" style="swimlane;fontStyle=1;align=center;verticalAlign=top;childLayout=stackLayout;horizontal=1;startSize=26;horizontalStack=0;resizeParent=1;resizeParentMax=0;resizeLast=0;collapsible=1;marginBottom=0;whiteSpace=wrap;html=1;" parent="1" vertex="1">
          <mxGeometry x="1700" y="540" width="285" height="110" as="geometry" />
        </mxCell>
        <mxCell id="jqKUpd696BWljWw7io7Z-82" value="-&amp;nbsp;" style="text;strokeColor=none;fillColor=none;align=left;verticalAlign=top;spacingLeft=4;spacingRight=4;overflow=hidden;rotatable=0;points=[[0,0.5],[1,0.5]];portConstraint=eastwest;whiteSpace=wrap;html=1;" parent="jqKUpd696BWljWw7io7Z-81" vertex="1">
          <mxGeometry y="26" width="285" height="26" as="geometry" />
        </mxCell>
        <mxCell id="jqKUpd696BWljWw7io7Z-83" value="" style="line;strokeWidth=1;fillColor=none;align=left;verticalAlign=middle;spacingTop=-1;spacingLeft=3;spacingRight=3;rotatable=0;labelPosition=right;points=[];portConstraint=eastwest;strokeColor=inherit;" parent="jqKUpd696BWljWw7io7Z-81" vertex="1">
          <mxGeometry y="52" width="285" height="8" as="geometry" />
        </mxCell>
        <mxCell id="jqKUpd696BWljWw7io7Z-84" value="UpdateCommand(HouseService, House)&lt;br&gt;+ execute(): void" style="text;strokeColor=none;fillColor=none;align=left;verticalAlign=top;spacingLeft=4;spacingRight=4;overflow=hidden;rotatable=0;points=[[0,0.5],[1,0.5]];portConstraint=eastwest;whiteSpace=wrap;html=1;" parent="jqKUpd696BWljWw7io7Z-81" vertex="1">
          <mxGeometry y="60" width="285" height="50" as="geometry" />
        </mxCell>
        <mxCell id="jqKUpd696BWljWw7io7Z-85" value="" style="endArrow=block;endSize=16;endFill=0;html=1;rounded=0;entryX=1;entryY=0.365;entryDx=0;entryDy=0;exitX=0;exitY=0.5;exitDx=0;exitDy=0;entryPerimeter=0;" parent="1" source="jqKUpd696BWljWw7io7Z-82" target="jqKUpd696BWljWw7io7Z-66" edge="1">
          <mxGeometry x="-1" y="-496" width="160" relative="1" as="geometry">
            <mxPoint x="1607.5" y="903" as="sourcePoint" />
            <mxPoint x="1920" y="670" as="targetPoint" />
            <mxPoint x="402" y="310" as="offset" />
          </mxGeometry>
        </mxCell>
        <mxCell id="jqKUpd696BWljWw7io7Z-86" value="Extends" style="edgeLabel;html=1;align=center;verticalAlign=middle;resizable=0;points=[];" parent="jqKUpd696BWljWw7io7Z-85" vertex="1" connectable="0">
          <mxGeometry x="-0.0619" y="-2" relative="1" as="geometry">
            <mxPoint as="offset" />
          </mxGeometry>
        </mxCell>
        <mxCell id="jqKUpd696BWljWw7io7Z-87" value="Use" style="endArrow=open;endSize=12;dashed=1;html=1;rounded=0;exitX=1;exitY=0.5;exitDx=0;exitDy=0;" parent="1" source="jqKUpd696BWljWw7io7Z-90" target="jqKUpd696BWljWw7io7Z-66" edge="1">
          <mxGeometry width="160" relative="1" as="geometry">
            <mxPoint x="1120" y="730" as="sourcePoint" />
            <mxPoint x="2420" y="680" as="targetPoint" />
          </mxGeometry>
        </mxCell>
        <mxCell id="jqKUpd696BWljWw7io7Z-88" value="" style="endArrow=open;endFill=1;endSize=12;html=1;rounded=0;entryX=1.024;entryY=0.138;entryDx=0;entryDy=0;entryPerimeter=0;" parent="1" source="jqKUpd696BWljWw7io7Z-66" target="8F1XyEU1k7PKuXgPBpiQ-62" edge="1">
          <mxGeometry width="160" relative="1" as="geometry">
            <mxPoint x="1960" y="830" as="sourcePoint" />
            <mxPoint x="2350" y="940" as="targetPoint" />
          </mxGeometry>
        </mxCell>
        <mxCell id="jqKUpd696BWljWw7io7Z-89" value="CommandProcessor&lt;br&gt;" style="swimlane;fontStyle=1;align=center;verticalAlign=top;childLayout=stackLayout;horizontal=1;startSize=26;horizontalStack=0;resizeParent=1;resizeParentMax=0;resizeLast=0;collapsible=1;marginBottom=0;whiteSpace=wrap;html=1;" parent="1" vertex="1">
          <mxGeometry x="912.5" y="590" width="285" height="130" as="geometry" />
        </mxCell>
        <mxCell id="jqKUpd696BWljWw7io7Z-90" value="- commandProcessor: CommandProcessor" style="text;strokeColor=none;fillColor=none;align=left;verticalAlign=top;spacingLeft=4;spacingRight=4;overflow=hidden;rotatable=0;points=[[0,0.5],[1,0.5]];portConstraint=eastwest;whiteSpace=wrap;html=1;" parent="jqKUpd696BWljWw7io7Z-89" vertex="1">
          <mxGeometry y="26" width="285" height="26" as="geometry" />
        </mxCell>
        <mxCell id="jqKUpd696BWljWw7io7Z-91" value="" style="line;strokeWidth=1;fillColor=none;align=left;verticalAlign=middle;spacingTop=-1;spacingLeft=3;spacingRight=3;rotatable=0;labelPosition=right;points=[];portConstraint=eastwest;strokeColor=inherit;" parent="jqKUpd696BWljWw7io7Z-89" vertex="1">
          <mxGeometry y="52" width="285" height="8" as="geometry" />
        </mxCell>
        <mxCell id="jqKUpd696BWljWw7io7Z-92" value="CommandProcessor()&lt;br&gt;+ makeCommandProcessor(): CommandProcessor&lt;br&gt;+ execute(Command): void" style="text;strokeColor=none;fillColor=none;align=left;verticalAlign=top;spacingLeft=4;spacingRight=4;overflow=hidden;rotatable=0;points=[[0,0.5],[1,0.5]];portConstraint=eastwest;whiteSpace=wrap;html=1;" parent="jqKUpd696BWljWw7io7Z-89" vertex="1">
          <mxGeometry y="60" width="285" height="70" as="geometry" />
        </mxCell>
        <mxCell id="jqKUpd696BWljWw7io7Z-95" value="" style="endArrow=open;endFill=1;endSize=12;html=1;rounded=0;exitX=1.002;exitY=0.854;exitDx=0;exitDy=0;exitPerimeter=0;" parent="1" source="8F1XyEU1k7PKuXgPBpiQ-26" target="jqKUpd696BWljWw7io7Z-89" edge="1">
          <mxGeometry width="160" relative="1" as="geometry">
            <mxPoint x="660" y="873" as="sourcePoint" />
            <mxPoint x="720" y="951" as="targetPoint" />
          </mxGeometry>
        </mxCell>
        <mxCell id="jqKUpd696BWljWw7io7Z-102" value="" style="endArrow=diamondThin;endFill=1;endSize=24;html=1;rounded=0;exitX=0;exitY=0;exitDx=0;exitDy=0;entryX=0.647;entryY=0.997;entryDx=0;entryDy=0;entryPerimeter=0;" parent="1" source="jqKUpd696BWljWw7io7Z-1" target="8F1XyEU1k7PKuXgPBpiQ-56" edge="1">
          <mxGeometry width="160" relative="1" as="geometry">
            <mxPoint x="400" y="2030" as="sourcePoint" />
            <mxPoint x="503" y="1930" as="targetPoint" />
          </mxGeometry>
        </mxCell>
        <mxCell id="6rIiN9BHhn4Da8iqrhuP-1" value="House" style="swimlane;fontStyle=1;align=center;verticalAlign=top;childLayout=stackLayout;horizontal=1;startSize=26;horizontalStack=0;resizeParent=1;resizeParentMax=0;resizeLast=0;collapsible=1;marginBottom=0;whiteSpace=wrap;html=1;" vertex="1" parent="1">
          <mxGeometry x="60" y="1110" width="160" height="120" as="geometry" />
        </mxCell>
        <mxCell id="6rIiN9BHhn4Da8iqrhuP-2" value="- loaiNha: String&lt;br&gt;- diaChi: String" style="text;strokeColor=none;fillColor=none;align=left;verticalAlign=top;spacingLeft=4;spacingRight=4;overflow=hidden;rotatable=0;points=[[0,0.5],[1,0.5]];portConstraint=eastwest;whiteSpace=wrap;html=1;" vertex="1" parent="6rIiN9BHhn4Da8iqrhuP-1">
          <mxGeometry y="26" width="160" height="44" as="geometry" />
        </mxCell>
        <mxCell id="6rIiN9BHhn4Da8iqrhuP-3" value="" style="line;strokeWidth=1;fillColor=none;align=left;verticalAlign=middle;spacingTop=-1;spacingLeft=3;spacingRight=3;rotatable=0;labelPosition=right;points=[];portConstraint=eastwest;strokeColor=inherit;" vertex="1" parent="6rIiN9BHhn4Da8iqrhuP-1">
          <mxGeometry y="70" width="160" height="8" as="geometry" />
        </mxCell>
        <mxCell id="6rIiN9BHhn4Da8iqrhuP-4" value="+ getter/setter&lt;br&gt;+ getThanhTien: double" style="text;strokeColor=none;fillColor=none;align=left;verticalAlign=top;spacingLeft=4;spacingRight=4;overflow=hidden;rotatable=0;points=[[0,0.5],[1,0.5]];portConstraint=eastwest;whiteSpace=wrap;html=1;" vertex="1" parent="6rIiN9BHhn4Da8iqrhuP-1">
          <mxGeometry y="78" width="160" height="42" as="geometry" />
        </mxCell>
        <mxCell id="6rIiN9BHhn4Da8iqrhuP-6" value="&lt;p style=&quot;margin:0px;margin-top:4px;text-align:center;&quot;&gt;&lt;i&gt;&amp;lt;&amp;lt;abstract&amp;gt;&amp;gt;&lt;/i&gt;&lt;br&gt;&lt;b&gt;QuanLy&lt;/b&gt;&lt;/p&gt;&lt;hr size=&quot;1&quot;&gt;&lt;p style=&quot;margin:0px;margin-left:4px;&quot;&gt;- maGiaoDich: int&lt;/p&gt;&lt;p style=&quot;margin:0px;margin-left:4px;&quot;&gt;- ngayGiaoDich: String&lt;/p&gt;&lt;p style=&quot;margin:0px;margin-left:4px;&quot;&gt;- donGia: int&lt;/p&gt;&lt;p style=&quot;margin:0px;margin-left:4px;&quot;&gt;- dienTich: double&lt;/p&gt;&lt;hr size=&quot;1&quot;&gt;&lt;p style=&quot;margin:0px;margin-left:4px;&quot;&gt;+&amp;nbsp;&lt;/p&gt;" style="verticalAlign=top;align=left;overflow=fill;fontSize=12;fontFamily=Helvetica;html=1;whiteSpace=wrap;" vertex="1" parent="1">
          <mxGeometry x="200" y="890" width="190" height="140" as="geometry" />
        </mxCell>
        <mxCell id="6rIiN9BHhn4Da8iqrhuP-7" value="Extends" style="endArrow=block;endSize=16;endFill=0;html=1;rounded=0;entryX=0.25;entryY=1;entryDx=0;entryDy=0;" edge="1" parent="1" source="6rIiN9BHhn4Da8iqrhuP-1" target="6rIiN9BHhn4Da8iqrhuP-6">
          <mxGeometry width="160" relative="1" as="geometry">
            <mxPoint x="220" y="930" as="sourcePoint" />
            <mxPoint x="380" y="930" as="targetPoint" />
          </mxGeometry>
        </mxCell>
        <mxCell id="6rIiN9BHhn4Da8iqrhuP-8" value="Land" style="swimlane;fontStyle=1;align=center;verticalAlign=top;childLayout=stackLayout;horizontal=1;startSize=26;horizontalStack=0;resizeParent=1;resizeParentMax=0;resizeLast=0;collapsible=1;marginBottom=0;whiteSpace=wrap;html=1;" vertex="1" parent="1">
          <mxGeometry x="340" y="1110" width="160" height="110" as="geometry" />
        </mxCell>
        <mxCell id="6rIiN9BHhn4Da8iqrhuP-9" value="- loaiDat: String" style="text;strokeColor=none;fillColor=none;align=left;verticalAlign=top;spacingLeft=4;spacingRight=4;overflow=hidden;rotatable=0;points=[[0,0.5],[1,0.5]];portConstraint=eastwest;whiteSpace=wrap;html=1;" vertex="1" parent="6rIiN9BHhn4Da8iqrhuP-8">
          <mxGeometry y="26" width="160" height="26" as="geometry" />
        </mxCell>
        <mxCell id="6rIiN9BHhn4Da8iqrhuP-10" value="" style="line;strokeWidth=1;fillColor=none;align=left;verticalAlign=middle;spacingTop=-1;spacingLeft=3;spacingRight=3;rotatable=0;labelPosition=right;points=[];portConstraint=eastwest;strokeColor=inherit;" vertex="1" parent="6rIiN9BHhn4Da8iqrhuP-8">
          <mxGeometry y="52" width="160" height="8" as="geometry" />
        </mxCell>
        <mxCell id="6rIiN9BHhn4Da8iqrhuP-11" value="+ getter/setter&lt;br&gt;+ getThanhTien: double" style="text;strokeColor=none;fillColor=none;align=left;verticalAlign=top;spacingLeft=4;spacingRight=4;overflow=hidden;rotatable=0;points=[[0,0.5],[1,0.5]];portConstraint=eastwest;whiteSpace=wrap;html=1;" vertex="1" parent="6rIiN9BHhn4Da8iqrhuP-8">
          <mxGeometry y="60" width="160" height="50" as="geometry" />
        </mxCell>
        <mxCell id="6rIiN9BHhn4Da8iqrhuP-12" value="Extends" style="endArrow=block;endSize=16;endFill=0;html=1;rounded=0;exitX=0.25;exitY=0;exitDx=0;exitDy=0;entryX=0.75;entryY=1;entryDx=0;entryDy=0;" edge="1" parent="1" source="6rIiN9BHhn4Da8iqrhuP-8" target="6rIiN9BHhn4Da8iqrhuP-6">
          <mxGeometry width="160" relative="1" as="geometry">
            <mxPoint x="206" y="941" as="sourcePoint" />
            <mxPoint x="356" y="994" as="targetPoint" />
          </mxGeometry>
        </mxCell>
        <mxCell id="6rIiN9BHhn4Da8iqrhuP-13" value="Use" style="endArrow=open;endSize=12;dashed=1;html=1;rounded=0;exitX=1;exitY=0.25;exitDx=0;exitDy=0;" edge="1" parent="1" source="8F1XyEU1k7PKuXgPBpiQ-37" target="6rIiN9BHhn4Da8iqrhuP-6">
          <mxGeometry width="160" relative="1" as="geometry">
            <mxPoint x="-320" y="1160" as="sourcePoint" />
            <mxPoint x="-360" y="1360" as="targetPoint" />
          </mxGeometry>
        </mxCell>
        <mxCell id="6rIiN9BHhn4Da8iqrhuP-14" value="SumCountHouseCommand" style="swimlane;fontStyle=1;align=center;verticalAlign=top;childLayout=stackLayout;horizontal=1;startSize=26;horizontalStack=0;resizeParent=1;resizeParentMax=0;resizeLast=0;collapsible=1;marginBottom=0;whiteSpace=wrap;html=1;" vertex="1" parent="1">
          <mxGeometry x="-1445" y="820" width="285" height="110" as="geometry" />
        </mxCell>
        <mxCell id="6rIiN9BHhn4Da8iqrhuP-15" value="-&amp;nbsp;" style="text;strokeColor=none;fillColor=none;align=left;verticalAlign=top;spacingLeft=4;spacingRight=4;overflow=hidden;rotatable=0;points=[[0,0.5],[1,0.5]];portConstraint=eastwest;whiteSpace=wrap;html=1;" vertex="1" parent="6rIiN9BHhn4Da8iqrhuP-14">
          <mxGeometry y="26" width="285" height="26" as="geometry" />
        </mxCell>
        <mxCell id="6rIiN9BHhn4Da8iqrhuP-16" value="" style="line;strokeWidth=1;fillColor=none;align=left;verticalAlign=middle;spacingTop=-1;spacingLeft=3;spacingRight=3;rotatable=0;labelPosition=right;points=[];portConstraint=eastwest;strokeColor=inherit;" vertex="1" parent="6rIiN9BHhn4Da8iqrhuP-14">
          <mxGeometry y="52" width="285" height="8" as="geometry" />
        </mxCell>
        <mxCell id="6rIiN9BHhn4Da8iqrhuP-17" value="SumCountHouseCommand(HouseService, String)&lt;br&gt;+ execute(): void" style="text;strokeColor=none;fillColor=none;align=left;verticalAlign=top;spacingLeft=4;spacingRight=4;overflow=hidden;rotatable=0;points=[[0,0.5],[1,0.5]];portConstraint=eastwest;whiteSpace=wrap;html=1;" vertex="1" parent="6rIiN9BHhn4Da8iqrhuP-14">
          <mxGeometry y="60" width="285" height="50" as="geometry" />
        </mxCell>
        <mxCell id="6rIiN9BHhn4Da8iqrhuP-18" value="ExportCommand" style="swimlane;fontStyle=1;align=center;verticalAlign=top;childLayout=stackLayout;horizontal=1;startSize=26;horizontalStack=0;resizeParent=1;resizeParentMax=0;resizeLast=0;collapsible=1;marginBottom=0;whiteSpace=wrap;html=1;" vertex="1" parent="1">
          <mxGeometry x="-1275" y="941.24" width="285" height="110" as="geometry" />
        </mxCell>
        <mxCell id="6rIiN9BHhn4Da8iqrhuP-19" value="-&amp;nbsp;" style="text;strokeColor=none;fillColor=none;align=left;verticalAlign=top;spacingLeft=4;spacingRight=4;overflow=hidden;rotatable=0;points=[[0,0.5],[1,0.5]];portConstraint=eastwest;whiteSpace=wrap;html=1;" vertex="1" parent="6rIiN9BHhn4Da8iqrhuP-18">
          <mxGeometry y="26" width="285" height="26" as="geometry" />
        </mxCell>
        <mxCell id="6rIiN9BHhn4Da8iqrhuP-20" value="" style="line;strokeWidth=1;fillColor=none;align=left;verticalAlign=middle;spacingTop=-1;spacingLeft=3;spacingRight=3;rotatable=0;labelPosition=right;points=[];portConstraint=eastwest;strokeColor=inherit;" vertex="1" parent="6rIiN9BHhn4Da8iqrhuP-18">
          <mxGeometry y="52" width="285" height="8" as="geometry" />
        </mxCell>
        <mxCell id="6rIiN9BHhn4Da8iqrhuP-21" value="ExportCommand(HouseService, int)&lt;br&gt;+ execute(): void" style="text;strokeColor=none;fillColor=none;align=left;verticalAlign=top;spacingLeft=4;spacingRight=4;overflow=hidden;rotatable=0;points=[[0,0.5],[1,0.5]];portConstraint=eastwest;whiteSpace=wrap;html=1;" vertex="1" parent="6rIiN9BHhn4Da8iqrhuP-18">
          <mxGeometry y="60" width="285" height="50" as="geometry" />
        </mxCell>
        <mxCell id="6rIiN9BHhn4Da8iqrhuP-22" value="CalcCommand" style="swimlane;fontStyle=1;align=center;verticalAlign=top;childLayout=stackLayout;horizontal=1;startSize=26;horizontalStack=0;resizeParent=1;resizeParentMax=0;resizeLast=0;collapsible=1;marginBottom=0;whiteSpace=wrap;html=1;" vertex="1" parent="1">
          <mxGeometry x="-1150" y="1080" width="285" height="110" as="geometry" />
        </mxCell>
        <mxCell id="6rIiN9BHhn4Da8iqrhuP-23" value="-&amp;nbsp;" style="text;strokeColor=none;fillColor=none;align=left;verticalAlign=top;spacingLeft=4;spacingRight=4;overflow=hidden;rotatable=0;points=[[0,0.5],[1,0.5]];portConstraint=eastwest;whiteSpace=wrap;html=1;" vertex="1" parent="6rIiN9BHhn4Da8iqrhuP-22">
          <mxGeometry y="26" width="285" height="26" as="geometry" />
        </mxCell>
        <mxCell id="6rIiN9BHhn4Da8iqrhuP-24" value="" style="line;strokeWidth=1;fillColor=none;align=left;verticalAlign=middle;spacingTop=-1;spacingLeft=3;spacingRight=3;rotatable=0;labelPosition=right;points=[];portConstraint=eastwest;strokeColor=inherit;" vertex="1" parent="6rIiN9BHhn4Da8iqrhuP-22">
          <mxGeometry y="52" width="285" height="8" as="geometry" />
        </mxCell>
        <mxCell id="6rIiN9BHhn4Da8iqrhuP-25" value="CalcCommand(HouseService, House)&lt;br&gt;+ execute(): void" style="text;strokeColor=none;fillColor=none;align=left;verticalAlign=top;spacingLeft=4;spacingRight=4;overflow=hidden;rotatable=0;points=[[0,0.5],[1,0.5]];portConstraint=eastwest;whiteSpace=wrap;html=1;" vertex="1" parent="6rIiN9BHhn4Da8iqrhuP-22">
          <mxGeometry y="60" width="285" height="50" as="geometry" />
        </mxCell>
        <mxCell id="6rIiN9BHhn4Da8iqrhuP-27" value="" style="endArrow=block;endSize=16;endFill=0;html=1;rounded=0;exitX=1;exitY=0;exitDx=0;exitDy=0;entryX=0.005;entryY=0.948;entryDx=0;entryDy=0;entryPerimeter=0;" edge="1" parent="1" source="6rIiN9BHhn4Da8iqrhuP-14" target="jqKUpd696BWljWw7io7Z-10">
          <mxGeometry x="-1" y="-496" width="160" relative="1" as="geometry">
            <mxPoint x="-1096" y="792" as="sourcePoint" />
            <mxPoint x="-800" y="754" as="targetPoint" />
            <mxPoint x="402" y="310" as="offset" />
          </mxGeometry>
        </mxCell>
        <mxCell id="6rIiN9BHhn4Da8iqrhuP-28" value="Extends" style="edgeLabel;html=1;align=center;verticalAlign=middle;resizable=0;points=[];" vertex="1" connectable="0" parent="6rIiN9BHhn4Da8iqrhuP-27">
          <mxGeometry x="-0.0619" y="-2" relative="1" as="geometry">
            <mxPoint as="offset" />
          </mxGeometry>
        </mxCell>
        <mxCell id="6rIiN9BHhn4Da8iqrhuP-30" value="" style="endArrow=block;endSize=16;endFill=0;html=1;rounded=0;exitX=0.75;exitY=0;exitDx=0;exitDy=0;entryX=0.077;entryY=0.994;entryDx=0;entryDy=0;entryPerimeter=0;" edge="1" parent="1" source="6rIiN9BHhn4Da8iqrhuP-18" target="jqKUpd696BWljWw7io7Z-10">
          <mxGeometry x="-1" y="-496" width="160" relative="1" as="geometry">
            <mxPoint x="-1150" y="830" as="sourcePoint" />
            <mxPoint x="-789" y="746" as="targetPoint" />
            <mxPoint x="402" y="310" as="offset" />
          </mxGeometry>
        </mxCell>
        <mxCell id="6rIiN9BHhn4Da8iqrhuP-31" value="Extends" style="edgeLabel;html=1;align=center;verticalAlign=middle;resizable=0;points=[];" vertex="1" connectable="0" parent="6rIiN9BHhn4Da8iqrhuP-30">
          <mxGeometry x="-0.0619" y="-2" relative="1" as="geometry">
            <mxPoint as="offset" />
          </mxGeometry>
        </mxCell>
        <mxCell id="6rIiN9BHhn4Da8iqrhuP-32" value="" style="endArrow=block;endSize=16;endFill=0;html=1;rounded=0;exitX=0.922;exitY=-0.01;exitDx=0;exitDy=0;exitPerimeter=0;entryX=0.192;entryY=1.041;entryDx=0;entryDy=0;entryPerimeter=0;" edge="1" parent="1" source="6rIiN9BHhn4Da8iqrhuP-22" target="jqKUpd696BWljWw7io7Z-10">
          <mxGeometry x="-1" y="-496" width="160" relative="1" as="geometry">
            <mxPoint x="-1150" y="830" as="sourcePoint" />
            <mxPoint x="-789" y="746" as="targetPoint" />
            <mxPoint x="402" y="310" as="offset" />
          </mxGeometry>
        </mxCell>
        <mxCell id="6rIiN9BHhn4Da8iqrhuP-33" value="Extends" style="edgeLabel;html=1;align=center;verticalAlign=middle;resizable=0;points=[];" vertex="1" connectable="0" parent="6rIiN9BHhn4Da8iqrhuP-32">
          <mxGeometry x="-0.0619" y="-2" relative="1" as="geometry">
            <mxPoint as="offset" />
          </mxGeometry>
        </mxCell>
        <mxCell id="6rIiN9BHhn4Da8iqrhuP-34" value="Use" style="endArrow=open;endSize=12;dashed=1;html=1;rounded=0;exitX=0;exitY=0.25;exitDx=0;exitDy=0;entryX=1;entryY=0.5;entryDx=0;entryDy=0;" edge="1" parent="1" source="8F1XyEU1k7PKuXgPBpiQ-62" target="6rIiN9BHhn4Da8iqrhuP-6">
          <mxGeometry width="160" relative="1" as="geometry">
            <mxPoint x="-40" y="988" as="sourcePoint" />
            <mxPoint x="210" y="1001" as="targetPoint" />
          </mxGeometry>
        </mxCell>
        <mxCell id="6rIiN9BHhn4Da8iqrhuP-49" value="SumCountLandCommand" style="swimlane;fontStyle=1;align=center;verticalAlign=top;childLayout=stackLayout;horizontal=1;startSize=26;horizontalStack=0;resizeParent=1;resizeParentMax=0;resizeLast=0;collapsible=1;marginBottom=0;whiteSpace=wrap;html=1;" vertex="1" parent="1">
          <mxGeometry x="1700" y="820" width="285" height="110" as="geometry" />
        </mxCell>
        <mxCell id="6rIiN9BHhn4Da8iqrhuP-50" value="-&amp;nbsp;" style="text;strokeColor=none;fillColor=none;align=left;verticalAlign=top;spacingLeft=4;spacingRight=4;overflow=hidden;rotatable=0;points=[[0,0.5],[1,0.5]];portConstraint=eastwest;whiteSpace=wrap;html=1;" vertex="1" parent="6rIiN9BHhn4Da8iqrhuP-49">
          <mxGeometry y="26" width="285" height="26" as="geometry" />
        </mxCell>
        <mxCell id="6rIiN9BHhn4Da8iqrhuP-51" value="" style="line;strokeWidth=1;fillColor=none;align=left;verticalAlign=middle;spacingTop=-1;spacingLeft=3;spacingRight=3;rotatable=0;labelPosition=right;points=[];portConstraint=eastwest;strokeColor=inherit;" vertex="1" parent="6rIiN9BHhn4Da8iqrhuP-49">
          <mxGeometry y="52" width="285" height="8" as="geometry" />
        </mxCell>
        <mxCell id="6rIiN9BHhn4Da8iqrhuP-52" value="SumCountLandCommand(HouseService, String)&lt;br&gt;+ execute(): void" style="text;strokeColor=none;fillColor=none;align=left;verticalAlign=top;spacingLeft=4;spacingRight=4;overflow=hidden;rotatable=0;points=[[0,0.5],[1,0.5]];portConstraint=eastwest;whiteSpace=wrap;html=1;" vertex="1" parent="6rIiN9BHhn4Da8iqrhuP-49">
          <mxGeometry y="60" width="285" height="50" as="geometry" />
        </mxCell>
        <mxCell id="6rIiN9BHhn4Da8iqrhuP-53" value="ExportCommand" style="swimlane;fontStyle=1;align=center;verticalAlign=top;childLayout=stackLayout;horizontal=1;startSize=26;horizontalStack=0;resizeParent=1;resizeParentMax=0;resizeLast=0;collapsible=1;marginBottom=0;whiteSpace=wrap;html=1;" vertex="1" parent="1">
          <mxGeometry x="1630" y="950" width="285" height="110" as="geometry" />
        </mxCell>
        <mxCell id="6rIiN9BHhn4Da8iqrhuP-54" value="-&amp;nbsp;" style="text;strokeColor=none;fillColor=none;align=left;verticalAlign=top;spacingLeft=4;spacingRight=4;overflow=hidden;rotatable=0;points=[[0,0.5],[1,0.5]];portConstraint=eastwest;whiteSpace=wrap;html=1;" vertex="1" parent="6rIiN9BHhn4Da8iqrhuP-53">
          <mxGeometry y="26" width="285" height="26" as="geometry" />
        </mxCell>
        <mxCell id="6rIiN9BHhn4Da8iqrhuP-55" value="" style="line;strokeWidth=1;fillColor=none;align=left;verticalAlign=middle;spacingTop=-1;spacingLeft=3;spacingRight=3;rotatable=0;labelPosition=right;points=[];portConstraint=eastwest;strokeColor=inherit;" vertex="1" parent="6rIiN9BHhn4Da8iqrhuP-53">
          <mxGeometry y="52" width="285" height="8" as="geometry" />
        </mxCell>
        <mxCell id="6rIiN9BHhn4Da8iqrhuP-56" value="ExportCommand(HouseService, int)&lt;br&gt;+ execute(): void" style="text;strokeColor=none;fillColor=none;align=left;verticalAlign=top;spacingLeft=4;spacingRight=4;overflow=hidden;rotatable=0;points=[[0,0.5],[1,0.5]];portConstraint=eastwest;whiteSpace=wrap;html=1;" vertex="1" parent="6rIiN9BHhn4Da8iqrhuP-53">
          <mxGeometry y="60" width="285" height="50" as="geometry" />
        </mxCell>
        <mxCell id="6rIiN9BHhn4Da8iqrhuP-57" value="CalcCommand" style="swimlane;fontStyle=1;align=center;verticalAlign=top;childLayout=stackLayout;horizontal=1;startSize=26;horizontalStack=0;resizeParent=1;resizeParentMax=0;resizeLast=0;collapsible=1;marginBottom=0;whiteSpace=wrap;html=1;" vertex="1" parent="1">
          <mxGeometry x="1430" y="1090" width="285" height="110" as="geometry" />
        </mxCell>
        <mxCell id="6rIiN9BHhn4Da8iqrhuP-58" value="-&amp;nbsp;" style="text;strokeColor=none;fillColor=none;align=left;verticalAlign=top;spacingLeft=4;spacingRight=4;overflow=hidden;rotatable=0;points=[[0,0.5],[1,0.5]];portConstraint=eastwest;whiteSpace=wrap;html=1;" vertex="1" parent="6rIiN9BHhn4Da8iqrhuP-57">
          <mxGeometry y="26" width="285" height="26" as="geometry" />
        </mxCell>
        <mxCell id="6rIiN9BHhn4Da8iqrhuP-59" value="" style="line;strokeWidth=1;fillColor=none;align=left;verticalAlign=middle;spacingTop=-1;spacingLeft=3;spacingRight=3;rotatable=0;labelPosition=right;points=[];portConstraint=eastwest;strokeColor=inherit;" vertex="1" parent="6rIiN9BHhn4Da8iqrhuP-57">
          <mxGeometry y="52" width="285" height="8" as="geometry" />
        </mxCell>
        <mxCell id="6rIiN9BHhn4Da8iqrhuP-60" value="CalcCommand(HouseService, House)&lt;br&gt;+ execute(): void" style="text;strokeColor=none;fillColor=none;align=left;verticalAlign=top;spacingLeft=4;spacingRight=4;overflow=hidden;rotatable=0;points=[[0,0.5],[1,0.5]];portConstraint=eastwest;whiteSpace=wrap;html=1;" vertex="1" parent="6rIiN9BHhn4Da8iqrhuP-57">
          <mxGeometry y="60" width="285" height="50" as="geometry" />
        </mxCell>
        <mxCell id="6rIiN9BHhn4Da8iqrhuP-63" value="" style="endArrow=block;endSize=16;endFill=0;html=1;rounded=0;exitX=0;exitY=0.5;exitDx=0;exitDy=0;entryX=1;entryY=1;entryDx=0;entryDy=0;" edge="1" parent="1" source="6rIiN9BHhn4Da8iqrhuP-54" target="jqKUpd696BWljWw7io7Z-66">
          <mxGeometry x="-1" y="-496" width="160" relative="1" as="geometry">
            <mxPoint x="1710" y="754" as="sourcePoint" />
            <mxPoint x="1460" y="856" as="targetPoint" />
            <mxPoint x="402" y="310" as="offset" />
          </mxGeometry>
        </mxCell>
        <mxCell id="6rIiN9BHhn4Da8iqrhuP-64" value="Extends" style="edgeLabel;html=1;align=center;verticalAlign=middle;resizable=0;points=[];" vertex="1" connectable="0" parent="6rIiN9BHhn4Da8iqrhuP-63">
          <mxGeometry x="-0.0619" y="-2" relative="1" as="geometry">
            <mxPoint as="offset" />
          </mxGeometry>
        </mxCell>
        <mxCell id="6rIiN9BHhn4Da8iqrhuP-65" value="" style="endArrow=block;endSize=16;endFill=0;html=1;rounded=0;exitX=0;exitY=0;exitDx=0;exitDy=0;entryX=0.75;entryY=1;entryDx=0;entryDy=0;" edge="1" parent="1" source="6rIiN9BHhn4Da8iqrhuP-57" target="jqKUpd696BWljWw7io7Z-66">
          <mxGeometry x="-1" y="-496" width="160" relative="1" as="geometry">
            <mxPoint x="1720" y="764" as="sourcePoint" />
            <mxPoint x="1470" y="866" as="targetPoint" />
            <mxPoint x="402" y="310" as="offset" />
          </mxGeometry>
        </mxCell>
        <mxCell id="6rIiN9BHhn4Da8iqrhuP-66" value="Extends" style="edgeLabel;html=1;align=center;verticalAlign=middle;resizable=0;points=[];" vertex="1" connectable="0" parent="6rIiN9BHhn4Da8iqrhuP-65">
          <mxGeometry x="-0.0619" y="-2" relative="1" as="geometry">
            <mxPoint as="offset" />
          </mxGeometry>
        </mxCell>
      </root>
    </mxGraphModel>
  </diagram>
  <diagram id="kVJhwpi9LjxtVQFYLApZ" name="Page-2">
    <mxGraphModel dx="7300" dy="2710" grid="1" gridSize="10" guides="1" tooltips="1" connect="1" arrows="1" fold="1" page="1" pageScale="1" pageWidth="850" pageHeight="1100" math="0" shadow="0">
      <root>
        <mxCell id="0" />
        <mxCell id="1" parent="0" />
        <mxCell id="OyHK7IOIYtpEXpOzV6Mq-3" value="" style="rounded=0;whiteSpace=wrap;html=1;fillColor=#FFCCE6;" vertex="1" parent="1">
          <mxGeometry x="-1610" y="650" width="4055" height="1350" as="geometry" />
        </mxCell>
        <mxCell id="OyHK7IOIYtpEXpOzV6Mq-2" value="" style="rounded=0;whiteSpace=wrap;html=1;fillColor=#FFFFCC;" vertex="1" parent="1">
          <mxGeometry x="-790" y="2000" width="2490" height="1080" as="geometry" />
        </mxCell>
        <mxCell id="OyHK7IOIYtpEXpOzV6Mq-1" value="" style="rounded=0;whiteSpace=wrap;html=1;fillColor=#99FFFF;shadow=1;" vertex="1" parent="1">
          <mxGeometry x="-790" y="3080" width="2490" height="920" as="geometry" />
        </mxCell>
        <mxCell id="J8hBxOplMBVv3ACiszUE-1" value="MainUI" style="swimlane;fontStyle=1;align=center;verticalAlign=top;childLayout=stackLayout;horizontal=1;startSize=26;horizontalStack=0;resizeParent=1;resizeParentMax=0;resizeLast=0;collapsible=1;marginBottom=0;whiteSpace=wrap;html=1;" vertex="1" parent="1">
          <mxGeometry x="275" y="880" width="350" height="200" as="geometry" />
        </mxCell>
        <mxCell id="J8hBxOplMBVv3ACiszUE-2" value="- houseUI: HouseUI&lt;br&gt;- landUI: LandUI&lt;br&gt;- uiController: UIController&lt;br&gt;- jPanel: JPanel&lt;br&gt;- jMenu: JMenu" style="text;strokeColor=none;fillColor=#FFFFFF;align=left;verticalAlign=top;spacingLeft=4;spacingRight=4;overflow=hidden;rotatable=0;points=[[0,0.5],[1,0.5]];portConstraint=eastwest;whiteSpace=wrap;html=1;" vertex="1" parent="J8hBxOplMBVv3ACiszUE-1">
          <mxGeometry y="26" width="350" height="94" as="geometry" />
        </mxCell>
        <mxCell id="J8hBxOplMBVv3ACiszUE-3" value="" style="line;strokeWidth=1;fillColor=none;align=left;verticalAlign=middle;spacingTop=-1;spacingLeft=3;spacingRight=3;rotatable=0;labelPosition=right;points=[];portConstraint=eastwest;strokeColor=inherit;" vertex="1" parent="J8hBxOplMBVv3ACiszUE-1">
          <mxGeometry y="120" width="350" height="8" as="geometry" />
        </mxCell>
        <mxCell id="J8hBxOplMBVv3ACiszUE-4" value="MainUI()&lt;br&gt;+ setSize(double, double): void&lt;br&gt;+ setJMenuBar(JMenu): void&lt;br&gt;+&amp;nbsp;actionPerformed(ActionEvent): void" style="text;strokeColor=none;fillColor=#FFFFFF;align=left;verticalAlign=top;spacingLeft=4;spacingRight=4;overflow=hidden;rotatable=0;points=[[0,0.5],[1,0.5]];portConstraint=eastwest;whiteSpace=wrap;html=1;" vertex="1" parent="J8hBxOplMBVv3ACiszUE-1">
          <mxGeometry y="128" width="350" height="72" as="geometry" />
        </mxCell>
        <mxCell id="J8hBxOplMBVv3ACiszUE-5" value="Extends" style="endArrow=block;endSize=16;endFill=0;html=1;rounded=0;entryX=0.75;entryY=1;entryDx=0;entryDy=0;" edge="1" parent="1" source="J8hBxOplMBVv3ACiszUE-1" target="J8hBxOplMBVv3ACiszUE-6">
          <mxGeometry width="160" relative="1" as="geometry">
            <mxPoint x="150" y="180" as="sourcePoint" />
            <mxPoint x="178.08000000000015" y="156.98800000000028" as="targetPoint" />
          </mxGeometry>
        </mxCell>
        <mxCell id="J8hBxOplMBVv3ACiszUE-6" value="&lt;p style=&quot;margin:0px;margin-top:4px;text-align:center;&quot;&gt;&lt;b&gt;javax.swing&lt;/b&gt;&lt;/p&gt;&lt;p style=&quot;margin:0px;margin-top:4px;text-align:center;&quot;&gt;&lt;b&gt;JFrame&lt;/b&gt;&lt;/p&gt;&lt;hr size=&quot;1&quot; style=&quot;border-style:solid;&quot;&gt;&lt;p style=&quot;margin:0px;margin-left:4px;&quot;&gt;-&amp;nbsp;&lt;/p&gt;&lt;hr size=&quot;1&quot; style=&quot;border-style:solid;&quot;&gt;&lt;p style=&quot;margin:0px;margin-left:4px;&quot;&gt;+&amp;nbsp;&lt;/p&gt;" style="verticalAlign=top;align=left;overflow=fill;html=1;whiteSpace=wrap;" vertex="1" parent="1">
          <mxGeometry x="150" y="710" width="120" height="100" as="geometry" />
        </mxCell>
        <mxCell id="J8hBxOplMBVv3ACiszUE-7" value="&lt;p style=&quot;margin:0px;margin-top:4px;text-align:center;&quot;&gt;&lt;b&gt;java.awt.event&lt;br&gt;ActionListener&lt;/b&gt;&lt;/p&gt;&lt;hr size=&quot;1&quot; style=&quot;border-style:solid;&quot;&gt;&lt;p style=&quot;margin:0px;margin-left:4px;&quot;&gt;-&amp;nbsp;&lt;/p&gt;&lt;hr size=&quot;1&quot; style=&quot;border-style:solid;&quot;&gt;&lt;p style=&quot;margin:0px;margin-left:4px;&quot;&gt;+&amp;nbsp;&lt;/p&gt;" style="verticalAlign=top;align=left;overflow=fill;html=1;whiteSpace=wrap;" vertex="1" parent="1">
          <mxGeometry x="590" y="710" width="120" height="100" as="geometry" />
        </mxCell>
        <mxCell id="J8hBxOplMBVv3ACiszUE-8" value="HouseUI" style="swimlane;fontStyle=1;align=center;verticalAlign=top;childLayout=stackLayout;horizontal=1;startSize=26;horizontalStack=0;resizeParent=1;resizeParentMax=0;resizeLast=0;collapsible=1;marginBottom=0;whiteSpace=wrap;html=1;" vertex="1" parent="1">
          <mxGeometry x="-130" y="1310" width="350" height="280" as="geometry" />
        </mxCell>
        <mxCell id="J8hBxOplMBVv3ACiszUE-9" value="- houseService:HouseService&lt;br&gt;- houseUIController: HouseUIController&lt;br&gt;-&amp;nbsp;tableModel:&amp;nbsp;DefaultTableModel&lt;br&gt;- houseTable: JTable&lt;br&gt;- addButton, updateButton, deleteButton, findButton,...: JButton&lt;br&gt;- labelMaGiaoDich, labelNgayGiaoDich,...: JLabel&lt;br&gt;- textMaGiaoDich, textNgayGiaoDich,...: JTextField" style="text;strokeColor=none;fillColor=#FFFFFF;align=left;verticalAlign=top;spacingLeft=4;spacingRight=4;overflow=hidden;rotatable=0;points=[[0,0.5],[1,0.5]];portConstraint=eastwest;whiteSpace=wrap;html=1;" vertex="1" parent="J8hBxOplMBVv3ACiszUE-8">
          <mxGeometry y="26" width="350" height="114" as="geometry" />
        </mxCell>
        <mxCell id="J8hBxOplMBVv3ACiszUE-10" value="" style="line;strokeWidth=1;fillColor=none;align=left;verticalAlign=middle;spacingTop=-1;spacingLeft=3;spacingRight=3;rotatable=0;labelPosition=right;points=[];portConstraint=eastwest;strokeColor=inherit;" vertex="1" parent="J8hBxOplMBVv3ACiszUE-8">
          <mxGeometry y="140" width="350" height="8" as="geometry" />
        </mxCell>
        <mxCell id="J8hBxOplMBVv3ACiszUE-11" value="HouseUI(HouseService, CommandProcessor)&lt;br&gt;+ setSize(double, double): void&lt;br&gt;+ addHouse(): void&lt;br&gt;+ updateHouse(): void&lt;br&gt;+ deleteHouse(): void&lt;br&gt;+ reloadTable(): void&lt;br&gt;+&amp;nbsp;actionPerformed(ActionEvent): void&lt;br&gt;+ valueChanged(ListSelectionEvent): void" style="text;strokeColor=none;fillColor=#FFFFFF;align=left;verticalAlign=top;spacingLeft=4;spacingRight=4;overflow=hidden;rotatable=0;points=[[0,0.5],[1,0.5]];portConstraint=eastwest;whiteSpace=wrap;html=1;" vertex="1" parent="J8hBxOplMBVv3ACiszUE-8">
          <mxGeometry y="148" width="350" height="132" as="geometry" />
        </mxCell>
        <mxCell id="J8hBxOplMBVv3ACiszUE-12" value="" style="endArrow=open;endFill=1;endSize=12;html=1;rounded=0;exitX=0.131;exitY=1.031;exitDx=0;exitDy=0;exitPerimeter=0;entryX=0.75;entryY=0;entryDx=0;entryDy=0;" edge="1" parent="1" source="J8hBxOplMBVv3ACiszUE-4" target="J8hBxOplMBVv3ACiszUE-8">
          <mxGeometry width="160" relative="1" as="geometry">
            <mxPoint x="230" y="500" as="sourcePoint" />
            <mxPoint x="390" y="500" as="targetPoint" />
          </mxGeometry>
        </mxCell>
        <mxCell id="J8hBxOplMBVv3ACiszUE-13" value="" style="endArrow=block;dashed=1;endFill=0;endSize=12;html=1;rounded=0;exitX=0.106;exitY=-0.004;exitDx=0;exitDy=0;exitPerimeter=0;entryX=0.5;entryY=1;entryDx=0;entryDy=0;" edge="1" parent="1" source="J8hBxOplMBVv3ACiszUE-8" target="J8hBxOplMBVv3ACiszUE-22">
          <mxGeometry width="160" relative="1" as="geometry">
            <mxPoint x="-279.1199999999999" y="568.44" as="sourcePoint" />
            <mxPoint x="-279" y="380" as="targetPoint" />
          </mxGeometry>
        </mxCell>
        <mxCell id="J8hBxOplMBVv3ACiszUE-14" value="LandUI" style="swimlane;fontStyle=1;align=center;verticalAlign=top;childLayout=stackLayout;horizontal=1;startSize=26;horizontalStack=0;resizeParent=1;resizeParentMax=0;resizeLast=0;collapsible=1;marginBottom=0;whiteSpace=wrap;html=1;" vertex="1" parent="1">
          <mxGeometry x="660" y="1310" width="350" height="290" as="geometry" />
        </mxCell>
        <mxCell id="J8hBxOplMBVv3ACiszUE-15" value="- landService: LandService&lt;br&gt;- landUIController: LandUIController&lt;br&gt;-&amp;nbsp;tableModel:&amp;nbsp;DefaultTableModel&lt;br&gt;- landTable: JTable&lt;br&gt;- addButton, updateButton, deleteButton, findButton,...: JButton&lt;br&gt;- labelMaGiaoDich, labelNgayGiaoDich,...: JLabel&lt;br&gt;- textMaGiaoDich, textNgayGiaoDich,...: JTextField" style="text;strokeColor=none;fillColor=#FFFFFF;align=left;verticalAlign=top;spacingLeft=4;spacingRight=4;overflow=hidden;rotatable=0;points=[[0,0.5],[1,0.5]];portConstraint=eastwest;whiteSpace=wrap;html=1;" vertex="1" parent="J8hBxOplMBVv3ACiszUE-14">
          <mxGeometry y="26" width="350" height="114" as="geometry" />
        </mxCell>
        <mxCell id="J8hBxOplMBVv3ACiszUE-16" value="" style="line;strokeWidth=1;fillColor=none;align=left;verticalAlign=middle;spacingTop=-1;spacingLeft=3;spacingRight=3;rotatable=0;labelPosition=right;points=[];portConstraint=eastwest;strokeColor=inherit;" vertex="1" parent="J8hBxOplMBVv3ACiszUE-14">
          <mxGeometry y="140" width="350" height="8" as="geometry" />
        </mxCell>
        <mxCell id="J8hBxOplMBVv3ACiszUE-17" value="LandUI()&lt;br&gt;+ setSize(double, double): void&lt;br&gt;+ addLand(): void&lt;br&gt;+ updateLand(): void&lt;br&gt;+ deleteLand(): void&lt;br&gt;+ reloadTable(): void&lt;br&gt;+&amp;nbsp;actionPerformed(ActionEvent): void&lt;br&gt;+ valueChanged(ListSelectionEvent): void" style="text;strokeColor=none;fillColor=#FFFFFF;align=left;verticalAlign=top;spacingLeft=4;spacingRight=4;overflow=hidden;rotatable=0;points=[[0,0.5],[1,0.5]];portConstraint=eastwest;whiteSpace=wrap;html=1;" vertex="1" parent="J8hBxOplMBVv3ACiszUE-14">
          <mxGeometry y="148" width="350" height="142" as="geometry" />
        </mxCell>
        <mxCell id="J8hBxOplMBVv3ACiszUE-18" value="" style="endArrow=block;dashed=1;endFill=0;endSize=12;html=1;rounded=0;exitX=1;exitY=0;exitDx=0;exitDy=0;entryX=0.5;entryY=1;entryDx=0;entryDy=0;" edge="1" parent="1" source="J8hBxOplMBVv3ACiszUE-14" target="J8hBxOplMBVv3ACiszUE-23">
          <mxGeometry width="160" relative="1" as="geometry">
            <mxPoint x="1086.1599999999999" y="568.44" as="sourcePoint" />
            <mxPoint x="980" y="340" as="targetPoint" />
          </mxGeometry>
        </mxCell>
        <mxCell id="J8hBxOplMBVv3ACiszUE-19" value="" style="endArrow=open;endFill=1;endSize=12;html=1;rounded=0;exitX=0.853;exitY=0.989;exitDx=0;exitDy=0;exitPerimeter=0;entryX=0.098;entryY=-0.005;entryDx=0;entryDy=0;entryPerimeter=0;" edge="1" parent="1" source="J8hBxOplMBVv3ACiszUE-4" target="J8hBxOplMBVv3ACiszUE-14">
          <mxGeometry width="160" relative="1" as="geometry">
            <mxPoint x="209" y="451" as="sourcePoint" />
            <mxPoint x="123" y="540" as="targetPoint" />
          </mxGeometry>
        </mxCell>
        <mxCell id="J8hBxOplMBVv3ACiszUE-20" value="&lt;p style=&quot;margin:0px;margin-top:4px;text-align:center;&quot;&gt;&lt;i&gt;&amp;lt;&amp;lt;interface&amp;gt;&amp;gt;&lt;/i&gt;&lt;br&gt;&lt;b&gt;HouseService&lt;/b&gt;&lt;br&gt;&lt;/p&gt;&lt;hr size=&quot;1&quot;&gt;&lt;p style=&quot;margin:0px;margin-left:4px;&quot;&gt;-&amp;nbsp;&lt;/p&gt;&lt;hr size=&quot;1&quot;&gt;&lt;p style=&quot;margin:0px;margin-left:4px;&quot;&gt;+&amp;nbsp;addHouse&lt;i style=&quot;background-color: initial;&quot;&gt;(&lt;/i&gt;House&lt;i style=&quot;background-color: initial;&quot;&gt;)&lt;/i&gt;&lt;span style=&quot;background-color: initial;&quot;&gt;: void&lt;br&gt;+&amp;nbsp;&lt;/span&gt;updateHouse(House): void&lt;br&gt;+ deleteHouse(int): void&lt;br&gt;+ findHouse(int): House&lt;br&gt;+ getAllHouses(): List&amp;lt;House&amp;gt;&lt;br&gt;+&amp;nbsp;searchHousesByName(String): List&amp;lt;House&amp;gt;&lt;/p&gt;" style="verticalAlign=top;align=left;overflow=fill;fontSize=12;fontFamily=Helvetica;html=1;whiteSpace=wrap;" vertex="1" parent="1">
          <mxGeometry x="-110" y="2310" width="260" height="170" as="geometry" />
        </mxCell>
        <mxCell id="J8hBxOplMBVv3ACiszUE-21" value="" style="endArrow=open;endFill=1;endSize=12;html=1;rounded=0;exitX=0.233;exitY=0.989;exitDx=0;exitDy=0;exitPerimeter=0;entryX=0.5;entryY=0;entryDx=0;entryDy=0;" edge="1" parent="1" source="J8hBxOplMBVv3ACiszUE-11" target="J8hBxOplMBVv3ACiszUE-20">
          <mxGeometry width="160" relative="1" as="geometry">
            <mxPoint x="242" y="452" as="sourcePoint" />
            <mxPoint x="243" y="570" as="targetPoint" />
          </mxGeometry>
        </mxCell>
        <mxCell id="J8hBxOplMBVv3ACiszUE-22" value="&lt;p style=&quot;margin:0px;margin-top:4px;text-align:center;&quot;&gt;&lt;b&gt;java.awt.event&lt;br&gt;ActionListener&lt;/b&gt;&lt;/p&gt;&lt;hr size=&quot;1&quot; style=&quot;border-style:solid;&quot;&gt;&lt;p style=&quot;margin:0px;margin-left:4px;&quot;&gt;-&amp;nbsp;&lt;/p&gt;&lt;hr size=&quot;1&quot; style=&quot;border-style:solid;&quot;&gt;&lt;p style=&quot;margin:0px;margin-left:4px;&quot;&gt;+&amp;nbsp;&lt;/p&gt;" style="verticalAlign=top;align=left;overflow=fill;html=1;whiteSpace=wrap;" vertex="1" parent="1">
          <mxGeometry x="-180" y="995" width="120" height="100" as="geometry" />
        </mxCell>
        <mxCell id="J8hBxOplMBVv3ACiszUE-23" value="&lt;p style=&quot;margin:0px;margin-top:4px;text-align:center;&quot;&gt;&lt;b&gt;java.awt.event&lt;br&gt;ActionListener&lt;/b&gt;&lt;/p&gt;&lt;hr size=&quot;1&quot; style=&quot;border-style:solid;&quot;&gt;&lt;p style=&quot;margin:0px;margin-left:4px;&quot;&gt;-&amp;nbsp;&lt;/p&gt;&lt;hr size=&quot;1&quot; style=&quot;border-style:solid;&quot;&gt;&lt;p style=&quot;margin:0px;margin-left:4px;&quot;&gt;+&amp;nbsp;&lt;/p&gt;" style="verticalAlign=top;align=left;overflow=fill;html=1;whiteSpace=wrap;" vertex="1" parent="1">
          <mxGeometry x="1070" y="1060" width="120" height="100" as="geometry" />
        </mxCell>
        <mxCell id="J8hBxOplMBVv3ACiszUE-24" value="&lt;p style=&quot;margin:0px;margin-top:4px;text-align:center;&quot;&gt;&lt;b&gt;javax.swing&lt;/b&gt;&lt;/p&gt;&lt;p style=&quot;margin:0px;margin-top:4px;text-align:center;&quot;&gt;&lt;b&gt;JFrame&lt;/b&gt;&lt;/p&gt;&lt;hr size=&quot;1&quot; style=&quot;border-style:solid;&quot;&gt;&lt;p style=&quot;margin:0px;margin-left:4px;&quot;&gt;-&amp;nbsp;&lt;/p&gt;&lt;hr size=&quot;1&quot; style=&quot;border-style:solid;&quot;&gt;&lt;p style=&quot;margin:0px;margin-left:4px;&quot;&gt;+&amp;nbsp;&lt;/p&gt;" style="verticalAlign=top;align=left;overflow=fill;html=1;whiteSpace=wrap;" vertex="1" parent="1">
          <mxGeometry x="-15" y="1000" width="120" height="100" as="geometry" />
        </mxCell>
        <mxCell id="J8hBxOplMBVv3ACiszUE-25" value="Extends" style="endArrow=block;endSize=16;endFill=0;html=1;rounded=0;exitX=0.25;exitY=0;exitDx=0;exitDy=0;entryX=0.75;entryY=1;entryDx=0;entryDy=0;" edge="1" parent="1" source="J8hBxOplMBVv3ACiszUE-8" target="J8hBxOplMBVv3ACiszUE-24">
          <mxGeometry width="160" relative="1" as="geometry">
            <mxPoint x="205" y="234" as="sourcePoint" />
            <mxPoint x="30" y="390" as="targetPoint" />
          </mxGeometry>
        </mxCell>
        <mxCell id="J8hBxOplMBVv3ACiszUE-26" value="&lt;p style=&quot;margin:0px;margin-top:4px;text-align:center;&quot;&gt;&lt;b&gt;javax.swing&lt;/b&gt;&lt;/p&gt;&lt;p style=&quot;margin:0px;margin-top:4px;text-align:center;&quot;&gt;&lt;b&gt;JFrame&lt;/b&gt;&lt;/p&gt;&lt;hr size=&quot;1&quot; style=&quot;border-style:solid;&quot;&gt;&lt;p style=&quot;margin:0px;margin-left:4px;&quot;&gt;-&amp;nbsp;&lt;/p&gt;&lt;hr size=&quot;1&quot; style=&quot;border-style:solid;&quot;&gt;&lt;p style=&quot;margin:0px;margin-left:4px;&quot;&gt;+&amp;nbsp;&lt;/p&gt;" style="verticalAlign=top;align=left;overflow=fill;html=1;whiteSpace=wrap;" vertex="1" parent="1">
          <mxGeometry x="912.5" y="990" width="120" height="100" as="geometry" />
        </mxCell>
        <mxCell id="J8hBxOplMBVv3ACiszUE-27" value="Extends" style="endArrow=block;endSize=16;endFill=0;html=1;rounded=0;exitX=0.75;exitY=0;exitDx=0;exitDy=0;entryX=0.25;entryY=1;entryDx=0;entryDy=0;" edge="1" parent="1" source="J8hBxOplMBVv3ACiszUE-14" target="J8hBxOplMBVv3ACiszUE-26">
          <mxGeometry width="160" relative="1" as="geometry">
            <mxPoint x="1058" y="530" as="sourcePoint" />
            <mxPoint x="1120" y="350" as="targetPoint" />
          </mxGeometry>
        </mxCell>
        <mxCell id="J8hBxOplMBVv3ACiszUE-28" value="HouseServiceImpl" style="swimlane;fontStyle=1;align=center;verticalAlign=top;childLayout=stackLayout;horizontal=1;startSize=26;horizontalStack=0;resizeParent=1;resizeParentMax=0;resizeLast=0;collapsible=1;marginBottom=0;whiteSpace=wrap;html=1;" vertex="1" parent="1">
          <mxGeometry x="-30" y="2740" width="270" height="160" as="geometry" />
        </mxCell>
        <mxCell id="J8hBxOplMBVv3ACiszUE-29" value="-&amp;nbsp;persistenceService: HousePersistenceService" style="text;strokeColor=none;fillColor=#FFFFFF;align=left;verticalAlign=top;spacingLeft=4;spacingRight=4;overflow=hidden;rotatable=0;points=[[0,0.5],[1,0.5]];portConstraint=eastwest;whiteSpace=wrap;html=1;" vertex="1" parent="J8hBxOplMBVv3ACiszUE-28">
          <mxGeometry y="26" width="270" height="26" as="geometry" />
        </mxCell>
        <mxCell id="J8hBxOplMBVv3ACiszUE-30" value="" style="line;strokeWidth=1;fillColor=none;align=left;verticalAlign=middle;spacingTop=-1;spacingLeft=3;spacingRight=3;rotatable=0;labelPosition=right;points=[];portConstraint=eastwest;strokeColor=inherit;" vertex="1" parent="J8hBxOplMBVv3ACiszUE-28">
          <mxGeometry y="52" width="270" height="8" as="geometry" />
        </mxCell>
        <mxCell id="J8hBxOplMBVv3ACiszUE-31" value="HouseServiceImpl(HousePersistenceService)&lt;br&gt;+&amp;nbsp;updateHouse(House): void&lt;br style=&quot;border-color: var(--border-color);&quot;&gt;+ deleteHouse(int): void&lt;br style=&quot;border-color: var(--border-color);&quot;&gt;+ findHouse(int): House&lt;br style=&quot;border-color: var(--border-color);&quot;&gt;+ getAllHouses(): List&amp;lt;House&amp;gt;&lt;br style=&quot;border-color: var(--border-color);&quot;&gt;+&amp;nbsp;searchHousesByName(String): List&amp;lt;House&amp;gt;" style="text;strokeColor=none;fillColor=#FFFFFF;align=left;verticalAlign=top;spacingLeft=4;spacingRight=4;overflow=hidden;rotatable=0;points=[[0,0.5],[1,0.5]];portConstraint=eastwest;whiteSpace=wrap;html=1;" vertex="1" parent="J8hBxOplMBVv3ACiszUE-28">
          <mxGeometry y="60" width="270" height="100" as="geometry" />
        </mxCell>
        <mxCell id="J8hBxOplMBVv3ACiszUE-32" value="" style="endArrow=block;dashed=1;endFill=0;endSize=12;html=1;rounded=0;exitX=0.25;exitY=0;exitDx=0;exitDy=0;entryX=0.8;entryY=1.002;entryDx=0;entryDy=0;entryPerimeter=0;" edge="1" parent="1" source="J8hBxOplMBVv3ACiszUE-28" target="J8hBxOplMBVv3ACiszUE-20">
          <mxGeometry width="160" relative="1" as="geometry">
            <mxPoint x="1086" y="528" as="sourcePoint" />
            <mxPoint x="1140" y="470" as="targetPoint" />
          </mxGeometry>
        </mxCell>
        <mxCell id="J8hBxOplMBVv3ACiszUE-33" value="&lt;p style=&quot;margin:0px;margin-top:4px;text-align:center;&quot;&gt;&lt;i&gt;&amp;lt;&amp;lt;interface&amp;gt;&amp;gt;&lt;/i&gt;&lt;br&gt;&lt;b&gt;HousePersistenceService&lt;/b&gt;&lt;br&gt;&lt;/p&gt;&lt;hr size=&quot;1&quot;&gt;&lt;p style=&quot;margin:0px;margin-left:4px;&quot;&gt;-&amp;nbsp;&lt;/p&gt;&lt;hr size=&quot;1&quot;&gt;&lt;p style=&quot;margin:0px;margin-left:4px;&quot;&gt;+&amp;nbsp;addHouse&lt;i style=&quot;background-color: initial;&quot;&gt;(&lt;/i&gt;House&lt;i style=&quot;background-color: initial;&quot;&gt;)&lt;/i&gt;&lt;span style=&quot;background-color: initial;&quot;&gt;: void&lt;br&gt;+&amp;nbsp;&lt;/span&gt;updateHouse(House): void&lt;br&gt;+ deleteHouse(int): void&lt;br&gt;+&amp;nbsp;getHouseByID&lt;span style=&quot;background-color: initial;&quot;&gt;(int): House&lt;/span&gt;&lt;/p&gt;&lt;p style=&quot;margin:0px;margin-left:4px;&quot;&gt;+ getAllHouses(): List&amp;lt;House&amp;gt;&lt;br&gt;&lt;/p&gt;" style="verticalAlign=top;align=left;overflow=fill;fontSize=12;fontFamily=Helvetica;html=1;whiteSpace=wrap;" vertex="1" parent="1">
          <mxGeometry x="-80" y="3180" width="260" height="170" as="geometry" />
        </mxCell>
        <mxCell id="J8hBxOplMBVv3ACiszUE-34" value="" style="endArrow=open;endFill=1;endSize=12;html=1;rounded=0;exitX=0.458;exitY=1.008;exitDx=0;exitDy=0;exitPerimeter=0;entryX=0.433;entryY=-0.009;entryDx=0;entryDy=0;entryPerimeter=0;" edge="1" parent="1" source="J8hBxOplMBVv3ACiszUE-31" target="J8hBxOplMBVv3ACiszUE-33">
          <mxGeometry width="160" relative="1" as="geometry">
            <mxPoint x="-28" y="829" as="sourcePoint" />
            <mxPoint x="-40" y="890" as="targetPoint" />
          </mxGeometry>
        </mxCell>
        <mxCell id="J8hBxOplMBVv3ACiszUE-35" value="HousePersistenceServiceImpl" style="swimlane;fontStyle=1;align=center;verticalAlign=top;childLayout=stackLayout;horizontal=1;startSize=26;horizontalStack=0;resizeParent=1;resizeParentMax=0;resizeLast=0;collapsible=1;marginBottom=0;whiteSpace=wrap;html=1;" vertex="1" parent="1">
          <mxGeometry x="-60" y="3470" width="260" height="190" as="geometry" />
        </mxCell>
        <mxCell id="J8hBxOplMBVv3ACiszUE-36" value="- filePath: String" style="text;strokeColor=none;fillColor=#FFFFFF;align=left;verticalAlign=top;spacingLeft=4;spacingRight=4;overflow=hidden;rotatable=0;points=[[0,0.5],[1,0.5]];portConstraint=eastwest;whiteSpace=wrap;html=1;" vertex="1" parent="J8hBxOplMBVv3ACiszUE-35">
          <mxGeometry y="26" width="260" height="26" as="geometry" />
        </mxCell>
        <mxCell id="J8hBxOplMBVv3ACiszUE-37" value="" style="line;strokeWidth=1;fillColor=none;align=left;verticalAlign=middle;spacingTop=-1;spacingLeft=3;spacingRight=3;rotatable=0;labelPosition=right;points=[];portConstraint=eastwest;strokeColor=inherit;" vertex="1" parent="J8hBxOplMBVv3ACiszUE-35">
          <mxGeometry y="52" width="260" height="8" as="geometry" />
        </mxCell>
        <mxCell id="J8hBxOplMBVv3ACiszUE-38" value="HousePersistenceServiceImpl(String)&lt;br&gt;+ saveData(List&amp;lt;House&amp;gt;): void&lt;br&gt;&lt;span style=&quot;background-color: initial;&quot;&gt;+&amp;nbsp;addHouse&lt;/span&gt;&lt;i style=&quot;background-color: initial; border-color: var(--border-color);&quot;&gt;(&lt;/i&gt;&lt;span style=&quot;background-color: initial;&quot;&gt;House&lt;/span&gt;&lt;i style=&quot;background-color: initial; border-color: var(--border-color);&quot;&gt;)&lt;/i&gt;&lt;span style=&quot;background-color: initial;&quot;&gt;: void&lt;br&gt;&lt;/span&gt;&lt;span style=&quot;background-color: initial;&quot;&gt;+&amp;nbsp;updateHouse(House): void&lt;br&gt;&lt;/span&gt;&lt;span style=&quot;background-color: initial;&quot;&gt;+ deleteHouse(int): void&lt;br&gt;&lt;/span&gt;&lt;span style=&quot;background-color: initial;&quot;&gt;+&amp;nbsp;getHouseByID&lt;/span&gt;&lt;span style=&quot;background-color: initial; border-color: var(--border-color);&quot;&gt;(int): House&lt;br&gt;&lt;span style=&quot;background-color: initial;&quot;&gt;+ getAllHouses(): List&amp;lt;House&amp;gt;&lt;/span&gt;&lt;br&gt;&lt;/span&gt;" style="text;strokeColor=none;fillColor=#FFFFFF;align=left;verticalAlign=top;spacingLeft=4;spacingRight=4;overflow=hidden;rotatable=0;points=[[0,0.5],[1,0.5]];portConstraint=eastwest;whiteSpace=wrap;html=1;" vertex="1" parent="J8hBxOplMBVv3ACiszUE-35">
          <mxGeometry y="60" width="260" height="130" as="geometry" />
        </mxCell>
        <mxCell id="J8hBxOplMBVv3ACiszUE-39" value="" style="endArrow=block;dashed=1;endFill=0;endSize=12;html=1;rounded=0;exitX=0.25;exitY=0;exitDx=0;exitDy=0;entryX=0.25;entryY=1;entryDx=0;entryDy=0;" edge="1" parent="1" source="J8hBxOplMBVv3ACiszUE-35" target="J8hBxOplMBVv3ACiszUE-33">
          <mxGeometry width="160" relative="1" as="geometry">
            <mxPoint x="1326" y="3078" as="sourcePoint" />
            <mxPoint x="255" y="3600" as="targetPoint" />
          </mxGeometry>
        </mxCell>
        <mxCell id="J8hBxOplMBVv3ACiszUE-40" value="&lt;p style=&quot;margin:0px;margin-top:4px;text-align:center;&quot;&gt;&lt;i&gt;&amp;lt;&amp;lt;interface&amp;gt;&amp;gt;&lt;/i&gt;&lt;br&gt;&lt;b&gt;LandService&lt;/b&gt;&lt;br&gt;&lt;/p&gt;&lt;hr size=&quot;1&quot;&gt;&lt;p style=&quot;margin:0px;margin-left:4px;&quot;&gt;-&amp;nbsp;&lt;/p&gt;&lt;hr size=&quot;1&quot;&gt;&lt;p style=&quot;margin:0px;margin-left:4px;&quot;&gt;+&amp;nbsp;addLand&lt;i style=&quot;background-color: initial;&quot;&gt;(&lt;/i&gt;&lt;span style=&quot;background-color: initial;&quot;&gt;Land&lt;/span&gt;&lt;i style=&quot;background-color: initial;&quot;&gt;)&lt;/i&gt;&lt;span style=&quot;background-color: initial;&quot;&gt;: void&lt;br&gt;+&amp;nbsp;&lt;/span&gt;updateLand(Land): void&lt;br&gt;+ deleteLand(int): void&lt;br&gt;+ findLand(int): Land&lt;br&gt;+ getAllLands(): List&amp;lt;Land&amp;gt;&lt;br&gt;+&amp;nbsp;searchLandsByName(String): List&amp;lt;Land&amp;gt;&lt;/p&gt;" style="verticalAlign=top;align=left;overflow=fill;fontSize=12;fontFamily=Helvetica;html=1;whiteSpace=wrap;" vertex="1" parent="1">
          <mxGeometry x="840" y="2350" width="260" height="170" as="geometry" />
        </mxCell>
        <mxCell id="J8hBxOplMBVv3ACiszUE-41" value="" style="endArrow=open;endFill=1;endSize=12;html=1;rounded=0;exitX=0.457;exitY=1.02;exitDx=0;exitDy=0;exitPerimeter=0;entryX=0.5;entryY=0;entryDx=0;entryDy=0;" edge="1" parent="1" source="J8hBxOplMBVv3ACiszUE-17" target="J8hBxOplMBVv3ACiszUE-40">
          <mxGeometry width="160" relative="1" as="geometry">
            <mxPoint x="712" y="820" as="sourcePoint" />
            <mxPoint x="993" y="571" as="targetPoint" />
          </mxGeometry>
        </mxCell>
        <mxCell id="J8hBxOplMBVv3ACiszUE-42" value="LandServiceImpl" style="swimlane;fontStyle=1;align=center;verticalAlign=top;childLayout=stackLayout;horizontal=1;startSize=26;horizontalStack=0;resizeParent=1;resizeParentMax=0;resizeLast=0;collapsible=1;marginBottom=0;whiteSpace=wrap;html=1;" vertex="1" parent="1">
          <mxGeometry x="530" y="2740" width="270" height="160" as="geometry" />
        </mxCell>
        <mxCell id="J8hBxOplMBVv3ACiszUE-43" value="-&amp;nbsp;persistenceService: LandPersistenceService" style="text;strokeColor=none;fillColor=#FFFFFF;align=left;verticalAlign=top;spacingLeft=4;spacingRight=4;overflow=hidden;rotatable=0;points=[[0,0.5],[1,0.5]];portConstraint=eastwest;whiteSpace=wrap;html=1;" vertex="1" parent="J8hBxOplMBVv3ACiszUE-42">
          <mxGeometry y="26" width="270" height="26" as="geometry" />
        </mxCell>
        <mxCell id="J8hBxOplMBVv3ACiszUE-44" value="" style="line;strokeWidth=1;fillColor=none;align=left;verticalAlign=middle;spacingTop=-1;spacingLeft=3;spacingRight=3;rotatable=0;labelPosition=right;points=[];portConstraint=eastwest;strokeColor=inherit;" vertex="1" parent="J8hBxOplMBVv3ACiszUE-42">
          <mxGeometry y="52" width="270" height="8" as="geometry" />
        </mxCell>
        <mxCell id="J8hBxOplMBVv3ACiszUE-45" value="LandServiceImpl(LandPersistenceService)&lt;br&gt;+&amp;nbsp;updateLand(Land): void&lt;br style=&quot;border-color: var(--border-color);&quot;&gt;+ deleteLand(int): void&lt;br style=&quot;border-color: var(--border-color);&quot;&gt;+ findLand(int): Land&lt;br style=&quot;border-color: var(--border-color);&quot;&gt;+ getAllLands(): List&amp;lt;Land&amp;gt;&lt;br style=&quot;border-color: var(--border-color);&quot;&gt;+&amp;nbsp;searchLandsByName(String): List&amp;lt;Land&amp;gt;" style="text;strokeColor=none;fillColor=#FFFFFF;align=left;verticalAlign=top;spacingLeft=4;spacingRight=4;overflow=hidden;rotatable=0;points=[[0,0.5],[1,0.5]];portConstraint=eastwest;whiteSpace=wrap;html=1;" vertex="1" parent="J8hBxOplMBVv3ACiszUE-42">
          <mxGeometry y="60" width="270" height="100" as="geometry" />
        </mxCell>
        <mxCell id="J8hBxOplMBVv3ACiszUE-46" value="" style="endArrow=block;dashed=1;endFill=0;endSize=12;html=1;rounded=0;exitX=0.75;exitY=0;exitDx=0;exitDy=0;entryX=0.25;entryY=1;entryDx=0;entryDy=0;" edge="1" parent="1" source="J8hBxOplMBVv3ACiszUE-42" target="J8hBxOplMBVv3ACiszUE-40">
          <mxGeometry width="160" relative="1" as="geometry">
            <mxPoint x="1836" y="529" as="sourcePoint" />
            <mxPoint x="1890" y="471" as="targetPoint" />
          </mxGeometry>
        </mxCell>
        <mxCell id="J8hBxOplMBVv3ACiszUE-47" value="&lt;p style=&quot;margin:0px;margin-top:4px;text-align:center;&quot;&gt;&lt;i&gt;&amp;lt;&amp;lt;interface&amp;gt;&amp;gt;&lt;/i&gt;&lt;br&gt;&lt;b&gt;LandPersistenceService&lt;/b&gt;&lt;br&gt;&lt;/p&gt;&lt;hr size=&quot;1&quot;&gt;&lt;p style=&quot;margin:0px;margin-left:4px;&quot;&gt;-&amp;nbsp;&lt;/p&gt;&lt;hr size=&quot;1&quot;&gt;&lt;p style=&quot;margin:0px;margin-left:4px;&quot;&gt;+&amp;nbsp;addLand&lt;i style=&quot;background-color: initial;&quot;&gt;(&lt;/i&gt;Land&lt;i style=&quot;background-color: initial;&quot;&gt;)&lt;/i&gt;&lt;span style=&quot;background-color: initial;&quot;&gt;: void&lt;br&gt;+&amp;nbsp;&lt;/span&gt;updateLand(Land): void&lt;br&gt;+ deleteLand(int): void&lt;br&gt;+&amp;nbsp;getLandByID&lt;span style=&quot;background-color: initial;&quot;&gt;(int): Land&lt;/span&gt;&lt;/p&gt;&lt;p style=&quot;margin:0px;margin-left:4px;&quot;&gt;+ getAllLands(): List&amp;lt;Land&amp;gt;&lt;br&gt;&lt;/p&gt;" style="verticalAlign=top;align=left;overflow=fill;fontSize=12;fontFamily=Helvetica;html=1;whiteSpace=wrap;" vertex="1" parent="1">
          <mxGeometry x="600" y="3170" width="260" height="170" as="geometry" />
        </mxCell>
        <mxCell id="J8hBxOplMBVv3ACiszUE-48" value="" style="endArrow=open;endFill=1;endSize=12;html=1;rounded=0;exitX=0.41;exitY=1.032;exitDx=0;exitDy=0;exitPerimeter=0;entryX=0.433;entryY=-0.009;entryDx=0;entryDy=0;entryPerimeter=0;" edge="1" parent="1" source="J8hBxOplMBVv3ACiszUE-45" target="J8hBxOplMBVv3ACiszUE-47">
          <mxGeometry width="160" relative="1" as="geometry">
            <mxPoint x="722" y="830" as="sourcePoint" />
            <mxPoint x="710" y="891" as="targetPoint" />
          </mxGeometry>
        </mxCell>
        <mxCell id="J8hBxOplMBVv3ACiszUE-49" value="LandPersistenceServiceImpl" style="swimlane;fontStyle=1;align=center;verticalAlign=top;childLayout=stackLayout;horizontal=1;startSize=26;horizontalStack=0;resizeParent=1;resizeParentMax=0;resizeLast=0;collapsible=1;marginBottom=0;whiteSpace=wrap;html=1;" vertex="1" parent="1">
          <mxGeometry x="570" y="3470" width="260" height="190" as="geometry" />
        </mxCell>
        <mxCell id="J8hBxOplMBVv3ACiszUE-50" value="- filePath: String" style="text;strokeColor=none;fillColor=#FFFFFF;align=left;verticalAlign=top;spacingLeft=4;spacingRight=4;overflow=hidden;rotatable=0;points=[[0,0.5],[1,0.5]];portConstraint=eastwest;whiteSpace=wrap;html=1;" vertex="1" parent="J8hBxOplMBVv3ACiszUE-49">
          <mxGeometry y="26" width="260" height="26" as="geometry" />
        </mxCell>
        <mxCell id="J8hBxOplMBVv3ACiszUE-51" value="" style="line;strokeWidth=1;fillColor=none;align=left;verticalAlign=middle;spacingTop=-1;spacingLeft=3;spacingRight=3;rotatable=0;labelPosition=right;points=[];portConstraint=eastwest;strokeColor=inherit;" vertex="1" parent="J8hBxOplMBVv3ACiszUE-49">
          <mxGeometry y="52" width="260" height="8" as="geometry" />
        </mxCell>
        <mxCell id="J8hBxOplMBVv3ACiszUE-52" value="LandPersistenceServiceImpl(String)&lt;br&gt;+ saveData(List&amp;lt;Land&amp;gt;): void&lt;br&gt;&lt;span style=&quot;background-color: initial;&quot;&gt;+&amp;nbsp;addLand&lt;/span&gt;&lt;i style=&quot;background-color: initial; border-color: var(--border-color);&quot;&gt;(&lt;/i&gt;&lt;span style=&quot;background-color: initial; border-color: var(--border-color);&quot;&gt;Land&lt;/span&gt;&lt;i style=&quot;background-color: initial; border-color: var(--border-color);&quot;&gt;)&lt;/i&gt;&lt;span style=&quot;background-color: initial;&quot;&gt;: void&lt;br&gt;&lt;/span&gt;&lt;span style=&quot;background-color: initial;&quot;&gt;+&amp;nbsp;updateLand(Land): void&lt;br&gt;&lt;/span&gt;&lt;span style=&quot;background-color: initial;&quot;&gt;+ deleteLand(int): void&lt;br&gt;&lt;/span&gt;&lt;span style=&quot;background-color: initial;&quot;&gt;+&amp;nbsp;getLandByID&lt;/span&gt;&lt;span style=&quot;background-color: initial; border-color: var(--border-color);&quot;&gt;(int): Land&lt;br&gt;&lt;span style=&quot;background-color: initial;&quot;&gt;+ getAllLands(): List&amp;lt;Land&amp;gt;&lt;/span&gt;&lt;br&gt;&lt;/span&gt;" style="text;strokeColor=none;fillColor=#FFFFFF;align=left;verticalAlign=top;spacingLeft=4;spacingRight=4;overflow=hidden;rotatable=0;points=[[0,0.5],[1,0.5]];portConstraint=eastwest;whiteSpace=wrap;html=1;" vertex="1" parent="J8hBxOplMBVv3ACiszUE-49">
          <mxGeometry y="60" width="260" height="130" as="geometry" />
        </mxCell>
        <mxCell id="J8hBxOplMBVv3ACiszUE-53" value="" style="endArrow=block;dashed=1;endFill=0;endSize=12;html=1;rounded=0;exitX=0.25;exitY=0;exitDx=0;exitDy=0;entryX=0.25;entryY=1;entryDx=0;entryDy=0;" edge="1" parent="1" source="J8hBxOplMBVv3ACiszUE-49" target="J8hBxOplMBVv3ACiszUE-47">
          <mxGeometry width="160" relative="1" as="geometry">
            <mxPoint x="2076" y="3079" as="sourcePoint" />
            <mxPoint x="1005" y="3601" as="targetPoint" />
          </mxGeometry>
        </mxCell>
        <mxCell id="J8hBxOplMBVv3ACiszUE-54" value="Connection" style="swimlane;fontStyle=1;align=center;verticalAlign=top;childLayout=stackLayout;horizontal=1;startSize=26;horizontalStack=0;resizeParent=1;resizeParentMax=0;resizeLast=0;collapsible=1;marginBottom=0;whiteSpace=wrap;html=1;" vertex="1" parent="1">
          <mxGeometry x="310" y="3730" width="160" height="86" as="geometry" />
        </mxCell>
        <mxCell id="J8hBxOplMBVv3ACiszUE-55" value="+ field: type" style="text;strokeColor=none;fillColor=#FFFFFF;align=left;verticalAlign=top;spacingLeft=4;spacingRight=4;overflow=hidden;rotatable=0;points=[[0,0.5],[1,0.5]];portConstraint=eastwest;whiteSpace=wrap;html=1;" vertex="1" parent="J8hBxOplMBVv3ACiszUE-54">
          <mxGeometry y="26" width="160" height="26" as="geometry" />
        </mxCell>
        <mxCell id="J8hBxOplMBVv3ACiszUE-56" value="" style="line;strokeWidth=1;fillColor=none;align=left;verticalAlign=middle;spacingTop=-1;spacingLeft=3;spacingRight=3;rotatable=0;labelPosition=right;points=[];portConstraint=eastwest;strokeColor=inherit;" vertex="1" parent="J8hBxOplMBVv3ACiszUE-54">
          <mxGeometry y="52" width="160" height="8" as="geometry" />
        </mxCell>
        <mxCell id="J8hBxOplMBVv3ACiszUE-57" value="+ method(type): type" style="text;strokeColor=none;fillColor=#FFFFFF;align=left;verticalAlign=top;spacingLeft=4;spacingRight=4;overflow=hidden;rotatable=0;points=[[0,0.5],[1,0.5]];portConstraint=eastwest;whiteSpace=wrap;html=1;" vertex="1" parent="J8hBxOplMBVv3ACiszUE-54">
          <mxGeometry y="60" width="160" height="26" as="geometry" />
        </mxCell>
        <mxCell id="J8hBxOplMBVv3ACiszUE-58" value="" style="endArrow=diamondThin;endFill=1;endSize=24;html=1;rounded=0;exitX=1;exitY=0;exitDx=0;exitDy=0;" edge="1" parent="1" source="J8hBxOplMBVv3ACiszUE-54" target="J8hBxOplMBVv3ACiszUE-52">
          <mxGeometry width="160" relative="1" as="geometry">
            <mxPoint x="190" y="4000" as="sourcePoint" />
            <mxPoint x="370" y="4010" as="targetPoint" />
          </mxGeometry>
        </mxCell>
        <mxCell id="J8hBxOplMBVv3ACiszUE-59" value="AddCommand" style="swimlane;fontStyle=1;align=center;verticalAlign=top;childLayout=stackLayout;horizontal=1;startSize=26;horizontalStack=0;resizeParent=1;resizeParentMax=0;resizeLast=0;collapsible=1;marginBottom=0;whiteSpace=wrap;html=1;" vertex="1" parent="1">
          <mxGeometry x="-1125" y="1090" width="285" height="110" as="geometry" />
        </mxCell>
        <mxCell id="J8hBxOplMBVv3ACiszUE-60" value="-&amp;nbsp;" style="text;strokeColor=none;fillColor=#FFFFFF;align=left;verticalAlign=top;spacingLeft=4;spacingRight=4;overflow=hidden;rotatable=0;points=[[0,0.5],[1,0.5]];portConstraint=eastwest;whiteSpace=wrap;html=1;" vertex="1" parent="J8hBxOplMBVv3ACiszUE-59">
          <mxGeometry y="26" width="285" height="26" as="geometry" />
        </mxCell>
        <mxCell id="J8hBxOplMBVv3ACiszUE-61" value="" style="line;strokeWidth=1;fillColor=none;align=left;verticalAlign=middle;spacingTop=-1;spacingLeft=3;spacingRight=3;rotatable=0;labelPosition=right;points=[];portConstraint=eastwest;strokeColor=inherit;" vertex="1" parent="J8hBxOplMBVv3ACiszUE-59">
          <mxGeometry y="52" width="285" height="8" as="geometry" />
        </mxCell>
        <mxCell id="J8hBxOplMBVv3ACiszUE-62" value="AddCommand(HouseService, House)&lt;br&gt;+ execute(): void" style="text;strokeColor=none;fillColor=#FFFFFF;align=left;verticalAlign=top;spacingLeft=4;spacingRight=4;overflow=hidden;rotatable=0;points=[[0,0.5],[1,0.5]];portConstraint=eastwest;whiteSpace=wrap;html=1;" vertex="1" parent="J8hBxOplMBVv3ACiszUE-59">
          <mxGeometry y="60" width="285" height="50" as="geometry" />
        </mxCell>
        <mxCell id="J8hBxOplMBVv3ACiszUE-63" value="&lt;p style=&quot;margin:0px;margin-top:4px;text-align:center;&quot;&gt;&lt;i&gt;&amp;lt;&amp;lt;abstract&amp;gt;&amp;gt;&lt;/i&gt;&lt;br&gt;&lt;b&gt;Command&lt;/b&gt;&lt;br&gt;&lt;/p&gt;&lt;hr size=&quot;1&quot;&gt;&lt;p style=&quot;margin:0px;margin-left:4px;&quot;&gt;- houseService: HouseService&lt;br&gt;- house: House&lt;br&gt;- landService: LandService&lt;br&gt;- land: Land&lt;br&gt;- id: int&lt;/p&gt;&lt;hr size=&quot;1&quot;&gt;&lt;p style=&quot;margin:0px;margin-left:4px;&quot;&gt;+ &lt;i&gt;execute()&lt;/i&gt;: void&lt;/p&gt;" style="verticalAlign=top;align=left;overflow=fill;fontSize=12;fontFamily=Helvetica;html=1;whiteSpace=wrap;" vertex="1" parent="1">
          <mxGeometry x="-740" y="1460" width="260" height="154" as="geometry" />
        </mxCell>
        <mxCell id="J8hBxOplMBVv3ACiszUE-64" value="" style="endArrow=block;endSize=16;endFill=0;html=1;rounded=0;exitX=0.947;exitY=0.977;exitDx=0;exitDy=0;entryX=0;entryY=0.25;entryDx=0;entryDy=0;exitPerimeter=0;" edge="1" parent="1" source="J8hBxOplMBVv3ACiszUE-62" target="J8hBxOplMBVv3ACiszUE-63">
          <mxGeometry x="-1" y="-496" width="160" relative="1" as="geometry">
            <mxPoint x="-1003.5" y="890" as="sourcePoint" />
            <mxPoint x="-1112.5" y="877" as="targetPoint" />
            <mxPoint x="402" y="310" as="offset" />
          </mxGeometry>
        </mxCell>
        <mxCell id="J8hBxOplMBVv3ACiszUE-65" value="Extends" style="edgeLabel;html=1;align=center;verticalAlign=middle;resizable=0;points=[];" vertex="1" connectable="0" parent="J8hBxOplMBVv3ACiszUE-64">
          <mxGeometry x="-0.0619" y="-2" relative="1" as="geometry">
            <mxPoint as="offset" />
          </mxGeometry>
        </mxCell>
        <mxCell id="J8hBxOplMBVv3ACiszUE-66" value="DeleteCommand" style="swimlane;fontStyle=1;align=center;verticalAlign=top;childLayout=stackLayout;horizontal=1;startSize=26;horizontalStack=0;resizeParent=1;resizeParentMax=0;resizeLast=0;collapsible=1;marginBottom=0;whiteSpace=wrap;html=1;" vertex="1" parent="1">
          <mxGeometry x="-1235" y="1210" width="285" height="110" as="geometry" />
        </mxCell>
        <mxCell id="J8hBxOplMBVv3ACiszUE-67" value="-&amp;nbsp;" style="text;strokeColor=none;fillColor=#FFFFFF;align=left;verticalAlign=top;spacingLeft=4;spacingRight=4;overflow=hidden;rotatable=0;points=[[0,0.5],[1,0.5]];portConstraint=eastwest;whiteSpace=wrap;html=1;" vertex="1" parent="J8hBxOplMBVv3ACiszUE-66">
          <mxGeometry y="26" width="285" height="26" as="geometry" />
        </mxCell>
        <mxCell id="J8hBxOplMBVv3ACiszUE-68" value="" style="line;strokeWidth=1;fillColor=none;align=left;verticalAlign=middle;spacingTop=-1;spacingLeft=3;spacingRight=3;rotatable=0;labelPosition=right;points=[];portConstraint=eastwest;strokeColor=inherit;" vertex="1" parent="J8hBxOplMBVv3ACiszUE-66">
          <mxGeometry y="52" width="285" height="8" as="geometry" />
        </mxCell>
        <mxCell id="J8hBxOplMBVv3ACiszUE-69" value="DeleteCommand(HouseService, int)&lt;br&gt;+ execute(): void" style="text;strokeColor=none;fillColor=#FFFFFF;align=left;verticalAlign=top;spacingLeft=4;spacingRight=4;overflow=hidden;rotatable=0;points=[[0,0.5],[1,0.5]];portConstraint=eastwest;whiteSpace=wrap;html=1;" vertex="1" parent="J8hBxOplMBVv3ACiszUE-66">
          <mxGeometry y="60" width="285" height="50" as="geometry" />
        </mxCell>
        <mxCell id="J8hBxOplMBVv3ACiszUE-70" value="FindByIDCommand" style="swimlane;fontStyle=1;align=center;verticalAlign=top;childLayout=stackLayout;horizontal=1;startSize=26;horizontalStack=0;resizeParent=1;resizeParentMax=0;resizeLast=0;collapsible=1;marginBottom=0;whiteSpace=wrap;html=1;" vertex="1" parent="1">
          <mxGeometry x="-1410" y="1460" width="285" height="110" as="geometry" />
        </mxCell>
        <mxCell id="J8hBxOplMBVv3ACiszUE-71" value="-&amp;nbsp;" style="text;strokeColor=none;fillColor=#FFFFFF;align=left;verticalAlign=top;spacingLeft=4;spacingRight=4;overflow=hidden;rotatable=0;points=[[0,0.5],[1,0.5]];portConstraint=eastwest;whiteSpace=wrap;html=1;" vertex="1" parent="J8hBxOplMBVv3ACiszUE-70">
          <mxGeometry y="26" width="285" height="26" as="geometry" />
        </mxCell>
        <mxCell id="J8hBxOplMBVv3ACiszUE-72" value="" style="line;strokeWidth=1;fillColor=none;align=left;verticalAlign=middle;spacingTop=-1;spacingLeft=3;spacingRight=3;rotatable=0;labelPosition=right;points=[];portConstraint=eastwest;strokeColor=inherit;" vertex="1" parent="J8hBxOplMBVv3ACiszUE-70">
          <mxGeometry y="52" width="285" height="8" as="geometry" />
        </mxCell>
        <mxCell id="J8hBxOplMBVv3ACiszUE-73" value="FindByIDCommand(HouseService, int)&lt;br&gt;+ execute(): void" style="text;strokeColor=none;fillColor=#FFFFFF;align=left;verticalAlign=top;spacingLeft=4;spacingRight=4;overflow=hidden;rotatable=0;points=[[0,0.5],[1,0.5]];portConstraint=eastwest;whiteSpace=wrap;html=1;" vertex="1" parent="J8hBxOplMBVv3ACiszUE-70">
          <mxGeometry y="60" width="285" height="50" as="geometry" />
        </mxCell>
        <mxCell id="J8hBxOplMBVv3ACiszUE-74" value="" style="endArrow=block;endSize=16;endFill=0;html=1;rounded=0;entryX=0;entryY=0.5;entryDx=0;entryDy=0;" edge="1" parent="1" source="J8hBxOplMBVv3ACiszUE-66" target="J8hBxOplMBVv3ACiszUE-63">
          <mxGeometry x="-1" y="-496" width="160" relative="1" as="geometry">
            <mxPoint x="-1085.5" y="907" as="sourcePoint" />
            <mxPoint x="-511" y="708" as="targetPoint" />
            <mxPoint x="402" y="310" as="offset" />
          </mxGeometry>
        </mxCell>
        <mxCell id="J8hBxOplMBVv3ACiszUE-75" value="Extends" style="edgeLabel;html=1;align=center;verticalAlign=middle;resizable=0;points=[];" vertex="1" connectable="0" parent="J8hBxOplMBVv3ACiszUE-74">
          <mxGeometry x="-0.0619" y="-2" relative="1" as="geometry">
            <mxPoint as="offset" />
          </mxGeometry>
        </mxCell>
        <mxCell id="J8hBxOplMBVv3ACiszUE-76" value="" style="endArrow=block;endSize=16;endFill=0;html=1;rounded=0;exitX=0.997;exitY=0.145;exitDx=0;exitDy=0;entryX=-0.005;entryY=0.837;entryDx=0;entryDy=0;exitPerimeter=0;entryPerimeter=0;" edge="1" parent="1" source="J8hBxOplMBVv3ACiszUE-70" target="J8hBxOplMBVv3ACiszUE-63">
          <mxGeometry x="-1" y="-496" width="160" relative="1" as="geometry">
            <mxPoint x="-1082.5" y="1013" as="sourcePoint" />
            <mxPoint x="-1158.5" y="1012" as="targetPoint" />
            <mxPoint x="402" y="310" as="offset" />
          </mxGeometry>
        </mxCell>
        <mxCell id="J8hBxOplMBVv3ACiszUE-77" value="Extends" style="edgeLabel;html=1;align=center;verticalAlign=middle;resizable=0;points=[];" vertex="1" connectable="0" parent="J8hBxOplMBVv3ACiszUE-76">
          <mxGeometry x="-0.0619" y="-2" relative="1" as="geometry">
            <mxPoint as="offset" />
          </mxGeometry>
        </mxCell>
        <mxCell id="J8hBxOplMBVv3ACiszUE-78" value="UpdateCommand" style="swimlane;fontStyle=1;align=center;verticalAlign=top;childLayout=stackLayout;horizontal=1;startSize=26;horizontalStack=0;resizeParent=1;resizeParentMax=0;resizeLast=0;collapsible=1;marginBottom=0;whiteSpace=wrap;html=1;" vertex="1" parent="1">
          <mxGeometry x="-1410" y="1330" width="285" height="110" as="geometry" />
        </mxCell>
        <mxCell id="J8hBxOplMBVv3ACiszUE-79" value="-&amp;nbsp;" style="text;strokeColor=none;fillColor=#FFFFFF;align=left;verticalAlign=top;spacingLeft=4;spacingRight=4;overflow=hidden;rotatable=0;points=[[0,0.5],[1,0.5]];portConstraint=eastwest;whiteSpace=wrap;html=1;" vertex="1" parent="J8hBxOplMBVv3ACiszUE-78">
          <mxGeometry y="26" width="285" height="26" as="geometry" />
        </mxCell>
        <mxCell id="J8hBxOplMBVv3ACiszUE-80" value="" style="line;strokeWidth=1;fillColor=none;align=left;verticalAlign=middle;spacingTop=-1;spacingLeft=3;spacingRight=3;rotatable=0;labelPosition=right;points=[];portConstraint=eastwest;strokeColor=inherit;" vertex="1" parent="J8hBxOplMBVv3ACiszUE-78">
          <mxGeometry y="52" width="285" height="8" as="geometry" />
        </mxCell>
        <mxCell id="J8hBxOplMBVv3ACiszUE-81" value="UpdateCommand(HouseService, House)&lt;br&gt;+ execute(): void" style="text;strokeColor=none;fillColor=#FFFFFF;align=left;verticalAlign=top;spacingLeft=4;spacingRight=4;overflow=hidden;rotatable=0;points=[[0,0.5],[1,0.5]];portConstraint=eastwest;whiteSpace=wrap;html=1;" vertex="1" parent="J8hBxOplMBVv3ACiszUE-78">
          <mxGeometry y="60" width="285" height="50" as="geometry" />
        </mxCell>
        <mxCell id="J8hBxOplMBVv3ACiszUE-82" value="" style="endArrow=block;endSize=16;endFill=0;html=1;rounded=0;exitX=0.997;exitY=0.145;exitDx=0;exitDy=0;entryX=0;entryY=0.75;entryDx=0;entryDy=0;exitPerimeter=0;" edge="1" parent="1" source="J8hBxOplMBVv3ACiszUE-78" target="J8hBxOplMBVv3ACiszUE-63">
          <mxGeometry x="-1" y="-496" width="160" relative="1" as="geometry">
            <mxPoint x="-1082.5" y="883" as="sourcePoint" />
            <mxPoint x="-770" y="650" as="targetPoint" />
            <mxPoint x="402" y="310" as="offset" />
          </mxGeometry>
        </mxCell>
        <mxCell id="J8hBxOplMBVv3ACiszUE-83" value="Extends" style="edgeLabel;html=1;align=center;verticalAlign=middle;resizable=0;points=[];" vertex="1" connectable="0" parent="J8hBxOplMBVv3ACiszUE-82">
          <mxGeometry x="-0.0619" y="-2" relative="1" as="geometry">
            <mxPoint as="offset" />
          </mxGeometry>
        </mxCell>
        <mxCell id="J8hBxOplMBVv3ACiszUE-84" value="CommandProcessor&lt;br&gt;" style="swimlane;fontStyle=1;align=center;verticalAlign=top;childLayout=stackLayout;horizontal=1;startSize=26;horizontalStack=0;resizeParent=1;resizeParentMax=0;resizeLast=0;collapsible=1;marginBottom=0;whiteSpace=wrap;html=1;" vertex="1" parent="1">
          <mxGeometry x="-500" y="1290" width="285" height="130" as="geometry" />
        </mxCell>
        <mxCell id="J8hBxOplMBVv3ACiszUE-85" value="- commandProcessor: CommandProcessor" style="text;strokeColor=none;fillColor=#FFFFFF;align=left;verticalAlign=top;spacingLeft=4;spacingRight=4;overflow=hidden;rotatable=0;points=[[0,0.5],[1,0.5]];portConstraint=eastwest;whiteSpace=wrap;html=1;" vertex="1" parent="J8hBxOplMBVv3ACiszUE-84">
          <mxGeometry y="26" width="285" height="26" as="geometry" />
        </mxCell>
        <mxCell id="J8hBxOplMBVv3ACiszUE-86" value="" style="line;strokeWidth=1;fillColor=none;align=left;verticalAlign=middle;spacingTop=-1;spacingLeft=3;spacingRight=3;rotatable=0;labelPosition=right;points=[];portConstraint=eastwest;strokeColor=inherit;" vertex="1" parent="J8hBxOplMBVv3ACiszUE-84">
          <mxGeometry y="52" width="285" height="8" as="geometry" />
        </mxCell>
        <mxCell id="J8hBxOplMBVv3ACiszUE-87" value="CommandProcessor()&lt;br&gt;+ makeCommandProcessor(): CommandProcessor&lt;br&gt;+ execute(Command): void" style="text;strokeColor=none;fillColor=#FFFFFF;align=left;verticalAlign=top;spacingLeft=4;spacingRight=4;overflow=hidden;rotatable=0;points=[[0,0.5],[1,0.5]];portConstraint=eastwest;whiteSpace=wrap;html=1;" vertex="1" parent="J8hBxOplMBVv3ACiszUE-84">
          <mxGeometry y="60" width="285" height="70" as="geometry" />
        </mxCell>
        <mxCell id="J8hBxOplMBVv3ACiszUE-88" value="Use" style="endArrow=open;endSize=12;dashed=1;html=1;rounded=0;exitX=-0.002;exitY=0.966;exitDx=0;exitDy=0;exitPerimeter=0;" edge="1" parent="1" source="J8hBxOplMBVv3ACiszUE-85" target="J8hBxOplMBVv3ACiszUE-63">
          <mxGeometry width="160" relative="1" as="geometry">
            <mxPoint x="-260" y="680" as="sourcePoint" />
            <mxPoint x="-100" y="680" as="targetPoint" />
          </mxGeometry>
        </mxCell>
        <mxCell id="J8hBxOplMBVv3ACiszUE-89" value="" style="endArrow=open;endFill=1;endSize=12;html=1;rounded=0;exitX=0.009;exitY=0.196;exitDx=0;exitDy=0;exitPerimeter=0;entryX=1;entryY=0.5;entryDx=0;entryDy=0;" edge="1" parent="1" source="J8hBxOplMBVv3ACiszUE-9" target="J8hBxOplMBVv3ACiszUE-85">
          <mxGeometry width="160" relative="1" as="geometry">
            <mxPoint x="-380" y="890" as="sourcePoint" />
            <mxPoint x="-220" y="890" as="targetPoint" />
          </mxGeometry>
        </mxCell>
        <mxCell id="J8hBxOplMBVv3ACiszUE-90" value="&lt;p style=&quot;margin:0px;margin-top:4px;text-align:center;&quot;&gt;&lt;i&gt;&amp;lt;&amp;lt;Interface&amp;gt;&amp;gt;&lt;/i&gt;&lt;br&gt;&lt;b&gt;Subcriber&lt;/b&gt;&lt;/p&gt;&lt;hr size=&quot;1&quot; style=&quot;border-style:solid;&quot;&gt;&lt;p style=&quot;margin:0px;margin-left:4px;&quot;&gt;-&amp;nbsp;&lt;/p&gt;&lt;hr size=&quot;1&quot; style=&quot;border-style:solid;&quot;&gt;&lt;p style=&quot;margin:0px;margin-left:4px;&quot;&gt;+ update(): void&lt;/p&gt;" style="verticalAlign=top;align=left;overflow=fill;html=1;whiteSpace=wrap;" vertex="1" parent="1">
          <mxGeometry x="-462.5" y="2320" width="170" height="101.24" as="geometry" />
        </mxCell>
        <mxCell id="J8hBxOplMBVv3ACiszUE-91" value="" style="endArrow=block;dashed=1;endFill=0;endSize=12;html=1;rounded=0;entryX=0.708;entryY=-0.025;entryDx=0;entryDy=0;entryPerimeter=0;exitX=0;exitY=0.978;exitDx=0;exitDy=0;exitPerimeter=0;" edge="1" parent="1" source="J8hBxOplMBVv3ACiszUE-9" target="J8hBxOplMBVv3ACiszUE-90">
          <mxGeometry width="160" relative="1" as="geometry">
            <mxPoint x="-570" y="880" as="sourcePoint" />
            <mxPoint x="-670" y="937.5" as="targetPoint" />
          </mxGeometry>
        </mxCell>
        <mxCell id="J8hBxOplMBVv3ACiszUE-92" value="&lt;p style=&quot;margin:0px;margin-top:4px;text-align:center;&quot;&gt;&lt;b&gt;Publisher&lt;/b&gt;&lt;/p&gt;&lt;hr size=&quot;1&quot; style=&quot;border-style:solid;&quot;&gt;&lt;p style=&quot;margin:0px;margin-left:4px;&quot;&gt;- subcribers: List&amp;lt;Subcriber&amp;gt;&lt;/p&gt;&lt;hr size=&quot;1&quot; style=&quot;border-style:solid;&quot;&gt;&lt;p style=&quot;margin:0px;margin-left:4px;&quot;&gt;+ subcribe(Subcriber): void&lt;br&gt;+ unsubcribe(Subcriber): void&lt;/p&gt;&lt;p style=&quot;margin:0px;margin-left:4px;&quot;&gt;+ notifySubcribers(): void&lt;/p&gt;" style="verticalAlign=top;align=left;overflow=fill;html=1;whiteSpace=wrap;" vertex="1" parent="1">
          <mxGeometry x="-472.5" y="2540" width="170" height="120" as="geometry" />
        </mxCell>
        <mxCell id="J8hBxOplMBVv3ACiszUE-93" value="Extends" style="endArrow=block;endSize=16;endFill=0;html=1;rounded=0;exitX=0.001;exitY=0.086;exitDx=0;exitDy=0;exitPerimeter=0;entryX=1;entryY=0.75;entryDx=0;entryDy=0;" edge="1" parent="1" source="J8hBxOplMBVv3ACiszUE-31" target="J8hBxOplMBVv3ACiszUE-92">
          <mxGeometry width="160" relative="1" as="geometry">
            <mxPoint x="-281" y="1140" as="sourcePoint" />
            <mxPoint x="-220" y="1332" as="targetPoint" />
          </mxGeometry>
        </mxCell>
        <mxCell id="J8hBxOplMBVv3ACiszUE-94" value="" style="endArrow=diamondThin;endFill=0;endSize=24;html=1;rounded=0;entryX=0.5;entryY=0;entryDx=0;entryDy=0;exitX=0.5;exitY=1;exitDx=0;exitDy=0;" edge="1" parent="1" source="J8hBxOplMBVv3ACiszUE-90" target="J8hBxOplMBVv3ACiszUE-92">
          <mxGeometry width="160" relative="1" as="geometry">
            <mxPoint x="-622.5" y="2497" as="sourcePoint" />
            <mxPoint x="-452.5" y="2517" as="targetPoint" />
          </mxGeometry>
        </mxCell>
        <mxCell id="J8hBxOplMBVv3ACiszUE-95" value="" style="endArrow=open;endFill=1;endSize=12;html=1;rounded=0;entryX=0;entryY=0;entryDx=0;entryDy=0;" edge="1" parent="1" source="J8hBxOplMBVv3ACiszUE-63" target="J8hBxOplMBVv3ACiszUE-20">
          <mxGeometry width="160" relative="1" as="geometry">
            <mxPoint x="-560" y="830" as="sourcePoint" />
            <mxPoint x="-400" y="830" as="targetPoint" />
          </mxGeometry>
        </mxCell>
        <mxCell id="J8hBxOplMBVv3ACiszUE-96" value="" style="endArrow=block;dashed=1;endFill=0;endSize=12;html=1;rounded=0;entryX=0.25;entryY=1;entryDx=0;entryDy=0;exitX=0.786;exitY=-0.009;exitDx=0;exitDy=0;exitPerimeter=0;" edge="1" parent="1" source="J8hBxOplMBVv3ACiszUE-1" target="J8hBxOplMBVv3ACiszUE-7">
          <mxGeometry width="160" relative="1" as="geometry">
            <mxPoint x="560" y="226" as="sourcePoint" />
            <mxPoint x="700" y="150" as="targetPoint" />
          </mxGeometry>
        </mxCell>
        <mxCell id="J8hBxOplMBVv3ACiszUE-97" value="" style="endArrow=block;dashed=1;endFill=0;endSize=12;html=1;rounded=0;entryX=0.5;entryY=1;entryDx=0;entryDy=0;exitX=0.004;exitY=0.046;exitDx=0;exitDy=0;exitPerimeter=0;" edge="1" parent="1" source="J8hBxOplMBVv3ACiszUE-8" target="J8hBxOplMBVv3ACiszUE-98">
          <mxGeometry width="160" relative="1" as="geometry">
            <mxPoint x="-210" y="600" as="sourcePoint" />
            <mxPoint x="-260" y="360" as="targetPoint" />
          </mxGeometry>
        </mxCell>
        <mxCell id="J8hBxOplMBVv3ACiszUE-98" value="&lt;p style=&quot;margin:0px;margin-top:4px;text-align:center;&quot;&gt;&lt;b&gt;java.awt.event&lt;br&gt;&lt;/b&gt;&lt;b&gt;ListSelectionListener&lt;/b&gt;&lt;/p&gt;&lt;hr size=&quot;1&quot; style=&quot;border-style:solid;&quot;&gt;&lt;p style=&quot;margin:0px;margin-left:4px;&quot;&gt;-&amp;nbsp;&lt;/p&gt;&lt;hr size=&quot;1&quot; style=&quot;border-style:solid;&quot;&gt;&lt;p style=&quot;margin:0px;margin-left:4px;&quot;&gt;+&amp;nbsp;&lt;/p&gt;" style="verticalAlign=top;align=left;overflow=fill;html=1;whiteSpace=wrap;" vertex="1" parent="1">
          <mxGeometry x="-370" y="1030" width="160" height="110" as="geometry" />
        </mxCell>
        <mxCell id="J8hBxOplMBVv3ACiszUE-99" value="&lt;p style=&quot;margin:0px;margin-top:4px;text-align:center;&quot;&gt;&lt;i&gt;&amp;lt;&amp;lt;Interface&amp;gt;&amp;gt;&lt;/i&gt;&lt;br&gt;&lt;b&gt;Subcriber&lt;/b&gt;&lt;/p&gt;&lt;hr size=&quot;1&quot; style=&quot;border-style:solid;&quot;&gt;&lt;p style=&quot;margin:0px;margin-left:4px;&quot;&gt;-&amp;nbsp;&lt;/p&gt;&lt;hr size=&quot;1&quot; style=&quot;border-style:solid;&quot;&gt;&lt;p style=&quot;margin:0px;margin-left:4px;&quot;&gt;+ update(): void&lt;/p&gt;" style="verticalAlign=top;align=left;overflow=fill;html=1;whiteSpace=wrap;" vertex="1" parent="1">
          <mxGeometry x="1190" y="2320" width="170" height="101.24" as="geometry" />
        </mxCell>
        <mxCell id="J8hBxOplMBVv3ACiszUE-100" value="" style="endArrow=block;dashed=1;endFill=0;endSize=12;html=1;rounded=0;entryX=0.708;entryY=-0.025;entryDx=0;entryDy=0;entryPerimeter=0;exitX=0.949;exitY=1.029;exitDx=0;exitDy=0;exitPerimeter=0;" edge="1" parent="1" source="J8hBxOplMBVv3ACiszUE-17" target="J8hBxOplMBVv3ACiszUE-99">
          <mxGeometry width="160" relative="1" as="geometry">
            <mxPoint x="1340" y="650" as="sourcePoint" />
            <mxPoint x="790" y="880.5" as="targetPoint" />
          </mxGeometry>
        </mxCell>
        <mxCell id="J8hBxOplMBVv3ACiszUE-101" value="&lt;p style=&quot;margin:0px;margin-top:4px;text-align:center;&quot;&gt;&lt;b&gt;Publisher&lt;/b&gt;&lt;/p&gt;&lt;hr size=&quot;1&quot; style=&quot;border-style:solid;&quot;&gt;&lt;p style=&quot;margin:0px;margin-left:4px;&quot;&gt;- subcribers: List&amp;lt;Subcriber&amp;gt;&lt;/p&gt;&lt;hr size=&quot;1&quot; style=&quot;border-style:solid;&quot;&gt;&lt;p style=&quot;margin:0px;margin-left:4px;&quot;&gt;+ subcribe(Subcriber): void&lt;br&gt;+ unsubcribe(Subcriber): void&lt;/p&gt;&lt;p style=&quot;margin:0px;margin-left:4px;&quot;&gt;+ notifySubcribers(): void&lt;/p&gt;" style="verticalAlign=top;align=left;overflow=fill;html=1;whiteSpace=wrap;" vertex="1" parent="1">
          <mxGeometry x="1180" y="2520" width="170" height="120" as="geometry" />
        </mxCell>
        <mxCell id="J8hBxOplMBVv3ACiszUE-102" value="Extends" style="endArrow=block;endSize=16;endFill=0;html=1;rounded=0;exitX=1.023;exitY=0.12;exitDx=0;exitDy=0;exitPerimeter=0;entryX=0;entryY=0.75;entryDx=0;entryDy=0;" edge="1" parent="1" source="J8hBxOplMBVv3ACiszUE-45" target="J8hBxOplMBVv3ACiszUE-101">
          <mxGeometry width="160" relative="1" as="geometry">
            <mxPoint x="1440" y="1182" as="sourcePoint" />
            <mxPoint x="1240" y="1275" as="targetPoint" />
          </mxGeometry>
        </mxCell>
        <mxCell id="J8hBxOplMBVv3ACiszUE-103" value="" style="endArrow=diamondThin;endFill=0;endSize=24;html=1;rounded=0;entryX=0.5;entryY=0;entryDx=0;entryDy=0;exitX=0.5;exitY=1;exitDx=0;exitDy=0;" edge="1" parent="1" source="J8hBxOplMBVv3ACiszUE-99" target="J8hBxOplMBVv3ACiszUE-101">
          <mxGeometry width="160" relative="1" as="geometry">
            <mxPoint x="720" y="1097" as="sourcePoint" />
            <mxPoint x="890" y="1117" as="targetPoint" />
          </mxGeometry>
        </mxCell>
        <mxCell id="J8hBxOplMBVv3ACiszUE-104" value="" style="endArrow=block;dashed=1;endFill=0;endSize=12;html=1;rounded=0;entryX=0.5;entryY=1;entryDx=0;entryDy=0;exitX=0.5;exitY=0;exitDx=0;exitDy=0;" edge="1" parent="1" source="J8hBxOplMBVv3ACiszUE-14" target="J8hBxOplMBVv3ACiszUE-105">
          <mxGeometry width="160" relative="1" as="geometry">
            <mxPoint x="900" y="510" as="sourcePoint" />
            <mxPoint x="759" y="288" as="targetPoint" />
          </mxGeometry>
        </mxCell>
        <mxCell id="J8hBxOplMBVv3ACiszUE-105" value="&lt;p style=&quot;margin:0px;margin-top:4px;text-align:center;&quot;&gt;&lt;b&gt;java.awt.event&lt;br&gt;&lt;/b&gt;&lt;b&gt;ListSelectionListener&lt;/b&gt;&lt;/p&gt;&lt;hr size=&quot;1&quot; style=&quot;border-style:solid;&quot;&gt;&lt;p style=&quot;margin:0px;margin-left:4px;&quot;&gt;-&amp;nbsp;&lt;/p&gt;&lt;hr size=&quot;1&quot; style=&quot;border-style:solid;&quot;&gt;&lt;p style=&quot;margin:0px;margin-left:4px;&quot;&gt;+&amp;nbsp;&lt;/p&gt;" style="verticalAlign=top;align=left;overflow=fill;html=1;whiteSpace=wrap;" vertex="1" parent="1">
          <mxGeometry x="730" y="1030" width="160" height="110" as="geometry" />
        </mxCell>
        <mxCell id="J8hBxOplMBVv3ACiszUE-106" value="AddCommand" style="swimlane;fontStyle=1;align=center;verticalAlign=top;childLayout=stackLayout;horizontal=1;startSize=26;horizontalStack=0;resizeParent=1;resizeParentMax=0;resizeLast=0;collapsible=1;marginBottom=0;whiteSpace=wrap;html=1;" vertex="1" parent="1">
          <mxGeometry x="1670" y="1050" width="285" height="110" as="geometry" />
        </mxCell>
        <mxCell id="J8hBxOplMBVv3ACiszUE-107" value="-&amp;nbsp;" style="text;strokeColor=none;fillColor=#FFFFFF;align=left;verticalAlign=top;spacingLeft=4;spacingRight=4;overflow=hidden;rotatable=0;points=[[0,0.5],[1,0.5]];portConstraint=eastwest;whiteSpace=wrap;html=1;" vertex="1" parent="J8hBxOplMBVv3ACiszUE-106">
          <mxGeometry y="26" width="285" height="26" as="geometry" />
        </mxCell>
        <mxCell id="J8hBxOplMBVv3ACiszUE-108" value="" style="line;strokeWidth=1;fillColor=none;align=left;verticalAlign=middle;spacingTop=-1;spacingLeft=3;spacingRight=3;rotatable=0;labelPosition=right;points=[];portConstraint=eastwest;strokeColor=inherit;" vertex="1" parent="J8hBxOplMBVv3ACiszUE-106">
          <mxGeometry y="52" width="285" height="8" as="geometry" />
        </mxCell>
        <mxCell id="J8hBxOplMBVv3ACiszUE-109" value="AddCommand(HouseService, House)&lt;br&gt;+ execute(): void" style="text;strokeColor=none;fillColor=#FFFFFF;align=left;verticalAlign=top;spacingLeft=4;spacingRight=4;overflow=hidden;rotatable=0;points=[[0,0.5],[1,0.5]];portConstraint=eastwest;whiteSpace=wrap;html=1;" vertex="1" parent="J8hBxOplMBVv3ACiszUE-106">
          <mxGeometry y="60" width="285" height="50" as="geometry" />
        </mxCell>
        <mxCell id="J8hBxOplMBVv3ACiszUE-110" value="&lt;p style=&quot;margin:0px;margin-top:4px;text-align:center;&quot;&gt;&lt;i&gt;&amp;lt;&amp;lt;abstract&amp;gt;&amp;gt;&lt;/i&gt;&lt;br&gt;&lt;b&gt;Command&lt;/b&gt;&lt;br&gt;&lt;/p&gt;&lt;hr size=&quot;1&quot;&gt;&lt;p style=&quot;margin:0px;margin-left:4px;&quot;&gt;- houseService: HouseService&lt;br&gt;- house: House&lt;br&gt;- landService: LandService&lt;br&gt;- land: Land&lt;br&gt;- id: int&lt;/p&gt;&lt;hr size=&quot;1&quot;&gt;&lt;p style=&quot;margin:0px;margin-left:4px;&quot;&gt;+ &lt;i&gt;execute()&lt;/i&gt;: void&lt;/p&gt;" style="verticalAlign=top;align=left;overflow=fill;fontSize=12;fontFamily=Helvetica;html=1;whiteSpace=wrap;" vertex="1" parent="1">
          <mxGeometry x="1310" y="1570" width="260" height="154" as="geometry" />
        </mxCell>
        <mxCell id="J8hBxOplMBVv3ACiszUE-111" value="" style="endArrow=block;endSize=16;endFill=0;html=1;rounded=0;exitX=-0.011;exitY=1.183;exitDx=0;exitDy=0;entryX=0.857;entryY=-0.015;entryDx=0;entryDy=0;exitPerimeter=0;entryPerimeter=0;" edge="1" parent="1" source="J8hBxOplMBVv3ACiszUE-107" target="J8hBxOplMBVv3ACiszUE-110">
          <mxGeometry x="-1" y="-496" width="160" relative="1" as="geometry">
            <mxPoint x="1686.5" y="910" as="sourcePoint" />
            <mxPoint x="1577.5" y="897" as="targetPoint" />
            <mxPoint x="402" y="310" as="offset" />
          </mxGeometry>
        </mxCell>
        <mxCell id="J8hBxOplMBVv3ACiszUE-112" value="Extends" style="edgeLabel;html=1;align=center;verticalAlign=middle;resizable=0;points=[];" vertex="1" connectable="0" parent="J8hBxOplMBVv3ACiszUE-111">
          <mxGeometry x="-0.0619" y="-2" relative="1" as="geometry">
            <mxPoint as="offset" />
          </mxGeometry>
        </mxCell>
        <mxCell id="J8hBxOplMBVv3ACiszUE-113" value="DeleteCommand" style="swimlane;fontStyle=1;align=center;verticalAlign=top;childLayout=stackLayout;horizontal=1;startSize=26;horizontalStack=0;resizeParent=1;resizeParentMax=0;resizeLast=0;collapsible=1;marginBottom=0;whiteSpace=wrap;html=1;" vertex="1" parent="1">
          <mxGeometry x="1740" y="1180" width="285" height="110" as="geometry" />
        </mxCell>
        <mxCell id="J8hBxOplMBVv3ACiszUE-114" value="-&amp;nbsp;" style="text;strokeColor=none;fillColor=#FFFFFF;align=left;verticalAlign=top;spacingLeft=4;spacingRight=4;overflow=hidden;rotatable=0;points=[[0,0.5],[1,0.5]];portConstraint=eastwest;whiteSpace=wrap;html=1;" vertex="1" parent="J8hBxOplMBVv3ACiszUE-113">
          <mxGeometry y="26" width="285" height="26" as="geometry" />
        </mxCell>
        <mxCell id="J8hBxOplMBVv3ACiszUE-115" value="" style="line;strokeWidth=1;fillColor=none;align=left;verticalAlign=middle;spacingTop=-1;spacingLeft=3;spacingRight=3;rotatable=0;labelPosition=right;points=[];portConstraint=eastwest;strokeColor=inherit;" vertex="1" parent="J8hBxOplMBVv3ACiszUE-113">
          <mxGeometry y="52" width="285" height="8" as="geometry" />
        </mxCell>
        <mxCell id="J8hBxOplMBVv3ACiszUE-116" value="DeleteCommand(HouseService, int)&lt;br&gt;+ execute(): void" style="text;strokeColor=none;fillColor=#FFFFFF;align=left;verticalAlign=top;spacingLeft=4;spacingRight=4;overflow=hidden;rotatable=0;points=[[0,0.5],[1,0.5]];portConstraint=eastwest;whiteSpace=wrap;html=1;" vertex="1" parent="J8hBxOplMBVv3ACiszUE-113">
          <mxGeometry y="60" width="285" height="50" as="geometry" />
        </mxCell>
        <mxCell id="J8hBxOplMBVv3ACiszUE-117" value="FindByIDCommand" style="swimlane;fontStyle=1;align=center;verticalAlign=top;childLayout=stackLayout;horizontal=1;startSize=26;horizontalStack=0;resizeParent=1;resizeParentMax=0;resizeLast=0;collapsible=1;marginBottom=0;whiteSpace=wrap;html=1;" vertex="1" parent="1">
          <mxGeometry x="1880" y="1430" width="285" height="110" as="geometry" />
        </mxCell>
        <mxCell id="J8hBxOplMBVv3ACiszUE-118" value="-&amp;nbsp;" style="text;strokeColor=none;fillColor=#FFFFFF;align=left;verticalAlign=top;spacingLeft=4;spacingRight=4;overflow=hidden;rotatable=0;points=[[0,0.5],[1,0.5]];portConstraint=eastwest;whiteSpace=wrap;html=1;" vertex="1" parent="J8hBxOplMBVv3ACiszUE-117">
          <mxGeometry y="26" width="285" height="26" as="geometry" />
        </mxCell>
        <mxCell id="J8hBxOplMBVv3ACiszUE-119" value="" style="line;strokeWidth=1;fillColor=none;align=left;verticalAlign=middle;spacingTop=-1;spacingLeft=3;spacingRight=3;rotatable=0;labelPosition=right;points=[];portConstraint=eastwest;strokeColor=inherit;" vertex="1" parent="J8hBxOplMBVv3ACiszUE-117">
          <mxGeometry y="52" width="285" height="8" as="geometry" />
        </mxCell>
        <mxCell id="J8hBxOplMBVv3ACiszUE-120" value="FindByIDCommand(HouseService, int)&lt;br&gt;+ execute(): void" style="text;strokeColor=none;fillColor=#FFFFFF;align=left;verticalAlign=top;spacingLeft=4;spacingRight=4;overflow=hidden;rotatable=0;points=[[0,0.5],[1,0.5]];portConstraint=eastwest;whiteSpace=wrap;html=1;" vertex="1" parent="J8hBxOplMBVv3ACiszUE-117">
          <mxGeometry y="60" width="285" height="50" as="geometry" />
        </mxCell>
        <mxCell id="J8hBxOplMBVv3ACiszUE-121" value="" style="endArrow=block;endSize=16;endFill=0;html=1;rounded=0;entryX=1.011;entryY=0.078;entryDx=0;entryDy=0;entryPerimeter=0;" edge="1" parent="1" source="J8hBxOplMBVv3ACiszUE-113" target="J8hBxOplMBVv3ACiszUE-110">
          <mxGeometry x="-1" y="-496" width="160" relative="1" as="geometry">
            <mxPoint x="1604.5" y="927" as="sourcePoint" />
            <mxPoint x="2179" y="728" as="targetPoint" />
            <mxPoint x="402" y="310" as="offset" />
          </mxGeometry>
        </mxCell>
        <mxCell id="J8hBxOplMBVv3ACiszUE-122" value="Extends" style="edgeLabel;html=1;align=center;verticalAlign=middle;resizable=0;points=[];" vertex="1" connectable="0" parent="J8hBxOplMBVv3ACiszUE-121">
          <mxGeometry x="-0.0619" y="-2" relative="1" as="geometry">
            <mxPoint as="offset" />
          </mxGeometry>
        </mxCell>
        <mxCell id="J8hBxOplMBVv3ACiszUE-123" value="" style="endArrow=block;endSize=16;endFill=0;html=1;rounded=0;exitX=0;exitY=0.289;exitDx=0;exitDy=0;entryX=1;entryY=0.662;entryDx=0;entryDy=0;exitPerimeter=0;entryPerimeter=0;" edge="1" parent="1" source="J8hBxOplMBVv3ACiszUE-120" target="J8hBxOplMBVv3ACiszUE-110">
          <mxGeometry x="-1" y="-496" width="160" relative="1" as="geometry">
            <mxPoint x="1607.5" y="1033" as="sourcePoint" />
            <mxPoint x="1531.5" y="1032" as="targetPoint" />
            <mxPoint x="402" y="310" as="offset" />
          </mxGeometry>
        </mxCell>
        <mxCell id="J8hBxOplMBVv3ACiszUE-124" value="Extends" style="edgeLabel;html=1;align=center;verticalAlign=middle;resizable=0;points=[];" vertex="1" connectable="0" parent="J8hBxOplMBVv3ACiszUE-123">
          <mxGeometry x="-0.0619" y="-2" relative="1" as="geometry">
            <mxPoint as="offset" />
          </mxGeometry>
        </mxCell>
        <mxCell id="J8hBxOplMBVv3ACiszUE-125" value="UpdateCommand" style="swimlane;fontStyle=1;align=center;verticalAlign=top;childLayout=stackLayout;horizontal=1;startSize=26;horizontalStack=0;resizeParent=1;resizeParentMax=0;resizeLast=0;collapsible=1;marginBottom=0;whiteSpace=wrap;html=1;" vertex="1" parent="1">
          <mxGeometry x="1880" y="1300" width="285" height="110" as="geometry" />
        </mxCell>
        <mxCell id="J8hBxOplMBVv3ACiszUE-126" value="-&amp;nbsp;" style="text;strokeColor=none;fillColor=#FFFFFF;align=left;verticalAlign=top;spacingLeft=4;spacingRight=4;overflow=hidden;rotatable=0;points=[[0,0.5],[1,0.5]];portConstraint=eastwest;whiteSpace=wrap;html=1;" vertex="1" parent="J8hBxOplMBVv3ACiszUE-125">
          <mxGeometry y="26" width="285" height="26" as="geometry" />
        </mxCell>
        <mxCell id="J8hBxOplMBVv3ACiszUE-127" value="" style="line;strokeWidth=1;fillColor=none;align=left;verticalAlign=middle;spacingTop=-1;spacingLeft=3;spacingRight=3;rotatable=0;labelPosition=right;points=[];portConstraint=eastwest;strokeColor=inherit;" vertex="1" parent="J8hBxOplMBVv3ACiszUE-125">
          <mxGeometry y="52" width="285" height="8" as="geometry" />
        </mxCell>
        <mxCell id="J8hBxOplMBVv3ACiszUE-128" value="UpdateCommand(HouseService, House)&lt;br&gt;+ execute(): void" style="text;strokeColor=none;fillColor=#FFFFFF;align=left;verticalAlign=top;spacingLeft=4;spacingRight=4;overflow=hidden;rotatable=0;points=[[0,0.5],[1,0.5]];portConstraint=eastwest;whiteSpace=wrap;html=1;" vertex="1" parent="J8hBxOplMBVv3ACiszUE-125">
          <mxGeometry y="60" width="285" height="50" as="geometry" />
        </mxCell>
        <mxCell id="J8hBxOplMBVv3ACiszUE-129" value="" style="endArrow=block;endSize=16;endFill=0;html=1;rounded=0;entryX=1;entryY=0.365;entryDx=0;entryDy=0;exitX=0;exitY=0.5;exitDx=0;exitDy=0;entryPerimeter=0;" edge="1" parent="1" source="J8hBxOplMBVv3ACiszUE-126" target="J8hBxOplMBVv3ACiszUE-110">
          <mxGeometry x="-1" y="-496" width="160" relative="1" as="geometry">
            <mxPoint x="1607.5" y="903" as="sourcePoint" />
            <mxPoint x="1920" y="670" as="targetPoint" />
            <mxPoint x="402" y="310" as="offset" />
          </mxGeometry>
        </mxCell>
        <mxCell id="J8hBxOplMBVv3ACiszUE-130" value="Extends" style="edgeLabel;html=1;align=center;verticalAlign=middle;resizable=0;points=[];" vertex="1" connectable="0" parent="J8hBxOplMBVv3ACiszUE-129">
          <mxGeometry x="-0.0619" y="-2" relative="1" as="geometry">
            <mxPoint as="offset" />
          </mxGeometry>
        </mxCell>
        <mxCell id="J8hBxOplMBVv3ACiszUE-131" value="Use" style="endArrow=open;endSize=12;dashed=1;html=1;rounded=0;exitX=0.884;exitY=1.029;exitDx=0;exitDy=0;exitPerimeter=0;" edge="1" parent="1" source="J8hBxOplMBVv3ACiszUE-136" target="J8hBxOplMBVv3ACiszUE-110">
          <mxGeometry width="160" relative="1" as="geometry">
            <mxPoint x="1120" y="730" as="sourcePoint" />
            <mxPoint x="2420" y="680" as="targetPoint" />
          </mxGeometry>
        </mxCell>
        <mxCell id="J8hBxOplMBVv3ACiszUE-132" value="" style="endArrow=open;endFill=1;endSize=12;html=1;rounded=0;entryX=1.024;entryY=0.138;entryDx=0;entryDy=0;entryPerimeter=0;" edge="1" parent="1" source="J8hBxOplMBVv3ACiszUE-110" target="J8hBxOplMBVv3ACiszUE-40">
          <mxGeometry width="160" relative="1" as="geometry">
            <mxPoint x="1960" y="830" as="sourcePoint" />
            <mxPoint x="2350" y="940" as="targetPoint" />
          </mxGeometry>
        </mxCell>
        <mxCell id="J8hBxOplMBVv3ACiszUE-133" value="CommandProcessor&lt;br&gt;" style="swimlane;fontStyle=1;align=center;verticalAlign=top;childLayout=stackLayout;horizontal=1;startSize=26;horizontalStack=0;resizeParent=1;resizeParentMax=0;resizeLast=0;collapsible=1;marginBottom=0;whiteSpace=wrap;html=1;" vertex="1" parent="1">
          <mxGeometry x="1110" y="1340" width="285" height="130" as="geometry" />
        </mxCell>
        <mxCell id="J8hBxOplMBVv3ACiszUE-134" value="- commandProcessor: CommandProcessor" style="text;strokeColor=none;fillColor=#FFFFFF;align=left;verticalAlign=top;spacingLeft=4;spacingRight=4;overflow=hidden;rotatable=0;points=[[0,0.5],[1,0.5]];portConstraint=eastwest;whiteSpace=wrap;html=1;" vertex="1" parent="J8hBxOplMBVv3ACiszUE-133">
          <mxGeometry y="26" width="285" height="26" as="geometry" />
        </mxCell>
        <mxCell id="J8hBxOplMBVv3ACiszUE-135" value="" style="line;strokeWidth=1;fillColor=none;align=left;verticalAlign=middle;spacingTop=-1;spacingLeft=3;spacingRight=3;rotatable=0;labelPosition=right;points=[];portConstraint=eastwest;strokeColor=inherit;" vertex="1" parent="J8hBxOplMBVv3ACiszUE-133">
          <mxGeometry y="52" width="285" height="8" as="geometry" />
        </mxCell>
        <mxCell id="J8hBxOplMBVv3ACiszUE-136" value="CommandProcessor()&lt;br&gt;+ makeCommandProcessor(): CommandProcessor&lt;br&gt;+ execute(Command): void" style="text;strokeColor=none;fillColor=#FFFFFF;align=left;verticalAlign=top;spacingLeft=4;spacingRight=4;overflow=hidden;rotatable=0;points=[[0,0.5],[1,0.5]];portConstraint=eastwest;whiteSpace=wrap;html=1;" vertex="1" parent="J8hBxOplMBVv3ACiszUE-133">
          <mxGeometry y="60" width="285" height="70" as="geometry" />
        </mxCell>
        <mxCell id="J8hBxOplMBVv3ACiszUE-137" value="" style="endArrow=open;endFill=1;endSize=12;html=1;rounded=0;exitX=1.002;exitY=0.854;exitDx=0;exitDy=0;exitPerimeter=0;" edge="1" parent="1" source="J8hBxOplMBVv3ACiszUE-15" target="J8hBxOplMBVv3ACiszUE-133">
          <mxGeometry width="160" relative="1" as="geometry">
            <mxPoint x="660" y="873" as="sourcePoint" />
            <mxPoint x="720" y="951" as="targetPoint" />
          </mxGeometry>
        </mxCell>
        <mxCell id="J8hBxOplMBVv3ACiszUE-138" value="" style="endArrow=diamondThin;endFill=1;endSize=24;html=1;rounded=0;exitX=0;exitY=0;exitDx=0;exitDy=0;entryX=0.647;entryY=0.997;entryDx=0;entryDy=0;entryPerimeter=0;" edge="1" parent="1" source="J8hBxOplMBVv3ACiszUE-54" target="J8hBxOplMBVv3ACiszUE-38">
          <mxGeometry width="160" relative="1" as="geometry">
            <mxPoint x="640" y="4010" as="sourcePoint" />
            <mxPoint x="743" y="3910" as="targetPoint" />
          </mxGeometry>
        </mxCell>
        <mxCell id="J8hBxOplMBVv3ACiszUE-139" value="House" style="swimlane;fontStyle=1;align=center;verticalAlign=top;childLayout=stackLayout;horizontal=1;startSize=26;horizontalStack=0;resizeParent=1;resizeParentMax=0;resizeLast=0;collapsible=1;marginBottom=0;whiteSpace=wrap;html=1;" vertex="1" parent="1">
          <mxGeometry x="230" y="2380" width="160" height="120" as="geometry" />
        </mxCell>
        <mxCell id="J8hBxOplMBVv3ACiszUE-140" value="- loaiNha: String&lt;br&gt;- diaChi: String" style="text;strokeColor=none;fillColor=none;align=left;verticalAlign=top;spacingLeft=4;spacingRight=4;overflow=hidden;rotatable=0;points=[[0,0.5],[1,0.5]];portConstraint=eastwest;whiteSpace=wrap;html=1;" vertex="1" parent="J8hBxOplMBVv3ACiszUE-139">
          <mxGeometry y="26" width="160" height="44" as="geometry" />
        </mxCell>
        <mxCell id="J8hBxOplMBVv3ACiszUE-141" value="" style="line;strokeWidth=1;fillColor=none;align=left;verticalAlign=middle;spacingTop=-1;spacingLeft=3;spacingRight=3;rotatable=0;labelPosition=right;points=[];portConstraint=eastwest;strokeColor=inherit;" vertex="1" parent="J8hBxOplMBVv3ACiszUE-139">
          <mxGeometry y="70" width="160" height="8" as="geometry" />
        </mxCell>
        <mxCell id="J8hBxOplMBVv3ACiszUE-142" value="+ getter/setter&lt;br&gt;+ getThanhTien: double" style="text;strokeColor=none;fillColor=none;align=left;verticalAlign=top;spacingLeft=4;spacingRight=4;overflow=hidden;rotatable=0;points=[[0,0.5],[1,0.5]];portConstraint=eastwest;whiteSpace=wrap;html=1;" vertex="1" parent="J8hBxOplMBVv3ACiszUE-139">
          <mxGeometry y="78" width="160" height="42" as="geometry" />
        </mxCell>
        <mxCell id="J8hBxOplMBVv3ACiszUE-143" value="&lt;p style=&quot;margin:0px;margin-top:4px;text-align:center;&quot;&gt;&lt;i&gt;&amp;lt;&amp;lt;abstract&amp;gt;&amp;gt;&lt;/i&gt;&lt;br&gt;&lt;b&gt;QuanLy&lt;/b&gt;&lt;/p&gt;&lt;hr size=&quot;1&quot;&gt;&lt;p style=&quot;margin:0px;margin-left:4px;&quot;&gt;- maGiaoDich: int&lt;/p&gt;&lt;p style=&quot;margin:0px;margin-left:4px;&quot;&gt;- ngayGiaoDich: String&lt;/p&gt;&lt;p style=&quot;margin:0px;margin-left:4px;&quot;&gt;- donGia: int&lt;/p&gt;&lt;p style=&quot;margin:0px;margin-left:4px;&quot;&gt;- dienTich: double&lt;/p&gt;&lt;hr size=&quot;1&quot;&gt;&lt;p style=&quot;margin:0px;margin-left:4px;&quot;&gt;+&amp;nbsp;&lt;/p&gt;" style="verticalAlign=top;align=left;overflow=fill;fontSize=12;fontFamily=Helvetica;html=1;whiteSpace=wrap;" vertex="1" parent="1">
          <mxGeometry x="360" y="2080" width="190" height="140" as="geometry" />
        </mxCell>
        <mxCell id="J8hBxOplMBVv3ACiszUE-144" value="Extends" style="endArrow=block;endSize=16;endFill=0;html=1;rounded=0;entryX=0.25;entryY=1;entryDx=0;entryDy=0;" edge="1" parent="1" source="J8hBxOplMBVv3ACiszUE-139" target="J8hBxOplMBVv3ACiszUE-143">
          <mxGeometry width="160" relative="1" as="geometry">
            <mxPoint x="380" y="2090" as="sourcePoint" />
            <mxPoint x="540" y="2090" as="targetPoint" />
          </mxGeometry>
        </mxCell>
        <mxCell id="J8hBxOplMBVv3ACiszUE-145" value="Land" style="swimlane;fontStyle=1;align=center;verticalAlign=top;childLayout=stackLayout;horizontal=1;startSize=26;horizontalStack=0;resizeParent=1;resizeParentMax=0;resizeLast=0;collapsible=1;marginBottom=0;whiteSpace=wrap;html=1;" vertex="1" parent="1">
          <mxGeometry x="520" y="2390" width="160" height="110" as="geometry" />
        </mxCell>
        <mxCell id="J8hBxOplMBVv3ACiszUE-146" value="- loaiDat: String" style="text;strokeColor=none;fillColor=none;align=left;verticalAlign=top;spacingLeft=4;spacingRight=4;overflow=hidden;rotatable=0;points=[[0,0.5],[1,0.5]];portConstraint=eastwest;whiteSpace=wrap;html=1;" vertex="1" parent="J8hBxOplMBVv3ACiszUE-145">
          <mxGeometry y="26" width="160" height="26" as="geometry" />
        </mxCell>
        <mxCell id="J8hBxOplMBVv3ACiszUE-147" value="" style="line;strokeWidth=1;fillColor=none;align=left;verticalAlign=middle;spacingTop=-1;spacingLeft=3;spacingRight=3;rotatable=0;labelPosition=right;points=[];portConstraint=eastwest;strokeColor=inherit;" vertex="1" parent="J8hBxOplMBVv3ACiszUE-145">
          <mxGeometry y="52" width="160" height="8" as="geometry" />
        </mxCell>
        <mxCell id="J8hBxOplMBVv3ACiszUE-148" value="+ getter/setter&lt;br&gt;+ getThanhTien: double" style="text;strokeColor=none;fillColor=none;align=left;verticalAlign=top;spacingLeft=4;spacingRight=4;overflow=hidden;rotatable=0;points=[[0,0.5],[1,0.5]];portConstraint=eastwest;whiteSpace=wrap;html=1;" vertex="1" parent="J8hBxOplMBVv3ACiszUE-145">
          <mxGeometry y="60" width="160" height="50" as="geometry" />
        </mxCell>
        <mxCell id="J8hBxOplMBVv3ACiszUE-149" value="Extends" style="endArrow=block;endSize=16;endFill=0;html=1;rounded=0;exitX=0.25;exitY=0;exitDx=0;exitDy=0;entryX=0.75;entryY=1;entryDx=0;entryDy=0;" edge="1" parent="1" source="J8hBxOplMBVv3ACiszUE-145" target="J8hBxOplMBVv3ACiszUE-143">
          <mxGeometry width="160" relative="1" as="geometry">
            <mxPoint x="366" y="2101" as="sourcePoint" />
            <mxPoint x="516" y="2154" as="targetPoint" />
          </mxGeometry>
        </mxCell>
        <mxCell id="J8hBxOplMBVv3ACiszUE-150" value="Use" style="endArrow=open;endSize=12;dashed=1;html=1;rounded=0;exitX=1;exitY=0.25;exitDx=0;exitDy=0;" edge="1" parent="1" source="J8hBxOplMBVv3ACiszUE-20" target="J8hBxOplMBVv3ACiszUE-143">
          <mxGeometry width="160" relative="1" as="geometry">
            <mxPoint x="-160" y="2320" as="sourcePoint" />
            <mxPoint x="-200" y="2520" as="targetPoint" />
          </mxGeometry>
        </mxCell>
        <mxCell id="J8hBxOplMBVv3ACiszUE-151" value="SumCountHouseCommand" style="swimlane;fontStyle=1;align=center;verticalAlign=top;childLayout=stackLayout;horizontal=1;startSize=26;horizontalStack=0;resizeParent=1;resizeParentMax=0;resizeLast=0;collapsible=1;marginBottom=0;whiteSpace=wrap;html=1;" vertex="1" parent="1">
          <mxGeometry x="-1410" y="1590" width="285" height="110" as="geometry" />
        </mxCell>
        <mxCell id="J8hBxOplMBVv3ACiszUE-152" value="-&amp;nbsp;" style="text;strokeColor=none;fillColor=#FFFFFF;align=left;verticalAlign=top;spacingLeft=4;spacingRight=4;overflow=hidden;rotatable=0;points=[[0,0.5],[1,0.5]];portConstraint=eastwest;whiteSpace=wrap;html=1;" vertex="1" parent="J8hBxOplMBVv3ACiszUE-151">
          <mxGeometry y="26" width="285" height="26" as="geometry" />
        </mxCell>
        <mxCell id="J8hBxOplMBVv3ACiszUE-153" value="" style="line;strokeWidth=1;fillColor=none;align=left;verticalAlign=middle;spacingTop=-1;spacingLeft=3;spacingRight=3;rotatable=0;labelPosition=right;points=[];portConstraint=eastwest;strokeColor=inherit;" vertex="1" parent="J8hBxOplMBVv3ACiszUE-151">
          <mxGeometry y="52" width="285" height="8" as="geometry" />
        </mxCell>
        <mxCell id="J8hBxOplMBVv3ACiszUE-154" value="SumCountHouseCommand(HouseService, String)&lt;br&gt;+ execute(): void" style="text;strokeColor=none;fillColor=#FFFFFF;align=left;verticalAlign=top;spacingLeft=4;spacingRight=4;overflow=hidden;rotatable=0;points=[[0,0.5],[1,0.5]];portConstraint=eastwest;whiteSpace=wrap;html=1;" vertex="1" parent="J8hBxOplMBVv3ACiszUE-151">
          <mxGeometry y="60" width="285" height="50" as="geometry" />
        </mxCell>
        <mxCell id="J8hBxOplMBVv3ACiszUE-155" value="ExportCommand" style="swimlane;fontStyle=1;align=center;verticalAlign=top;childLayout=stackLayout;horizontal=1;startSize=26;horizontalStack=0;resizeParent=1;resizeParentMax=0;resizeLast=0;collapsible=1;marginBottom=0;whiteSpace=wrap;html=1;" vertex="1" parent="1">
          <mxGeometry x="-1240" y="1711.24" width="285" height="110" as="geometry" />
        </mxCell>
        <mxCell id="J8hBxOplMBVv3ACiszUE-156" value="-&amp;nbsp;" style="text;strokeColor=none;fillColor=#FFFFFF;align=left;verticalAlign=top;spacingLeft=4;spacingRight=4;overflow=hidden;rotatable=0;points=[[0,0.5],[1,0.5]];portConstraint=eastwest;whiteSpace=wrap;html=1;" vertex="1" parent="J8hBxOplMBVv3ACiszUE-155">
          <mxGeometry y="26" width="285" height="26" as="geometry" />
        </mxCell>
        <mxCell id="J8hBxOplMBVv3ACiszUE-157" value="" style="line;strokeWidth=1;fillColor=none;align=left;verticalAlign=middle;spacingTop=-1;spacingLeft=3;spacingRight=3;rotatable=0;labelPosition=right;points=[];portConstraint=eastwest;strokeColor=inherit;" vertex="1" parent="J8hBxOplMBVv3ACiszUE-155">
          <mxGeometry y="52" width="285" height="8" as="geometry" />
        </mxCell>
        <mxCell id="J8hBxOplMBVv3ACiszUE-158" value="ExportCommand(HouseService, int)&lt;br&gt;+ execute(): void" style="text;strokeColor=none;fillColor=#FFFFFF;align=left;verticalAlign=top;spacingLeft=4;spacingRight=4;overflow=hidden;rotatable=0;points=[[0,0.5],[1,0.5]];portConstraint=eastwest;whiteSpace=wrap;html=1;" vertex="1" parent="J8hBxOplMBVv3ACiszUE-155">
          <mxGeometry y="60" width="285" height="50" as="geometry" />
        </mxCell>
        <mxCell id="J8hBxOplMBVv3ACiszUE-159" value="CalcCommand" style="swimlane;fontStyle=1;align=center;verticalAlign=top;childLayout=stackLayout;horizontal=1;startSize=26;horizontalStack=0;resizeParent=1;resizeParentMax=0;resizeLast=0;collapsible=1;marginBottom=0;whiteSpace=wrap;html=1;" vertex="1" parent="1">
          <mxGeometry x="-1115" y="1850" width="285" height="110" as="geometry" />
        </mxCell>
        <mxCell id="J8hBxOplMBVv3ACiszUE-160" value="-&amp;nbsp;" style="text;strokeColor=none;fillColor=#FFFFFF;align=left;verticalAlign=top;spacingLeft=4;spacingRight=4;overflow=hidden;rotatable=0;points=[[0,0.5],[1,0.5]];portConstraint=eastwest;whiteSpace=wrap;html=1;" vertex="1" parent="J8hBxOplMBVv3ACiszUE-159">
          <mxGeometry y="26" width="285" height="26" as="geometry" />
        </mxCell>
        <mxCell id="J8hBxOplMBVv3ACiszUE-161" value="" style="line;strokeWidth=1;fillColor=none;align=left;verticalAlign=middle;spacingTop=-1;spacingLeft=3;spacingRight=3;rotatable=0;labelPosition=right;points=[];portConstraint=eastwest;strokeColor=inherit;" vertex="1" parent="J8hBxOplMBVv3ACiszUE-159">
          <mxGeometry y="52" width="285" height="8" as="geometry" />
        </mxCell>
        <mxCell id="J8hBxOplMBVv3ACiszUE-162" value="CalcCommand(HouseService, House)&lt;br&gt;+ execute(): void" style="text;strokeColor=none;fillColor=#FFFFFF;align=left;verticalAlign=top;spacingLeft=4;spacingRight=4;overflow=hidden;rotatable=0;points=[[0,0.5],[1,0.5]];portConstraint=eastwest;whiteSpace=wrap;html=1;" vertex="1" parent="J8hBxOplMBVv3ACiszUE-159">
          <mxGeometry y="60" width="285" height="50" as="geometry" />
        </mxCell>
        <mxCell id="J8hBxOplMBVv3ACiszUE-163" value="" style="endArrow=block;endSize=16;endFill=0;html=1;rounded=0;exitX=1;exitY=0;exitDx=0;exitDy=0;entryX=0.005;entryY=0.948;entryDx=0;entryDy=0;entryPerimeter=0;" edge="1" parent="1" source="J8hBxOplMBVv3ACiszUE-151" target="J8hBxOplMBVv3ACiszUE-63">
          <mxGeometry x="-1" y="-496" width="160" relative="1" as="geometry">
            <mxPoint x="-1096" y="792" as="sourcePoint" />
            <mxPoint x="-800" y="754" as="targetPoint" />
            <mxPoint x="402" y="310" as="offset" />
          </mxGeometry>
        </mxCell>
        <mxCell id="J8hBxOplMBVv3ACiszUE-164" value="Extends" style="edgeLabel;html=1;align=center;verticalAlign=middle;resizable=0;points=[];" vertex="1" connectable="0" parent="J8hBxOplMBVv3ACiszUE-163">
          <mxGeometry x="-0.0619" y="-2" relative="1" as="geometry">
            <mxPoint as="offset" />
          </mxGeometry>
        </mxCell>
        <mxCell id="J8hBxOplMBVv3ACiszUE-165" value="" style="endArrow=block;endSize=16;endFill=0;html=1;rounded=0;exitX=0.75;exitY=0;exitDx=0;exitDy=0;entryX=0.077;entryY=0.994;entryDx=0;entryDy=0;entryPerimeter=0;" edge="1" parent="1" source="J8hBxOplMBVv3ACiszUE-155" target="J8hBxOplMBVv3ACiszUE-63">
          <mxGeometry x="-1" y="-496" width="160" relative="1" as="geometry">
            <mxPoint x="-1150" y="830" as="sourcePoint" />
            <mxPoint x="-789" y="746" as="targetPoint" />
            <mxPoint x="402" y="310" as="offset" />
          </mxGeometry>
        </mxCell>
        <mxCell id="J8hBxOplMBVv3ACiszUE-166" value="Extends" style="edgeLabel;html=1;align=center;verticalAlign=middle;resizable=0;points=[];" vertex="1" connectable="0" parent="J8hBxOplMBVv3ACiszUE-165">
          <mxGeometry x="-0.0619" y="-2" relative="1" as="geometry">
            <mxPoint as="offset" />
          </mxGeometry>
        </mxCell>
        <mxCell id="J8hBxOplMBVv3ACiszUE-167" value="" style="endArrow=block;endSize=16;endFill=0;html=1;rounded=0;exitX=0.922;exitY=-0.01;exitDx=0;exitDy=0;exitPerimeter=0;entryX=0.192;entryY=1.041;entryDx=0;entryDy=0;entryPerimeter=0;" edge="1" parent="1" source="J8hBxOplMBVv3ACiszUE-159" target="J8hBxOplMBVv3ACiszUE-63">
          <mxGeometry x="-1" y="-496" width="160" relative="1" as="geometry">
            <mxPoint x="-1150" y="830" as="sourcePoint" />
            <mxPoint x="-789" y="746" as="targetPoint" />
            <mxPoint x="402" y="310" as="offset" />
          </mxGeometry>
        </mxCell>
        <mxCell id="J8hBxOplMBVv3ACiszUE-168" value="Extends" style="edgeLabel;html=1;align=center;verticalAlign=middle;resizable=0;points=[];" vertex="1" connectable="0" parent="J8hBxOplMBVv3ACiszUE-167">
          <mxGeometry x="-0.0619" y="-2" relative="1" as="geometry">
            <mxPoint as="offset" />
          </mxGeometry>
        </mxCell>
        <mxCell id="J8hBxOplMBVv3ACiszUE-169" value="Use" style="endArrow=open;endSize=12;dashed=1;html=1;rounded=0;exitX=0;exitY=0.25;exitDx=0;exitDy=0;entryX=1;entryY=1;entryDx=0;entryDy=0;" edge="1" parent="1" source="J8hBxOplMBVv3ACiszUE-40" target="J8hBxOplMBVv3ACiszUE-143">
          <mxGeometry width="160" relative="1" as="geometry">
            <mxPoint x="-40" y="988" as="sourcePoint" />
            <mxPoint x="210" y="1001" as="targetPoint" />
          </mxGeometry>
        </mxCell>
        <mxCell id="J8hBxOplMBVv3ACiszUE-170" value="SumCountLandCommand" style="swimlane;fontStyle=1;align=center;verticalAlign=top;childLayout=stackLayout;horizontal=1;startSize=26;horizontalStack=0;resizeParent=1;resizeParentMax=0;resizeLast=0;collapsible=1;marginBottom=0;whiteSpace=wrap;html=1;" vertex="1" parent="1">
          <mxGeometry x="1880" y="1580" width="285" height="110" as="geometry" />
        </mxCell>
        <mxCell id="J8hBxOplMBVv3ACiszUE-171" value="-&amp;nbsp;" style="text;strokeColor=none;fillColor=#FFFFFF;align=left;verticalAlign=top;spacingLeft=4;spacingRight=4;overflow=hidden;rotatable=0;points=[[0,0.5],[1,0.5]];portConstraint=eastwest;whiteSpace=wrap;html=1;" vertex="1" parent="J8hBxOplMBVv3ACiszUE-170">
          <mxGeometry y="26" width="285" height="26" as="geometry" />
        </mxCell>
        <mxCell id="J8hBxOplMBVv3ACiszUE-172" value="" style="line;strokeWidth=1;fillColor=none;align=left;verticalAlign=middle;spacingTop=-1;spacingLeft=3;spacingRight=3;rotatable=0;labelPosition=right;points=[];portConstraint=eastwest;strokeColor=inherit;" vertex="1" parent="J8hBxOplMBVv3ACiszUE-170">
          <mxGeometry y="52" width="285" height="8" as="geometry" />
        </mxCell>
        <mxCell id="J8hBxOplMBVv3ACiszUE-173" value="SumCountLandCommand(HouseService, String)&lt;br&gt;+ execute(): void" style="text;strokeColor=none;fillColor=#FFFFFF;align=left;verticalAlign=top;spacingLeft=4;spacingRight=4;overflow=hidden;rotatable=0;points=[[0,0.5],[1,0.5]];portConstraint=eastwest;whiteSpace=wrap;html=1;" vertex="1" parent="J8hBxOplMBVv3ACiszUE-170">
          <mxGeometry y="60" width="285" height="50" as="geometry" />
        </mxCell>
        <mxCell id="J8hBxOplMBVv3ACiszUE-174" value="ExportCommand" style="swimlane;fontStyle=1;align=center;verticalAlign=top;childLayout=stackLayout;horizontal=1;startSize=26;horizontalStack=0;resizeParent=1;resizeParentMax=0;resizeLast=0;collapsible=1;marginBottom=0;whiteSpace=wrap;html=1;" vertex="1" parent="1">
          <mxGeometry x="1810" y="1710" width="285" height="110" as="geometry" />
        </mxCell>
        <mxCell id="J8hBxOplMBVv3ACiszUE-175" value="-&amp;nbsp;" style="text;strokeColor=none;fillColor=#FFFFFF;align=left;verticalAlign=top;spacingLeft=4;spacingRight=4;overflow=hidden;rotatable=0;points=[[0,0.5],[1,0.5]];portConstraint=eastwest;whiteSpace=wrap;html=1;" vertex="1" parent="J8hBxOplMBVv3ACiszUE-174">
          <mxGeometry y="26" width="285" height="26" as="geometry" />
        </mxCell>
        <mxCell id="J8hBxOplMBVv3ACiszUE-176" value="" style="line;strokeWidth=1;fillColor=none;align=left;verticalAlign=middle;spacingTop=-1;spacingLeft=3;spacingRight=3;rotatable=0;labelPosition=right;points=[];portConstraint=eastwest;strokeColor=inherit;" vertex="1" parent="J8hBxOplMBVv3ACiszUE-174">
          <mxGeometry y="52" width="285" height="8" as="geometry" />
        </mxCell>
        <mxCell id="J8hBxOplMBVv3ACiszUE-177" value="ExportCommand(HouseService, int)&lt;br&gt;+ execute(): void" style="text;strokeColor=none;fillColor=#FFFFFF;align=left;verticalAlign=top;spacingLeft=4;spacingRight=4;overflow=hidden;rotatable=0;points=[[0,0.5],[1,0.5]];portConstraint=eastwest;whiteSpace=wrap;html=1;" vertex="1" parent="J8hBxOplMBVv3ACiszUE-174">
          <mxGeometry y="60" width="285" height="50" as="geometry" />
        </mxCell>
        <mxCell id="J8hBxOplMBVv3ACiszUE-178" value="CalcCommand" style="swimlane;fontStyle=1;align=center;verticalAlign=top;childLayout=stackLayout;horizontal=1;startSize=26;horizontalStack=0;resizeParent=1;resizeParentMax=0;resizeLast=0;collapsible=1;marginBottom=0;whiteSpace=wrap;html=1;" vertex="1" parent="1">
          <mxGeometry x="1610" y="1850" width="285" height="110" as="geometry" />
        </mxCell>
        <mxCell id="J8hBxOplMBVv3ACiszUE-179" value="-&amp;nbsp;" style="text;strokeColor=none;fillColor=#FFFFFF;align=left;verticalAlign=top;spacingLeft=4;spacingRight=4;overflow=hidden;rotatable=0;points=[[0,0.5],[1,0.5]];portConstraint=eastwest;whiteSpace=wrap;html=1;" vertex="1" parent="J8hBxOplMBVv3ACiszUE-178">
          <mxGeometry y="26" width="285" height="26" as="geometry" />
        </mxCell>
        <mxCell id="J8hBxOplMBVv3ACiszUE-180" value="" style="line;strokeWidth=1;fillColor=none;align=left;verticalAlign=middle;spacingTop=-1;spacingLeft=3;spacingRight=3;rotatable=0;labelPosition=right;points=[];portConstraint=eastwest;strokeColor=inherit;" vertex="1" parent="J8hBxOplMBVv3ACiszUE-178">
          <mxGeometry y="52" width="285" height="8" as="geometry" />
        </mxCell>
        <mxCell id="J8hBxOplMBVv3ACiszUE-181" value="CalcCommand(HouseService, House)&lt;br&gt;+ execute(): void" style="text;strokeColor=none;fillColor=#FFFFFF;align=left;verticalAlign=top;spacingLeft=4;spacingRight=4;overflow=hidden;rotatable=0;points=[[0,0.5],[1,0.5]];portConstraint=eastwest;whiteSpace=wrap;html=1;" vertex="1" parent="J8hBxOplMBVv3ACiszUE-178">
          <mxGeometry y="60" width="285" height="50" as="geometry" />
        </mxCell>
        <mxCell id="J8hBxOplMBVv3ACiszUE-182" value="" style="endArrow=block;endSize=16;endFill=0;html=1;rounded=0;exitX=0;exitY=0.5;exitDx=0;exitDy=0;entryX=1;entryY=1;entryDx=0;entryDy=0;" edge="1" parent="1" source="J8hBxOplMBVv3ACiszUE-175" target="J8hBxOplMBVv3ACiszUE-110">
          <mxGeometry x="-1" y="-496" width="160" relative="1" as="geometry">
            <mxPoint x="1710" y="754" as="sourcePoint" />
            <mxPoint x="1460" y="856" as="targetPoint" />
            <mxPoint x="402" y="310" as="offset" />
          </mxGeometry>
        </mxCell>
        <mxCell id="J8hBxOplMBVv3ACiszUE-183" value="Extends" style="edgeLabel;html=1;align=center;verticalAlign=middle;resizable=0;points=[];" vertex="1" connectable="0" parent="J8hBxOplMBVv3ACiszUE-182">
          <mxGeometry x="-0.0619" y="-2" relative="1" as="geometry">
            <mxPoint as="offset" />
          </mxGeometry>
        </mxCell>
        <mxCell id="J8hBxOplMBVv3ACiszUE-184" value="" style="endArrow=block;endSize=16;endFill=0;html=1;rounded=0;exitX=0;exitY=0;exitDx=0;exitDy=0;entryX=0.75;entryY=1;entryDx=0;entryDy=0;" edge="1" parent="1" source="J8hBxOplMBVv3ACiszUE-178" target="J8hBxOplMBVv3ACiszUE-110">
          <mxGeometry x="-1" y="-496" width="160" relative="1" as="geometry">
            <mxPoint x="1720" y="764" as="sourcePoint" />
            <mxPoint x="1470" y="866" as="targetPoint" />
            <mxPoint x="402" y="310" as="offset" />
          </mxGeometry>
        </mxCell>
        <mxCell id="J8hBxOplMBVv3ACiszUE-185" value="Extends" style="edgeLabel;html=1;align=center;verticalAlign=middle;resizable=0;points=[];" vertex="1" connectable="0" parent="J8hBxOplMBVv3ACiszUE-184">
          <mxGeometry x="-0.0619" y="-2" relative="1" as="geometry">
            <mxPoint as="offset" />
          </mxGeometry>
        </mxCell>
      </root>
    </mxGraphModel>
  </diagram>
</mxfile>
